<svg xmlns="http://www.w3.org/2000/svg" width="147.608" height="60.371" viewBox="0 0 147.608 60.371">
  <g id="Grupo_144" data-name="Grupo 144" transform="translate(-886.892 -6287.951)">
    <g id="Grupo_143" data-name="Grupo 143" transform="translate(886.893 6287.944)">
      <g id="Grupo_6" data-name="Grupo 6" transform="translate(0 0.007)">
        <path id="Trazado_87" data-name="Trazado 87" d="M71.833,42.255v7.893c-.016,6.023-3.994,10.177-10,10.193q-25.859.072-51.734,0C4.2,60.326.24,56.427.08,50.468-.064,45.323.048,40.162.048,35.018.032,26.965.064,18.913,0,10.86-.032,6.467,1.39,2.9,5.56,1.018A11.9,11.9,0,0,1,10.274.06q25.715-.1,51.414-.032c6.263.016,10.145,3.914,10.257,10.241.048,2.492,0,4.985,0,7.781.7-.383,1.182-.623,1.646-.895q8.34-4.793,16.7-9.6c5.017-2.892,10.369-.16,10.992,5.592a10.3,10.3,0,0,1,.064,1.214q0,15.841,0,31.683c-.016,4.426-2.524,7.525-6.567,7.7a9.817,9.817,0,0,1-4.761-1.214c-5.56-3-11.008-6.2-16.5-9.331C73.048,42.911,72.552,42.655,71.833,42.255ZM35.821,56.124H61.368c4.2,0,6.247-2.109,6.231-6.327q-.024-5.2.016-10.4c.016-2.748,1.47-3.611,3.835-2.269q8.364,4.793,16.7,9.618c1.454.847,2.876,1.742,4.378,2.508,2.317,1.182,4.362-.064,4.442-2.652.032-.911,0-1.837,0-2.748V14.024a3.209,3.209,0,0,0-1.422-3.147c-1.31-.783-2.444-.256-3.579.4Q81.707,17.2,71.434,23.115c-2.349,1.358-3.819.5-3.835-2.253-.016-3.467-.016-6.934-.032-10.4,0-4.074-1.965-6.231-6.007-6.247q-25.6-.1-51.223-.016C6.311,4.2,4.218,6.371,4.2,10.4q-.024,19.724.016,39.464c.016,4.2,2.141,6.247,6.359,6.247Q23.207,56.132,35.821,56.124Z" transform="translate(0 -0.007)" fill="#21364f"/>
      </g>
      <path id="Trazado_88" data-name="Trazado 88" d="M39.107,23.6,17.33,11.03V36.178Z" transform="translate(10.359 6.589)" fill="#21364f"/>
    </g>
    <line id="Línea_124" data-name="Línea 124" y1="10" x2="20" transform="translate(1008.5 6291.69)" fill="none" stroke="#21364f" stroke-width="3"/>
    <line id="Línea_125" data-name="Línea 125" x2="19" y2="11.19" transform="translate(1008.5 6335.31)" fill="none" stroke="#21364f" stroke-width="3"/>
    <line id="Línea_126" data-name="Línea 126" x2="22" transform="translate(1012.5 6319.5)" fill="none" stroke="#21364f" stroke-width="3"/>
  </g>
</svg>
