<svg xmlns="http://www.w3.org/2000/svg" width="91.428" height="103.646" viewBox="0 0 91.428 103.646">
  <g id="Grupo_159" data-name="Grupo 159" transform="translate(0.01 0.001)">
    <path id="Trazado_282" data-name="Trazado 282" d="M91.378,51.811c0,7.456-.062,14.917.033,22.369a6.2,6.2,0,0,1-3.438,5.994Q68.355,91.4,48.8,102.738a5.757,5.757,0,0,1-6.275-.048Q23.068,91.421,3.551,80.246A6.393,6.393,0,0,1-.01,74.08q.114-22.254,0-44.5A6.393,6.393,0,0,1,3.527,23.4Q23.061,12.259,42.5.961A5.767,5.767,0,0,1,48.779.894Q68.241,12.157,87.75,23.329a6.5,6.5,0,0,1,3.666,6.347C91.3,37.056,91.378,44.431,91.378,51.811ZM37.447,57.144c.314-3.447-.348-6.932.371-10.365,7.761-4.442,15.512-8.908,23.307-13.3a2.392,2.392,0,0,0,1.3-2.49c-.043-5.233-.076-10.465.019-15.693a2.719,2.719,0,0,0-1.69-2.738C56.6,10.25,52.464,7.912,48.393,5.465a4.7,4.7,0,0,0-5.309-.019Q24.9,15.98,6.651,26.4c-.9.514-1.857.947-2.128,2.085a4.169,4.169,0,0,0-.5,2.738q-.014,20.64,0,41.28c0,1.086-.148,2.238.728,3.133.224.771.9,1.062,1.514,1.409q14.52,8.349,29.034,16.7c1.533.886,2.224.9,2.214-1.171C37.456,80.77,37.466,68.957,37.447,57.144ZM86.664,27.986c-.019-.076-.019-.186-.067-.224-4.571-3.366-9.7-5.794-14.565-8.67-1.147-.676-1.29.333-1.286,1.176q.064,8.392.143,16.779c-.767.543-1.5,1.143-2.309,1.614-6.961,4.019-13.946,8-20.9,12.037-.686.4-1.743.481-1.819,1.6q-.043,22.211-.086,44.418c0,2.747.2,2.862,2.576,1.5Q66.56,87.771,84.76,77.3c.733-.424,1.614-.719,1.928-1.647.9-.881.752-2.019.752-3.109q.007-20.733,0-41.466C87.436,30,87.583,28.857,86.664,27.986Z" fill="#21364f"/>
  </g>
</svg>
