<svg xmlns="http://www.w3.org/2000/svg" width="97" height="96.96" viewBox="0 0 97 96.96">
  <g id="Grupo_140" data-name="Grupo 140" transform="translate(0.003)">
    <path id="Trazado_257" data-name="Trazado 257" d="M97,58.461V94.718a2.031,2.031,0,0,1-2.242,2.242c-.411,0-.853-.032-1.295-.032q-35.673,0-71.378,0a3.24,3.24,0,0,1-2.021-.853q-9.664-9.57-19.2-19.2a3.277,3.277,0,0,1-.821-2.021C-.026,50.723.005,26.562.005,2.463.005.726.732,0,2.437,0q36.194,0,72.42.032a3.424,3.424,0,0,1,2.116.884q9.617,9.522,19.108,19.108a3.272,3.272,0,0,1,.884,1.99c.032,12.16,0,24.319.032,36.447ZM73.5,23.466h-50v50h50ZM23.472,93.2H90.555c-.379-.411-.6-.695-.853-.947-4.737-4.737-9.475-9.507-14.244-14.181a3.269,3.269,0,0,0-1.958-.884c-16.3-.063-32.562-.032-48.859-.032-.347,0-.726.063-1.2.095C23.472,82.59,23.472,87.865,23.472,93.2ZM77.226,23.466c-.032.505-.063,1.011-.063,1.484,0,16.076-.032,32.183.032,48.259a2.988,2.988,0,0,0,.6,1.927c5.022,5.116,10.107,10.17,15.349,15.413V23.435C87.9,23.466,82.659,23.466,77.226,23.466ZM19.713,73.494c.032-.505.063-1.011.063-1.516q0-24.114-.032-48.259a2.693,2.693,0,0,0-.537-1.832C14.186,16.739,9.07,11.654,3.8,6.38V73.494Zm2.148-54.228a2.229,2.229,0,0,0,1.421.505q24.682.047,49.4.032c.221,0,.442-.063.79-.095V3.758H6.322C11.66,9.064,16.745,14.181,21.861,19.266ZM19.745,77.284H6.954c4.169,4.169,8.5,8.5,12.791,12.76Zm70.21-57.576c-4.169-4.169-8.527-8.527-12.728-12.7v12.7Z" transform="translate(0 0)" fill="#21364f" fill-rule="evenodd"/>
  </g>
</svg>
