<svg xmlns="http://www.w3.org/2000/svg" xmlns:xlink="http://www.w3.org/1999/xlink" width="296.323" height="341.353" viewBox="0 0 296.323 341.353">
  <defs>
    <clipPath id="clip-path">
      <rect id="Rectángulo_32" data-name="Rectángulo 32" width="296.323" height="341.353" fill="#fff"/>
    </clipPath>
  </defs>
  <g id="Grupo_16" data-name="Grupo 16" opacity="0.141">
    <g id="Grupo_15" data-name="Grupo 15" clip-path="url(#clip-path)">
      <path id="Trazado_87" data-name="Trazado 87" d="M191.084,155.292H24.222v3.626H191.084Zm0-72.539H24.222v3.63H191.084ZM24.222,207.274H152.277c1.011-1.234,2.073-2.444,3.156-3.626H24.222Zm166.862-76.163H24.222v3.63H191.084ZM15.44,278.346a4.833,4.833,0,0,1-4.828-4.828V15.439a4.833,4.833,0,0,1,4.828-4.828H199.868a4.834,4.834,0,0,1,4.828,4.828v161.4a88.318,88.318,0,0,1,10.612-1.042V15.439A15.457,15.457,0,0,0,199.868,0H15.44A15.456,15.456,0,0,0,0,15.439V273.518A15.456,15.456,0,0,0,15.44,288.958H133.948a56.224,56.224,0,0,1-2.43-10.612Zm175.644-97.088V179.47H24.222V183.1h161.1c.434-.2,3.285-1.072,5.764-1.838m0-74.328H24.222v3.63H191.084ZM24.222,37.232h54.72V33.6H24.222ZM132.908,252.005H24.222v3.63H132.5c.109-1.22.247-2.426.407-3.63M24.222,231.455H138.139c.478-1.222.971-2.434,1.5-3.628H24.222ZM191.084,58.575H24.222V62.2H191.084Zm27.624,127.551a77.614,77.614,0,1,0,77.616,77.62,77.7,77.7,0,0,0-77.616-77.62m0,144.312a66.7,66.7,0,1,1,66.7-66.692,66.772,66.772,0,0,1-66.7,66.692m45.566-101.486a8.227,8.227,0,0,0-5.725-2.377,8.334,8.334,0,0,0-6.447,3.156L211.015,280.1l-22.693-19.772a8.1,8.1,0,0,0-5.381-2.061,8.336,8.336,0,0,0-6.737,3.53,9.908,9.908,0,0,0-1.842,6.9,9.583,9.583,0,0,0,3.186,6.3l29.077,25.35a8.32,8.32,0,0,0,11.836-1.09l46.52-57.043a9.851,9.851,0,0,0,2.171-6.8,9.664,9.664,0,0,0-2.878-6.469" transform="translate(0.001)" fill="#fff"/>
    </g>
  </g>
</svg>
