<svg xmlns="http://www.w3.org/2000/svg" width="412.894" height="106.802" viewBox="0 0 412.894 106.802">
  <g id="Grupo_6" data-name="Grupo 6" transform="translate(-147 -135)">
    <path id="Trazado_43" data-name="Trazado 43" d="M19.851,14.6c-1.763,9.128,2.161,17.459,8.75,18.592S41.968,27.838,43.709,18.71C45.472,9.582,41.548,1.273,34.959.14,28.37-1.014,21.592,5.47,19.851,14.6Z" transform="translate(168.336 134.993)" fill="#21364f"/>
    <path id="Trazado_44" data-name="Trazado 44" d="M29.585,21.588c-3.022,7.638-1.007,15.444,4.533,17.4S46.582,36.319,49.6,28.66c3.022-7.638.986-15.444-4.533-17.4C39.531,9.313,32.585,13.929,29.585,21.588Z" transform="translate(177.95 146.867)" fill="#21364f" opacity="0.95"/>
    <path id="Trazado_45" data-name="Trazado 45" d="M30.053,35.088c-2.854,7.2-.944,14.542,4.26,16.388s11.73-2.518,14.563-9.716c2.854-7.2.923-14.542-4.26-16.388C39.412,23.526,32.886,27.869,30.053,35.088Z" transform="translate(178.551 162.388)" fill="#21364f" opacity="0.85"/>
    <path id="Trazado_46" data-name="Trazado 46" d="M23.391,45.708c-2.518,6.337-.818,12.779,3.735,14.416,4.574,1.616,10.324-2.2,12.821-8.54s.818-12.779-3.756-14.416C31.637,35.531,25.909,39.371,23.391,45.708Z" transform="translate(171.406 175.396)" fill="#21364f" opacity="0.8"/>
    <path id="Trazado_47" data-name="Trazado 47" d="M14.195,48.846c-2.161,5.5-.713,11.079,3.252,12.485s8.939-1.91,11.1-7.407.713-11.079-3.252-12.485C21.35,40.033,16.356,43.349,14.195,48.846Z" transform="translate(161.486 180.147)" fill="#21364f" opacity="0.7"/>
    <path id="Trazado_48" data-name="Trazado 48" d="M6.8,47.172c-1.763,4.491-.588,9.044,2.665,10.2,3.232,1.154,7.3-1.553,9.065-6.043s.588-9.044-2.665-10.2C12.632,39.975,8.561,42.7,6.8,47.172Z" transform="translate(153.565 179.87)" fill="#21364f" opacity="0.6"/>
    <path id="Trazado_49" data-name="Trazado 49" d="M2.333,41.084c-1.7,4.323-.567,8.729,2.56,9.82,3.127,1.112,7.03-1.49,8.729-5.833,1.721-4.323.567-8.708-2.56-9.82C7.957,34.159,4.054,36.761,2.333,41.084Z" transform="translate(148.692 173.431)" fill="#21364f" opacity="0.5"/>
    <path id="Trazado_50" data-name="Trazado 50" d="M.837,32.741c-1.8,4.574-.588,9.233,2.707,10.408C6.839,44.3,10.993,41.554,12.8,36.98s.588-9.254-2.707-10.408C6.8,25.4,2.642,28.146.837,32.741Z" transform="translate(146.998 163.874)" fill="#21364f" opacity="0.45"/>
    <path id="Trazado_51" data-name="Trazado 51" d="M2.732,24.373c-1.574,4.029-.525,8.1,2.392,9.128,2.9,1.028,6.526-1.406,8.121-5.414s.525-8.1-2.371-9.128C7.957,17.952,4.327,20.386,2.732,24.373Z" transform="translate(149.195 155.561)" fill="#21364f" opacity="0.4"/>
    <path id="Trazado_52" data-name="Trazado 52" d="M7.175,16.569c-1.427,3.609-.462,7.3,2.14,8.226s5.875-1.259,7.3-4.868.462-7.3-2.14-8.226S8.623,12.96,7.175,16.569Z" transform="translate(154.153 147.606)" fill="#21364f" opacity="0.3"/>
    <path id="Trazado_53" data-name="Trazado 53" d="M12.228,11.516c-.986,2.5-.315,5.015,1.49,5.666,1.8.63,4.05-.86,5.036-3.357.986-2.476.315-5.015-1.469-5.645C15.481,7.529,13.214,9.019,12.228,11.516Z" transform="translate(159.927 143.803)" fill="#21364f" opacity="0.2"/>
    <g id="Grupo_4" data-name="Grupo 4" transform="translate(243.207 147.723)">
      <path id="Trazado_54" data-name="Trazado 54" d="M45.85,45.062H57.979a6.588,6.588,0,0,0,2.686,5.351A12.778,12.778,0,0,0,67.8,52.2a11.489,11.489,0,0,0,5.54-1.259,3.793,3.793,0,0,0,2.14-3.4c0-2.14-2.5-3.735-7.491-4.826a34.325,34.325,0,0,1-4.826-1.07c-6.3-1.553-10.534-3.4-12.674-5.54A10.908,10.908,0,0,1,46.92,27.54,14.155,14.155,0,0,1,52.1,16.293c3.567-2.728,8.2-4.113,13.933-4.113,6.19,0,11.121,1.385,14.815,4.113a15.646,15.646,0,0,1,5.54,11.6h-7.68a5.671,5.671,0,0,1-5.183-3.043L72.1,23.427a9.6,9.6,0,0,0-5.9-1.616,10.54,10.54,0,0,0-5.351,1.07,3.609,3.609,0,0,0-1.616,3.211c0,1.91,3.085,3.5,9.275,4.826a17.237,17.237,0,0,0,1.889.546,7.744,7.744,0,0,0,1.511.168c6.064,1.553,10.3,3.336,12.674,5.372a11.221,11.221,0,0,1,3.4,8.561c0,5.246-1.91,9.275-5.708,12.15-3.567,2.6-8.918,3.924-16.074,3.924-6.8,0-11.835-1.364-15.171-4.113C47.592,54.8,45.85,50.811,45.85,45.565Z" transform="translate(-45.85 0.641)" fill="#21364f"/>
      <path id="Trazado_55" data-name="Trazado 55" d="M101.148,46.1h8.939A19.666,19.666,0,0,1,102.6,57.535q-5.54,4.123-13.933,4.113c-6.778,0-12.087-2.2-15.885-6.589C68.959,50.778,67.07,44.63,67.07,36.677q0-11.426,5.54-17.857c3.8-4.407,9.107-6.61,15.885-6.61q10.7,0,16.6,6.421,5.7,6.61,5.708,18.4v1.972a2.963,2.963,0,0,1-.189,1.259H79.723c.126,3.693,1.007,6.421,2.686,8.2,1.532,1.91,3.861,2.854,6.967,2.854a9.887,9.887,0,0,0,5.183-1.259,2.345,2.345,0,0,0,.986-.609c.315-.294.63-.63.986-.986a4.067,4.067,0,0,1,1.343-1.427A4.875,4.875,0,0,1,101.148,46.1ZM79.723,32.166H97.937c-.231-3.211-1.07-5.582-2.5-7.134a8.559,8.559,0,0,0-6.61-2.5,8.7,8.7,0,0,0-6.421,2.5C80.73,26.689,79.849,29.081,79.723,32.166Z" transform="translate(-22.542 0.674)" fill="#21364f"/>
      <path id="Trazado_56" data-name="Trazado 56" d="M89.03,60.164V37.145a29.441,29.441,0,0,1,2.056-11.688,19.3,19.3,0,0,1,5.624-7.575,21.568,21.568,0,0,1,7.953-3.924,35.922,35.922,0,0,1,9.359-1.238h1.8V25.394h-4.113c-3.441,0-6,.839-7.68,2.5-1.679,1.679-2.5,4.281-2.5,7.848V60.185H89.03Z" transform="translate(1.578 1.234)" fill="#21364f"/>
      <path id="Trazado_57" data-name="Trazado 57" d="M132.2,60.186H119.528L102.93,12.7h13.22l9.464,33.385,8.394-29.1c.965-2.854,2.854-4.281,5.729-4.281h9.275Z" transform="translate(16.846 1.212)" fill="#21364f"/>
      <path id="Trazado_58" data-name="Trazado 58" d="M126,6.07h6.421A5.8,5.8,0,0,1,136.7,7.854a5.833,5.833,0,0,1,1.784,4.281V15.89H126ZM126,20h6.421a6.09,6.09,0,0,1,6.064,6.064V67.49H126Z" transform="translate(42.185 -6.07)" fill="#21364f"/>
      <path id="Trazado_59" data-name="Trazado 59" d="M133.091,45.062h12.15a6.532,6.532,0,0,0,2.686,5.351,12.778,12.778,0,0,0,7.134,1.784,11.347,11.347,0,0,0,5.519-1.259,3.793,3.793,0,0,0,2.14-3.4c0-2.14-2.5-3.735-7.491-4.826a34.325,34.325,0,0,1-4.826-1.07q-9.474-2.329-12.674-5.54a10.977,10.977,0,0,1-3.567-8.561,14.2,14.2,0,0,1,5.162-11.247c3.567-2.728,8.226-4.113,13.933-4.113,6.19,0,11.121,1.385,14.815,4.113a15.646,15.646,0,0,1,5.54,11.6h-7.68a5.671,5.671,0,0,1-5.183-3.043c-.483-.483-.965-.944-1.427-1.427a9.646,9.646,0,0,0-5.9-1.616,10.647,10.647,0,0,0-5.351,1.07,3.593,3.593,0,0,0-1.595,3.211c0,1.91,3.085,3.5,9.275,4.826a17.238,17.238,0,0,0,1.889.546,8.108,8.108,0,0,0,1.511.168c6.064,1.553,10.3,3.336,12.674,5.372a11.207,11.207,0,0,1,3.378,8.561c0,5.246-1.91,9.275-5.708,12.15-3.567,2.6-8.939,3.924-16.074,3.924q-10.167,0-15.171-4.113-5.194-4.092-5.183-11.961v-.5Z" transform="translate(49.951 0.641)" fill="#21364f"/>
      <path id="Trazado_60" data-name="Trazado 60" d="M188.4,46.1h8.918a19.471,19.471,0,0,1-7.491,11.436q-5.54,4.123-13.933,4.113c-6.778,0-12.087-2.2-15.885-6.589-3.819-4.281-5.729-10.429-5.729-18.382q0-11.426,5.54-17.857,5.729-6.61,15.885-6.61c7.155,0,12.674,2.14,16.6,6.421a24.33,24.33,0,0,1,4.637,9.107H184.455a11.617,11.617,0,0,0-1.784-2.686,8.621,8.621,0,0,0-6.61-2.5,8.779,8.779,0,0,0-6.442,2.5q-3.211,3.588-3.211,11.793t3.211,11.6c1.532,1.91,3.861,2.854,6.967,2.854a9.758,9.758,0,0,0,5.162-1.259,2.345,2.345,0,0,0,.986-.609l.986-.986a8.856,8.856,0,0,1,1.427-1.427A4.927,4.927,0,0,1,188.4,46.1Z" transform="translate(73.247 0.674)" fill="#21364f"/>
      <path id="Trazado_61" data-name="Trazado 61" d="M182.876,56.484a17.6,17.6,0,0,1-5.351-8.645,39.858,39.858,0,0,1-1.595-11.331,35.7,35.7,0,0,1,1.343-9.653,19.968,19.968,0,0,1,4.2-8.037,18.535,18.535,0,0,1,11.961-6.337,27.523,27.523,0,0,1,13.2,1.154,18.184,18.184,0,0,1,9.988,9.275,29.748,29.748,0,0,1,3.043,13.744,34.423,34.423,0,0,1-1.238,9.82,25.52,25.52,0,0,1-3.211,6.967,17.812,17.812,0,0,1-10.891,7.323,24.131,24.131,0,0,1-11.856.273A20.681,20.681,0,0,1,182.876,56.484Zm8.582-31.413q-3.746,4.123-3.4,12.234c.231,5.414,1.259,9.191,3.043,11.331a8.082,8.082,0,0,0,3.756,2.413,8.6,8.6,0,0,0,5.435.189,9.245,9.245,0,0,0,4.91-4.008c1.427-2.14,2.182-5.6,2.308-10.366,0-4.281-.692-7.491-2.056-9.632a9.382,9.382,0,0,0-4.742-4.113,8.64,8.64,0,0,0-5.351-.1A9.141,9.141,0,0,0,191.458,25.071Z" transform="translate(97.027 0.634)" fill="#21364f"/>
    </g>
    <g id="Grupo_5" data-name="Grupo 5" transform="translate(245.179 222.426)">
      <path id="Trazado_62" data-name="Trazado 62" d="M46.79,41.82h2.644a15.185,15.185,0,0,1,2.98.189,3.457,3.457,0,0,1,1.91,1.154,3.345,3.345,0,0,1,.734,2.182,3.6,3.6,0,0,1-.5,1.91,3.111,3.111,0,0,1-1.448,1.238,6.654,6.654,0,0,1-2.6.42l4.763,6.148H53.631l-4.763-6.148h-.755v6.148H46.79Zm1.322,1.3v4.491l2.287.021a5.608,5.608,0,0,0,1.951-.252,2.068,2.068,0,0,0,.986-.8,2.29,2.29,0,0,0,0-2.455,1.9,1.9,0,0,0-.944-.776,6.106,6.106,0,0,0-1.951-.231H48.112Z" transform="translate(-46.79 -41.505)" fill="#21364f"/>
      <path id="Trazado_63" data-name="Trazado 63" d="M52.51,41.82h7.575v1.3H53.832v4.155h6.211v1.3H53.832v5.2h6.211v1.3H52.51Z" transform="translate(-40.507 -41.505)" fill="#21364f"/>
      <path id="Trazado_64" data-name="Trazado 64" d="M63.638,41.82l6.169,13.241H68.38L66.3,50.7H60.6l-2.056,4.365H57.07L63.323,41.82Zm-.168,2.812L61.2,49.416h4.533Z" transform="translate(-35.499 -41.505)" fill="#21364f"/>
      <path id="Trazado_65" data-name="Trazado 65" d="M64.53,41.82h1.322V53.781h5.1v1.28H64.53Z" transform="translate(-27.305 -41.505)" fill="#21364f"/>
      <path id="Trazado_66" data-name="Trazado 66" d="M68.37,43.121v-1.3h7.26v1.3H72.672v11.94H71.329V43.121Z" transform="translate(-23.087 -41.505)" fill="#21364f"/>
      <path id="Trazado_67" data-name="Trazado 67" d="M72.65,41.82h1.532l3.378,5.456L80.9,41.82h1.532l-4.2,6.9V55.04h-1.3V48.724Z" transform="translate(-18.386 -41.505)" fill="#21364f"/>
      <path id="Trazado_68" data-name="Trazado 68" d="M81.6,41.82h2.644a15.932,15.932,0,0,1,3.064.189,3.365,3.365,0,0,1,1.847,1.154,3.293,3.293,0,0,1,.713,2.182,3.357,3.357,0,0,1-.692,2.182,3.415,3.415,0,0,1-1.931,1.154,17.023,17.023,0,0,1-3.357.21h-.944V55.04H81.6Zm1.322,1.3v4.491l2.245.021a5.8,5.8,0,0,0,1.993-.252,2.068,2.068,0,0,0,.986-.8,2.29,2.29,0,0,0,0-2.455,1.8,1.8,0,0,0-.944-.776,5.957,5.957,0,0,0-1.931-.231h-2.35Z" transform="translate(-8.555 -41.505)" fill="#21364f"/>
      <path id="Trazado_69" data-name="Trazado 69" d="M93.228,41.82,99.4,55.061H97.97L95.893,50.7H90.185l-2.056,4.365H86.66L92.913,41.82Zm-.168,2.812-2.266,4.784h4.532Z" transform="translate(-2.998 -41.505)" fill="#21364f"/>
      <path id="Trazado_70" data-name="Trazado 70" d="M94.161,41.82H96.8a15.185,15.185,0,0,1,2.98.189,3.457,3.457,0,0,1,1.91,1.154,3.345,3.345,0,0,1,.734,2.182,3.6,3.6,0,0,1-.5,1.91,3.111,3.111,0,0,1-1.448,1.238,6.654,6.654,0,0,1-2.6.42l4.763,6.148h-1.658l-4.763-6.148h-.755v6.148H94.14V41.82Zm1.322,1.3v4.491l2.287.021a5.608,5.608,0,0,0,1.951-.252,2.068,2.068,0,0,0,.986-.8,2.29,2.29,0,0,0,0-2.455,1.9,1.9,0,0,0-.944-.776,6.106,6.106,0,0,0-1.951-.231H95.483Z" transform="translate(5.218 -41.505)" fill="#21364f"/>
      <path id="Trazado_71" data-name="Trazado 71" d="M99.23,43.121v-1.3h7.26v1.3h-2.959v11.94h-1.343V43.121Z" transform="translate(10.809 -41.505)" fill="#21364f"/>
      <path id="Trazado_72" data-name="Trazado 72" d="M104.01,55.061V41.82h.294l8.813,10.135V41.82h1.3V55.061h-.294l-8.729-10.03v10.03Z" transform="translate(16.059 -41.505)" fill="#21364f"/>
      <path id="Trazado_73" data-name="Trazado 73" d="M110.92,41.82H118.5v1.3h-6.253v4.155h6.211v1.3h-6.211v5.2h6.211v1.3H110.92Z" transform="translate(23.649 -41.505)" fill="#21364f"/>
      <path id="Trazado_74" data-name="Trazado 74" d="M116.07,41.82h2.644a15.185,15.185,0,0,1,2.98.189,3.457,3.457,0,0,1,1.91,1.154,3.345,3.345,0,0,1,.734,2.182,3.6,3.6,0,0,1-.5,1.91,3.111,3.111,0,0,1-1.448,1.238,6.654,6.654,0,0,1-2.6.42l4.763,6.148h-1.637l-4.763-6.148h-.755v6.148H116.07V41.82Zm1.322,1.3v4.491l2.287.021a5.608,5.608,0,0,0,1.951-.252,2.068,2.068,0,0,0,.986-.8,2.29,2.29,0,0,0,0-2.455,1.9,1.9,0,0,0-.944-.776,6.106,6.106,0,0,0-1.951-.231h-2.329Z" transform="translate(29.306 -41.505)" fill="#21364f"/>
      <path id="Trazado_75" data-name="Trazado 75" d="M131.223,41.67a6.866,6.866,0,0,1,5.036,2.014,6.935,6.935,0,0,1-4.91,11.877,6.79,6.79,0,0,1-4.973-2.014,6.641,6.641,0,0,1-2.035-4.868,7.016,7.016,0,0,1,.923-3.525,6.706,6.706,0,0,1,2.518-2.56A6.618,6.618,0,0,1,131.223,41.67Zm.063,1.28a5.628,5.628,0,0,0-4.847,2.812,5.822,5.822,0,0,0-.734,2.9,5.553,5.553,0,0,0,5.582,5.6,5.638,5.638,0,0,0,2.854-.755,5.271,5.271,0,0,0,2.035-2.035,5.8,5.8,0,0,0,.734-2.875,5.721,5.721,0,0,0-.734-2.854,5.384,5.384,0,0,0-2.077-2.035A5.6,5.6,0,0,0,131.286,42.95Z" transform="translate(38.389 -41.67)" fill="#21364f"/>
      <path id="Trazado_76" data-name="Trazado 76" d="M132.66,41.82h6.631v1.3h-5.309v4.155h5.309v1.3h-5.309v6.5H132.66Z" transform="translate(47.528 -41.505)" fill="#21364f"/>
      <path id="Trazado_77" data-name="Trazado 77" d="M139.55,43.121v-1.3h7.26v1.3h-2.959v11.94h-1.343V43.121Z" transform="translate(55.096 -41.505)" fill="#21364f"/>
      <path id="Trazado_78" data-name="Trazado 78" d="M150.933,41.67a6.866,6.866,0,0,1,5.036,2.014,6.935,6.935,0,0,1-4.91,11.877,6.79,6.79,0,0,1-4.973-2.014,6.641,6.641,0,0,1-2.035-4.868,7.016,7.016,0,0,1,.923-3.525,6.706,6.706,0,0,1,2.518-2.56A6.565,6.565,0,0,1,150.933,41.67ZM151,42.95a5.628,5.628,0,0,0-4.847,2.812,5.823,5.823,0,0,0-.734,2.9A5.553,5.553,0,0,0,151,54.26a5.638,5.638,0,0,0,2.854-.755,5.271,5.271,0,0,0,2.035-2.035,5.8,5.8,0,0,0,.734-2.875,5.721,5.721,0,0,0-.734-2.854,5.383,5.383,0,0,0-2.077-2.035A5.655,5.655,0,0,0,151,42.95Z" transform="translate(60.038 -41.67)" fill="#21364f"/>
      <path id="Trazado_79" data-name="Trazado 79" d="M152.08,55.061l1.889-13.241h.21l5.372,10.849,5.33-10.849h.21L167,55.061h-1.3L164.4,45.6l-4.679,9.464h-.336l-4.742-9.527-1.3,9.527Z" transform="translate(68.858 -41.505)" fill="#21364f"/>
      <path id="Trazado_80" data-name="Trazado 80" d="M167.453,41.67a6.866,6.866,0,0,1,5.036,2.014,6.935,6.935,0,0,1-4.91,11.877,6.79,6.79,0,0,1-4.973-2.014,6.641,6.641,0,0,1-2.035-4.868,7.017,7.017,0,0,1,.923-3.525,6.809,6.809,0,0,1,5.959-3.483Zm.063,1.28a5.628,5.628,0,0,0-4.847,2.812,5.823,5.823,0,0,0-.734,2.9,5.553,5.553,0,0,0,5.582,5.6,5.637,5.637,0,0,0,2.854-.755,5.27,5.27,0,0,0,2.035-2.035,5.8,5.8,0,0,0,.734-2.875,5.721,5.721,0,0,0-.734-2.854,5.383,5.383,0,0,0-2.077-2.035A5.6,5.6,0,0,0,167.516,42.95Z" transform="translate(78.184 -41.67)" fill="#21364f"/>
      <path id="Trazado_81" data-name="Trazado 81" d="M168.93,41.82h2.644a15.185,15.185,0,0,1,2.98.189,3.457,3.457,0,0,1,1.91,1.154,3.345,3.345,0,0,1,.734,2.182,3.6,3.6,0,0,1-.5,1.91,3.111,3.111,0,0,1-1.448,1.238,6.654,6.654,0,0,1-2.6.42l4.763,6.148h-1.637l-4.763-6.148h-.755v6.148H168.93V41.82Zm1.322,1.3v4.491l2.287.021a5.608,5.608,0,0,0,1.951-.252,2.068,2.068,0,0,0,.986-.8,2.29,2.29,0,0,0,0-2.455,1.9,1.9,0,0,0-.944-.776,6.106,6.106,0,0,0-1.952-.231h-2.329Z" transform="translate(87.366 -41.505)" fill="#21364f"/>
      <path id="Trazado_82" data-name="Trazado 82" d="M174.67,41.82h2.644a15.185,15.185,0,0,1,2.98.189,3.457,3.457,0,0,1,1.91,1.154,3.345,3.345,0,0,1,.734,2.182,3.6,3.6,0,0,1-.5,1.91,3.112,3.112,0,0,1-1.448,1.238,6.654,6.654,0,0,1-2.6.42l4.763,6.148h-1.637l-4.763-6.148h-.755v6.148H174.67V41.82Zm1.322,1.3v4.491l2.287.021a5.608,5.608,0,0,0,1.951-.252,2.068,2.068,0,0,0,.986-.8,2.29,2.29,0,0,0,0-2.455,1.9,1.9,0,0,0-.944-.776,6.106,6.106,0,0,0-1.951-.231h-2.329Z" transform="translate(93.671 -41.505)" fill="#21364f"/>
      <path id="Trazado_83" data-name="Trazado 83" d="M186.983,41.67a6.866,6.866,0,0,1,5.036,2.014,6.935,6.935,0,0,1-4.91,11.877,6.79,6.79,0,0,1-4.973-2.014,6.641,6.641,0,0,1-2.035-4.868,7.017,7.017,0,0,1,.923-3.525,6.707,6.707,0,0,1,2.518-2.56A6.565,6.565,0,0,1,186.983,41.67Zm.063,1.28a5.629,5.629,0,0,0-4.847,2.812,5.823,5.823,0,0,0-.734,2.9,5.553,5.553,0,0,0,5.582,5.6A5.637,5.637,0,0,0,189.9,53.5a5.27,5.27,0,0,0,2.035-2.035,5.8,5.8,0,0,0,.734-2.875,5.721,5.721,0,0,0-.734-2.854,5.383,5.383,0,0,0-2.077-2.035A5.655,5.655,0,0,0,187.046,42.95Z" transform="translate(99.635 -41.67)" fill="#21364f"/>
      <path id="Trazado_84" data-name="Trazado 84" d="M188.07,41.82h1.364l2.707,9.527,3.8-9.527h.273l3.756,9.527,2.749-9.527h1.343l-3.8,13.241h-.252l-3.924-10.009-4.008,10.009h-.252Z" transform="translate(108.389 -41.505)" fill="#21364f"/>
    </g>
  </g>
</svg>
