<svg id="Grupo_251" data-name="Grupo 251" xmlns="http://www.w3.org/2000/svg" xmlns:xlink="http://www.w3.org/1999/xlink" width="243.266" height="242.972" viewBox="0 0 243.266 242.972">
  <defs>
    <clipPath id="clip-path">
      <rect id="Rectángulo_80" data-name="Rectángulo 80" width="243.266" height="242.972" fill="none"/>
    </clipPath>
    <clipPath id="clip-path-3">
      <rect id="Rectángulo_68" data-name="Rectángulo 68" width="8.492" height="11.353" fill="none"/>
    </clipPath>
    <clipPath id="clip-path-4">
      <rect id="Rectángulo_69" data-name="Rectángulo 69" width="7.985" height="10.692" fill="none"/>
    </clipPath>
    <clipPath id="clip-path-5">
      <rect id="Rectángulo_70" data-name="Rectángulo 70" width="7.027" height="9.406" fill="none"/>
    </clipPath>
    <clipPath id="clip-path-6">
      <rect id="Rectángulo_71" data-name="Rectángulo 71" width="6.086" height="8.148" fill="none"/>
    </clipPath>
    <clipPath id="clip-path-7">
      <rect id="Rectángulo_72" data-name="Rectángulo 72" width="4.974" height="6.652" fill="none"/>
    </clipPath>
    <clipPath id="clip-path-8">
      <rect id="Rectángulo_73" data-name="Rectángulo 73" width="4.788" height="6.412" fill="none"/>
    </clipPath>
    <clipPath id="clip-path-9">
      <rect id="Rectángulo_74" data-name="Rectángulo 74" width="5.074" height="6.787" fill="none"/>
    </clipPath>
    <clipPath id="clip-path-10">
      <rect id="Rectángulo_75" data-name="Rectángulo 75" width="4.459" height="5.956" fill="none"/>
    </clipPath>
    <clipPath id="clip-path-11">
      <rect id="Rectángulo_76" data-name="Rectángulo 76" width="4.005" height="5.363" fill="none"/>
    </clipPath>
    <clipPath id="clip-path-12">
      <rect id="Rectángulo_77" data-name="Rectángulo 77" width="2.769" height="3.692" fill="none"/>
    </clipPath>
  </defs>
  <g id="Grupo_250" data-name="Grupo 250" clip-path="url(#clip-path)">
    <g id="Grupo_247" data-name="Grupo 247">
      <g id="Grupo_246" data-name="Grupo 246" clip-path="url(#clip-path)">
        <path id="Trazado_546" data-name="Trazado 546" d="M6.014,103.25a1.954,1.954,0,0,0,1.631-1.6A117,117,0,0,1,227.1,68.3a1.954,1.954,0,0,0,2.033,1.045l.618-.094a1.953,1.953,0,0,0,1.446-2.817A121.493,121.493,0,0,0,3.178,101.084a1.953,1.953,0,0,0,2.217,2.26Z" transform="translate(-1.432 -0.024)" fill="#fff"/>
        <path id="Trazado_547" data-name="Trazado 547" d="M249.258,256.2a1.956,1.956,0,0,0-1.632,1.6A117,117,0,0,1,28.17,291.156a1.955,1.955,0,0,0-2.035-1.047l-.614.093a1.955,1.955,0,0,0-1.447,2.82,121.493,121.493,0,0,0,228.019-34.651,1.955,1.955,0,0,0-2.22-2.263Z" transform="translate(-10.847 -116.427)" fill="#fff"/>
        <path id="Trazado_548" data-name="Trazado 548" d="M247.08,260.784a1.956,1.956,0,0,0-1.613,1.507A101.607,101.607,0,0,1,58.279,290.737a1.954,1.954,0,1,0-3.389,1.946,105.517,105.517,0,0,0,194.391-29.54A1.955,1.955,0,0,0,247.08,260.784Z" transform="translate(-24.836 -118.553)" fill="#fff"/>
        <path id="Trazado_549" data-name="Trazado 549" d="M36.229,114.175a1.953,1.953,0,0,0,1.611-1.505A101.614,101.614,0,0,1,224.97,84.233a1.952,1.952,0,1,0,3.384-1.946A105.518,105.518,0,0,0,34.03,111.817a1.953,1.953,0,0,0,2.2,2.358" transform="translate(-15.449 -13.41)" fill="#fff"/>
        <path id="Trazado_550" data-name="Trazado 550" d="M118.055,249.991a1.955,1.955,0,0,0-1.575-1.543A101.614,101.614,0,0,1,79.8,62.756a1.952,1.952,0,1,0-2.095-3.3A105.519,105.519,0,0,0,115.8,252.291a1.953,1.953,0,0,0,2.259-2.3" transform="translate(-13.138 -26.894)" fill="#fff"/>
        <path id="Trazado_551" data-name="Trazado 551" d="M252.3,34.889a1.954,1.954,0,0,0,1.574,1.543,101.615,101.615,0,0,1,36.678,185.691,1.952,1.952,0,1,0,2.094,3.294A105.518,105.518,0,0,0,254.558,32.589a1.953,1.953,0,0,0-2.259,2.3" transform="translate(-114.688 -14.802)" fill="#fff"/>
        <path id="Trazado_552" data-name="Trazado 552" d="M120.735,264.361a2.25,2.25,0,0,0-2.063-1.48A117.025,117.025,0,0,1,44.334,57.963a2.248,2.248,0,1,0-2.962-3.382,121.521,121.521,0,0,0,77.2,212.795,2.249,2.249,0,0,0,2.167-3.015" transform="translate(0 -24.561)" fill="#fff"/>
        <path id="Trazado_553" data-name="Trazado 553" d="M223.565,3.024a2.245,2.245,0,0,0,2.069,1.464A116.809,116.809,0,0,1,301.16,208.54a2.244,2.244,0,1,0,2.978,3.357A121.3,121.3,0,0,0,225.709,0a2.244,2.244,0,0,0-2.144,3.023" transform="translate(-101.577 0)" fill="#fff"/>
        <path id="Trazado_554" data-name="Trazado 554" d="M187.8,71.976l4.806,7.928,9.248-.656L195.8,86.269l3.482,8.593-8.549-3.589-7.1,5.966L184.413,88,176.545,83.1l9.026-2.121Z" transform="translate(-80.265 -32.723)" fill="#fff"/>
        <path id="Trazado_555" data-name="Trazado 555" d="M150.554,29.622a2.249,2.249,0,1,1-2.562-1.886,2.25,2.25,0,0,1,2.562,1.886" transform="translate(-66.414 -12.598)" fill="#4d4d4d"/>
        <path id="Trazado_556" data-name="Trazado 556" d="M192.508,19.074a2.249,2.249,0,1,1-2.562-1.886,2.25,2.25,0,0,1,2.562,1.886" transform="translate(-85.488 -7.803)" fill="#fff"/>
        <path id="Trazado_557" data-name="Trazado 557" d="M150.554,29.622a2.249,2.249,0,1,1-2.562-1.886,2.25,2.25,0,0,1,2.562,1.886" transform="translate(-66.414 -12.598)" fill="#fff"/>
        <path id="Trazado_558" data-name="Trazado 558" d="M109.934,51.148a2.249,2.249,0,1,1-2.562-1.886,2.25,2.25,0,0,1,2.562,1.886" transform="translate(-47.947 -22.385)" fill="#fff"/>
        <path id="Trazado_559" data-name="Trazado 559" d="M77.987,77.031a2.249,2.249,0,1,1-2.562-1.886,2.25,2.25,0,0,1,2.562,1.886" transform="translate(-33.422 -34.152)" fill="#fff"/>
        <path id="Trazado_560" data-name="Trazado 560" d="M319.892,40.269a2.249,2.249,0,1,1-2.562-1.886,2.25,2.25,0,0,1,2.562,1.886" transform="translate(-143.402 -17.439)" fill="#fff"/>
        <path id="Trazado_561" data-name="Trazado 561" d="M278.925,25.467a2.249,2.249,0,1,1-2.562-1.886,2.25,2.25,0,0,1,2.562,1.886" transform="translate(-124.777 -10.709)" fill="#fff"/>
        <path id="Trazado_562" data-name="Trazado 562" d="M234.56,16.856A2.249,2.249,0,1,1,232,14.97a2.25,2.25,0,0,1,2.562,1.886" transform="translate(-104.607 -6.794)" fill="#fff"/>
        <path id="Trazado_563" data-name="Trazado 563" d="M249.869,423.735a2.249,2.249,0,1,1,2.562,1.886,2.25,2.25,0,0,1-2.562-1.886" transform="translate(-113.589 -191.47)" fill="#fff"/>
        <path id="Trazado_564" data-name="Trazado 564" d="M291.823,413.187a2.249,2.249,0,1,1,2.562,1.886,2.25,2.25,0,0,1-2.562-1.886" transform="translate(-132.663 -186.675)" fill="#fff"/>
        <path id="Trazado_565" data-name="Trazado 565" d="M332.443,391.661a2.249,2.249,0,1,1,2.562,1.886,2.25,2.25,0,0,1-2.562-1.886" transform="translate(-151.131 -176.888)" fill="#fff"/>
        <path id="Trazado_566" data-name="Trazado 566" d="M364.39,365.778a2.25,2.25,0,1,1,2.562,1.886,2.25,2.25,0,0,1-2.562-1.886" transform="translate(-165.655 -165.121)" fill="#fff"/>
        <path id="Trazado_567" data-name="Trazado 567" d="M122.485,402.539a2.249,2.249,0,1,1,2.562,1.886,2.249,2.249,0,0,1-2.562-1.886" transform="translate(-55.675 -181.834)" fill="#fff"/>
        <path id="Trazado_568" data-name="Trazado 568" d="M163.451,417.342a2.249,2.249,0,1,1,2.562,1.886,2.25,2.25,0,0,1-2.562-1.886" transform="translate(-74.3 -188.564)" fill="#fff"/>
        <path id="Trazado_569" data-name="Trazado 569" d="M207.817,425.953a2.249,2.249,0,1,1,2.562,1.886,2.25,2.25,0,0,1-2.562-1.886" transform="translate(-94.471 -192.479)" fill="#fff"/>
        <path id="Trazado_570" data-name="Trazado 570" d="M89.469,154.807c-.161,3.6,1.812,6.569,4.4,6.632s4.822-2.8,4.976-6.4-1.813-6.561-4.4-6.623-4.822,2.8-4.975,6.392" transform="translate(-40.672 -67.475)" fill="#fff"/>
        <g id="Grupo_218" data-name="Grupo 218" transform="translate(57.064 88.586)" opacity="0.95" style="isolation: isolate">
          <g id="Grupo_217" data-name="Grupo 217">
            <g id="Grupo_216" data-name="Grupo 216" clip-path="url(#clip-path-3)">
              <path id="Trazado_571" data-name="Trazado 571" d="M104.847,167.322c-.728,3.1.484,5.976,2.718,6.412s4.627-1.724,5.353-4.83-.492-5.974-2.718-6.411-4.634,1.725-5.353,4.83" transform="translate(-104.636 -162.436)" fill="#fff"/>
            </g>
          </g>
        </g>
        <g id="Grupo_221" data-name="Grupo 221" transform="translate(59.123 99.935)" opacity="0.85" style="isolation: isolate">
          <g id="Grupo_220" data-name="Grupo 220">
            <g id="Grupo_219" data-name="Grupo 219" clip-path="url(#clip-path-4)">
              <path id="Trazado_572" data-name="Trazado 572" d="M108.612,187.844c-.688,2.919.458,5.626,2.556,6.041s4.354-1.626,5.034-4.544-.468-5.624-2.557-6.041-4.356,1.618-5.033,4.544" transform="translate(-108.412 -183.247)" fill="#fff"/>
            </g>
          </g>
        </g>
        <g id="Grupo_224" data-name="Grupo 224" transform="translate(55.185 110.325)" opacity="0.8" style="isolation: isolate">
          <g id="Grupo_223" data-name="Grupo 223">
            <g id="Grupo_222" data-name="Grupo 222" clip-path="url(#clip-path-5)">
              <path id="Trazado_573" data-name="Trazado 573" d="M101.366,206.34c-.608,2.571.407,4.944,2.244,5.314s3.833-1.426,4.433-4-.406-4.944-2.252-5.313-3.818,1.424-4.426,3.995" transform="translate(-101.19 -202.297)" fill="#fff"/>
            </g>
          </g>
        </g>
        <g id="Grupo_227" data-name="Grupo 227" transform="translate(48.33 114.963)" opacity="0.7" style="isolation: isolate">
          <g id="Grupo_226" data-name="Grupo 226">
            <g id="Grupo_225" data-name="Grupo 225" clip-path="url(#clip-path-6)">
              <path id="Trazado_574" data-name="Trazado 574" d="M88.77,214.308c-.519,2.228.351,4.286,1.95,4.6s3.319-1.236,3.837-3.465-.351-4.286-1.95-4.6-3.318,1.235-3.837,3.465" transform="translate(-88.62 -210.803)" fill="#fff"/>
            </g>
          </g>
        </g>
        <g id="Grupo_230" data-name="Grupo 230" transform="translate(42.377 115.726)" opacity="0.6" style="isolation: isolate">
          <g id="Grupo_229" data-name="Grupo 229">
            <g id="Grupo_228" data-name="Grupo 228" clip-path="url(#clip-path-7)">
              <path id="Trazado_575" data-name="Trazado 575" d="M77.827,215.062c-.423,1.82.285,3.5,1.6,3.758s2.711-1.007,3.134-2.827-.285-3.5-1.6-3.758-2.71,1.012-3.134,2.827" transform="translate(-77.705 -212.201)" fill="#fff"/>
            </g>
          </g>
        </g>
        <g id="Grupo_233" data-name="Grupo 233" transform="translate(38.096 111.548)" opacity="0.5" style="isolation: isolate">
          <g id="Grupo_232" data-name="Grupo 232">
            <g id="Grupo_231" data-name="Grupo 231" clip-path="url(#clip-path-8)">
              <path id="Trazado_576" data-name="Trazado 576" d="M69.974,207.3c-.408,1.752.274,3.375,1.535,3.619s2.607-.967,3.017-2.728-.274-3.366-1.535-3.62-2.6.975-3.016,2.728" transform="translate(-69.855 -204.54)" fill="#fff"/>
            </g>
          </g>
        </g>
        <g id="Grupo_236" data-name="Grupo 236" transform="translate(35.858 104.713)" opacity="0.45" style="isolation: isolate">
          <g id="Grupo_235" data-name="Grupo 235">
            <g id="Grupo_234" data-name="Grupo 234" clip-path="url(#clip-path-9)">
              <path id="Trazado_577" data-name="Trazado 577" d="M65.876,194.923c-.434,1.857.3,3.572,1.624,3.837s2.764-1.031,3.2-2.884-.3-3.58-1.624-3.836-2.767,1.02-3.2,2.883" transform="translate(-65.75 -192.007)" fill="#fff"/>
            </g>
          </g>
        </g>
        <g id="Grupo_239" data-name="Grupo 239" transform="translate(36.502 98.442)" opacity="0.4" style="isolation: isolate">
          <g id="Grupo_238" data-name="Grupo 238">
            <g id="Grupo_237" data-name="Grupo 237" clip-path="url(#clip-path-10)">
              <path id="Trazado_578" data-name="Trazado 578" d="M67.04,183.072c-.376,1.633.255,3.135,1.431,3.364s2.422-.906,2.807-2.532-.255-3.134-1.423-3.365-2.428.916-2.815,2.533" transform="translate(-66.932 -180.509)" fill="#fff"/>
            </g>
          </g>
        </g>
        <g id="Grupo_242" data-name="Grupo 242" transform="translate(39.227 92.132)" opacity="0.3" style="isolation: isolate">
          <g id="Grupo_241" data-name="Grupo 241">
            <g id="Grupo_240" data-name="Grupo 240" clip-path="url(#clip-path-11)">
              <path id="Trazado_579" data-name="Trazado 579" d="M72.027,171.242c-.344,1.464.236,2.824,1.283,3.032s2.181-.814,2.524-2.277-.236-2.824-1.283-3.032-2.171.812-2.524,2.277" transform="translate(-71.928 -168.938)" fill="#fff"/>
            </g>
          </g>
        </g>
        <g id="Grupo_245" data-name="Grupo 245" transform="translate(42.908 88.847)" opacity="0.2" style="isolation: isolate">
          <g id="Grupo_244" data-name="Grupo 244">
            <g id="Grupo_243" data-name="Grupo 243" clip-path="url(#clip-path-12)">
              <path id="Trazado_580" data-name="Trazado 580" d="M78.746,164.5c-.237,1.013.162,1.94.891,2.088s1.5-.558,1.741-1.571-.162-1.939-.881-2.082-1.513.553-1.751,1.565" transform="translate(-78.678 -162.915)" fill="#fff"/>
            </g>
          </g>
        </g>
        <path id="Trazado_581" data-name="Trazado 581" d="M132.128,173.676l4.649-.684a2.55,2.55,0,0,0,1.331,1.9,4.947,4.947,0,0,0,2.834.281,4.448,4.448,0,0,0,2.053-.8,1.468,1.468,0,0,0,.627-1.423c-.121-.819-1.168-1.291-3.143-1.427a13.321,13.321,0,0,1-1.91-.137c-2.5-.24-4.229-.71-5.168-1.409a4.226,4.226,0,0,1-1.85-3.08,5.483,5.483,0,0,1,1.356-4.6,8.64,8.64,0,0,1,5.108-2.361,9.427,9.427,0,0,1,5.907.742,6.062,6.062,0,0,1,2.777,4.134l-2.944.433a2.2,2.2,0,0,1-2.161-.874l-.628-.466a3.719,3.719,0,0,0-2.35-.287,4.084,4.084,0,0,0-1.988.711,1.4,1.4,0,0,0-.438,1.32q.161,1.1,3.826,1.327a6.75,6.75,0,0,0,.754.1,3.036,3.036,0,0,0,.589-.021,12.712,12.712,0,0,1,5.159,1.345,4.35,4.35,0,0,1,1.785,3.089,5.555,5.555,0,0,1-1.5,4.978c-1.221,1.2-3.2,2.006-5.94,2.409-2.605.383-4.612.145-6.046-.721a5.568,5.568,0,0,1-2.663-4.291Z" transform="translate(-59.774 -72.644)" fill="#fff"/>
        <path id="Trazado_582" data-name="Trazado 582" d="M176.547,167.54l3.426-.5a7.622,7.622,0,0,1-2.227,4.806,8.789,8.789,0,0,1-5.108,2.361,7.716,7.716,0,0,1-6.459-1.631c-1.7-1.422-2.776-3.674-3.224-6.723a10.269,10.269,0,0,1,1.117-7.158,7.7,7.7,0,0,1,5.715-3.429,8.291,8.291,0,0,1,6.723,1.525,10.589,10.589,0,0,1,3.225,6.731l.111.755a1.141,1.141,0,0,1,0,.494l-11.837,1.741A4.738,4.738,0,0,0,169.5,169.5a3.252,3.252,0,0,0,2.83.7,3.837,3.837,0,0,0,1.918-.775.907.907,0,0,0,.344-.29c.1-.13.206-.276.322-.433a1.577,1.577,0,0,1,.435-.623,1.884,1.884,0,0,1,1.2-.543m-9-4.133,6.981-1.026a4.468,4.468,0,0,0-1.359-2.594,3.315,3.315,0,0,0-2.674-.585,3.372,3.372,0,0,0-2.32,1.319,3.954,3.954,0,0,0-.627,2.885" transform="translate(-74.008 -70.528)" fill="#fff"/>
        <path id="Trazado_583" data-name="Trazado 583" d="M196.742,170.506l-1.3-8.823a11.406,11.406,0,0,1,.129-4.6,7.472,7.472,0,0,1,1.728-3.22,8.354,8.354,0,0,1,2.827-1.952,13.9,13.9,0,0,1,3.517-1l.692-.1.714,4.856-1.576.232a4.083,4.083,0,0,0-2.8,1.39,4.132,4.132,0,0,0-.515,3.149l1.378,9.37-4.792.705Z" transform="translate(-88.778 -68.565)" fill="#fff"/>
        <path id="Trazado_584" data-name="Trazado 584" d="M227.451,164.924l-4.856.714-9.036-17.264,5.066-.745,5.509,12.261,1.577-11.627a2.175,2.175,0,0,1,1.955-1.961l3.554-.522Z" transform="translate(-97.093 -66.278)" fill="#fff"/>
        <path id="Trazado_585" data-name="Trazado 585" d="M246.141,135.431l2.461-.362a2.357,2.357,0,0,1,2.663,1.98l.212,1.44-4.783.7Zm.785,5.34,2.461-.362a2.359,2.359,0,0,1,2.666,1.982l2.335,15.874-4.785.7Z" transform="translate(-111.906 -61.395)" fill="#fff"/>
        <path id="Trazado_586" data-name="Trazado 586" d="M260.76,154.76l4.656-.685a2.53,2.53,0,0,0,1.331,1.9,4.947,4.947,0,0,0,2.834.281,4.4,4.4,0,0,0,2.045-.793,1.469,1.469,0,0,0,.627-1.424c-.121-.819-1.168-1.291-3.143-1.427a13.245,13.245,0,0,1-1.91-.137q-3.762-.359-5.168-1.409a4.253,4.253,0,0,1-1.85-3.08,5.5,5.5,0,0,1,1.344-4.6,8.657,8.657,0,0,1,5.108-2.362,9.429,9.429,0,0,1,5.907.742,6.061,6.061,0,0,1,2.778,4.134l-2.944.433a2.2,2.2,0,0,1-2.161-.874c-.212-.158-.423-.308-.627-.466a3.737,3.737,0,0,0-2.351-.287,4.122,4.122,0,0,0-1.99.711,1.391,1.391,0,0,0-.431,1.319q.161,1.1,3.826,1.326a6.629,6.629,0,0,0,.754.1,3.124,3.124,0,0,0,.589-.021,12.694,12.694,0,0,1,5.159,1.345,4.343,4.343,0,0,1,1.777,3.091,5.554,5.554,0,0,1-1.5,4.978c-1.221,1.2-3.2,2.007-5.939,2.409q-3.9.573-6.046-.721a5.544,5.544,0,0,1-2.664-4.291l-.028-.193Z" transform="translate(-118.254 -64.045)" fill="#fff"/>
        <path id="Trazado_587" data-name="Trazado 587" d="M305.168,148.623l3.418-.5a7.545,7.545,0,0,1-2.227,4.805,8.782,8.782,0,0,1-5.108,2.361,7.717,7.717,0,0,1-6.459-1.63c-1.7-1.423-2.783-3.674-3.231-6.722a10.27,10.27,0,0,1,1.117-7.158,7.71,7.71,0,0,1,5.715-3.429,8.271,8.271,0,0,1,6.723,1.525,9.425,9.425,0,0,1,2.29,3.229l-4.784.7a4.509,4.509,0,0,0-.835-.929,3.342,3.342,0,0,0-2.674-.585,3.4,3.4,0,0,0-2.329,1.32q-1.026,1.556-.564,4.7t1.883,4.266a3.254,3.254,0,0,0,2.83.7,3.787,3.787,0,0,0,1.908-.774.9.9,0,0,0,.343-.29l.323-.434a3.406,3.406,0,0,1,.466-.627,1.909,1.909,0,0,1,1.195-.533" transform="translate(-132.477 -61.929)" fill="#fff"/>
        <path id="Trazado_588" data-name="Trazado 588" d="M327.277,149.4a6.82,6.82,0,0,1-2.535-3.013,15.441,15.441,0,0,1-1.25-4.252,13.85,13.85,0,0,1-.029-3.776,7.739,7.739,0,0,1,1.156-3.316,7.181,7.181,0,0,1,4.227-3.1,10.67,10.67,0,0,1,5.124-.3,7.045,7.045,0,0,1,4.351,2.992,11.523,11.523,0,0,1,1.94,5.094,13.339,13.339,0,0,1,.079,3.833,9.894,9.894,0,0,1-.836,2.851,6.9,6.9,0,0,1-3.761,3.422,9.344,9.344,0,0,1-4.529.773,8.01,8.01,0,0,1-3.937-1.2m1.518-12.524a6.411,6.411,0,0,0-.614,4.88c.393,2.061,1,3.451,1.8,4.171a3.128,3.128,0,0,0,1.576.713,3.334,3.334,0,0,0,2.094-.233,3.583,3.583,0,0,0,1.656-1.813,7.851,7.851,0,0,0,.3-4.1,7.034,7.034,0,0,0-1.331-3.575,3.634,3.634,0,0,0-2.049-1.309,3.344,3.344,0,0,0-2.057.261,3.54,3.54,0,0,0-1.38,1.008" transform="translate(-147.007 -59.765)" fill="#fff"/>
        <path id="Trazado_589" data-name="Trazado 589" d="M137.088,205.449l1.014-.149a5.919,5.919,0,0,1,1.152-.1,1.343,1.343,0,0,1,.8.335,1.3,1.3,0,0,1,.4.795,1.394,1.394,0,0,1-.085.76,1.206,1.206,0,0,1-.485.556,2.579,2.579,0,0,1-.971.307l2.172,2.088-.63.093-2.172-2.088-.29.043.346,2.356-.507.074Zm.58.424.253,1.721.879-.12a2.181,2.181,0,0,0,.734-.207.8.8,0,0,0,.333-.361.887.887,0,0,0-.138-.941.743.743,0,0,0-.406-.245,2.376,2.376,0,0,0-.761.022Z" transform="translate(-62.326 -93.294)" fill="#fff"/>
        <path id="Trazado_590" data-name="Trazado 590" d="M145.523,204.057l2.9-.427.074.5-2.4.353.234,1.592,2.38-.35.073.5-2.378.35.293,1.994,2.381-.35.073.5-2.887.425Z" transform="translate(-66.161 -92.578)" fill="#fff"/>
        <path id="Trazado_591" data-name="Trazado 591" d="M155.386,202.745l3.111,4.727-.547.08L156.907,206l-2.187.321-.543,1.789-.563.083,1.653-5.427Zm.094,1.087-.6,1.964,1.737-.256Z" transform="translate(-69.84 -92.176)" fill="#fff"/>
        <path id="Trazado_592" data-name="Trazado 592" d="M163.248,201.744l.509-.075.675,4.584,1.954-.287.072.491-2.463.362Z" transform="translate(-74.219 -91.687)" fill="#fff"/>
        <path id="Trazado_593" data-name="Trazado 593" d="M168.984,201.131l-.073-.5,2.782-.409.073.5-1.134.166.673,4.576-.515.076-.673-4.576Z" transform="translate(-76.794 -91.03)" fill="#fff"/>
        <path id="Trazado_594" data-name="Trazado 594" d="M175.222,199.587l.585-.086,1.6,1.9.971-2.279.585-.086-1.219,2.882.356,2.42-.5.073-.356-2.42Z" transform="translate(-79.663 -90.49)" fill="#fff"/>
        <path id="Trazado_595" data-name="Trazado 595" d="M188.42,197.9l1.014-.149a6.162,6.162,0,0,1,1.185-.1,1.3,1.3,0,0,1,.773.338,1.274,1.274,0,0,1,.4.8,1.3,1.3,0,0,1-.142.875,1.326,1.326,0,0,1-.675.551,6.612,6.612,0,0,1-1.276.269l-.361.053.347,2.356-.515.076Zm.58.424.253,1.721.862-.118a2.241,2.241,0,0,0,.75-.209.8.8,0,0,0,.333-.361.886.886,0,0,0-.139-.941.7.7,0,0,0-.406-.244,2.3,2.3,0,0,0-.753.02Z" transform="translate(-85.663 -89.858)" fill="#fff"/>
        <path id="Trazado_596" data-name="Trazado 596" d="M199.021,196.328l3.109,4.727-.547.081-1.042-1.556-2.185.321-.543,1.789-.563.083,1.653-5.427Zm.094,1.087-.6,1.964,1.737-.256Z" transform="translate(-89.678 -89.259)" fill="#fff"/>
        <path id="Trazado_597" data-name="Trazado 597" d="M206.92,195.178l1.013-.149a5.915,5.915,0,0,1,1.152-.1,1.343,1.343,0,0,1,.8.335,1.3,1.3,0,0,1,.4.795,1.393,1.393,0,0,1-.085.76,1.209,1.209,0,0,1-.485.556,2.58,2.58,0,0,1-.971.307l2.172,2.088-.639.094-2.172-2.088-.29.043.346,2.356-.506.074-.747-5.074Zm.58.424.253,1.721.879-.121a2.18,2.18,0,0,0,.734-.207.8.8,0,0,0,.333-.361.887.887,0,0,0-.138-.941.741.741,0,0,0-.406-.245,2.375,2.375,0,0,0-.761.022Z" transform="translate(-94.07 -88.624)" fill="#fff"/>
        <path id="Trazado_598" data-name="Trazado 598" d="M214.491,194.439l-.073-.5,2.782-.409.073.5-1.134.166.673,4.576-.515.076-.673-4.576Z" transform="translate(-97.483 -87.987)" fill="#fff"/>
        <path id="Trazado_599" data-name="Trazado 599" d="M222.212,197.83l-.746-5.075.112-.016,3.949,3.388-.572-3.885.5-.073.747,5.074-.112.017-3.911-3.352.566,3.844Z" transform="translate(-100.688 -87.368)" fill="#fff"/>
        <path id="Trazado_600" data-name="Trazado 600" d="M231.656,191.39l2.9-.427.074.5-2.4.353.234,1.592,2.381-.35.073.5-2.38.35.293,1.995,2.381-.35.074.5-2.885.424Z" transform="translate(-105.32 -86.82)" fill="#fff"/>
        <path id="Trazado_601" data-name="Trazado 601" d="M239.251,190.426l1.012-.149a5.837,5.837,0,0,1,1.152-.1,1.337,1.337,0,0,1,.8.335,1.3,1.3,0,0,1,.4.795,1.394,1.394,0,0,1-.086.76,1.2,1.2,0,0,1-.485.556,2.575,2.575,0,0,1-.971.307l2.172,2.088-.627.092-2.172-2.088-.29.043.346,2.357L240,195.5Zm.58.424.253,1.721.879-.121a2.18,2.18,0,0,0,.734-.207.8.8,0,0,0,.333-.361.887.887,0,0,0-.138-.941.743.743,0,0,0-.406-.245,2.375,2.375,0,0,0-.761.022l-.893.131Z" transform="translate(-108.773 -86.464)" fill="#fff"/>
        <path id="Trazado_602" data-name="Trazado 602" d="M254.353,187.871a2.691,2.691,0,1,1,.832,5.317,2.631,2.631,0,0,1-2.02-.492,2.572,2.572,0,0,1-1.054-1.751,2.722,2.722,0,0,1,.152-1.4,2.6,2.6,0,0,1,.821-1.123,2.565,2.565,0,0,1,1.269-.549m.1.487a2.18,2.18,0,0,0-1.7,1.351,2.257,2.257,0,0,0-.118,1.153,2.151,2.151,0,0,0,2.424,1.837l.031,0a2.177,2.177,0,0,0,1.051-.45,2.04,2.04,0,0,0,.665-.894,2.245,2.245,0,0,0,.119-1.144,2.218,2.218,0,0,0-.442-1.052,2.089,2.089,0,0,0-.911-.667,2.174,2.174,0,0,0-1.12-.129Z" transform="translate(-114.605 -85.396)" fill="#fff"/>
        <path id="Trazado_603" data-name="Trazado 603" d="M263.714,186.72l2.539-.374.074.5-2.035.3.235,1.592,2.035-.3.073.5-2.035.3.366,2.493-.507.074Z" transform="translate(-119.895 -84.721)" fill="#fff"/>
        <path id="Trazado_604" data-name="Trazado 604" d="M273.949,185.695l-.073-.5,2.782-.409.073.5-1.134.166.673,4.576-.515.076-.673-4.576Z" transform="translate(-124.515 -84.012)" fill="#fff"/>
        <path id="Trazado_605" data-name="Trazado 605" d="M283.419,183.6a2.691,2.691,0,1,1,.832,5.317,2.631,2.631,0,0,1-2.02-.492,2.573,2.573,0,0,1-1.054-1.751,2.722,2.722,0,0,1,.152-1.4,2.6,2.6,0,0,1,.821-1.123,2.542,2.542,0,0,1,1.269-.549m.1.487a2.18,2.18,0,0,0-1.7,1.351,2.257,2.257,0,0,0-.118,1.153,2.151,2.151,0,0,0,2.424,1.837l.031,0a2.182,2.182,0,0,0,1.051-.45,2.039,2.039,0,0,0,.665-.894,2.246,2.246,0,0,0,.119-1.144,2.219,2.219,0,0,0-.442-1.052,2.093,2.093,0,0,0-.911-.667,2.185,2.185,0,0,0-1.12-.129Z" transform="translate(-127.82 -83.453)" fill="#fff"/>
        <path id="Trazado_606" data-name="Trazado 606" d="M293.7,187.283l-.022-5.181.08-.011,2.67,3.855,1.431-4.458.08-.012,1.478,4.967-.5.074-1.032-3.555-1.26,3.892-.129.019-2.354-3.383.038,3.724Z" transform="translate(-133.518 -82.506)" fill="#fff"/>
        <path id="Trazado_607" data-name="Trazado 607" d="M307.78,180.014a2.691,2.691,0,1,1,.832,5.317,2.631,2.631,0,0,1-2.02-.492,2.572,2.572,0,0,1-1.054-1.751,2.722,2.722,0,0,1,.152-1.4,2.637,2.637,0,0,1,2.085-1.67Zm.1.487a2.18,2.18,0,0,0-1.7,1.351,2.258,2.258,0,0,0-.118,1.153,2.151,2.151,0,0,0,2.424,1.837l.031,0a2.177,2.177,0,0,0,1.051-.45,2.04,2.04,0,0,0,.665-.894,2.246,2.246,0,0,0,.119-1.144,2.218,2.218,0,0,0-.442-1.052,2.093,2.093,0,0,0-.911-.667,2.175,2.175,0,0,0-1.12-.129Z" transform="translate(-138.895 -81.824)" fill="#fff"/>
        <path id="Trazado_608" data-name="Trazado 608" d="M317.2,178.961l1.014-.149a5.917,5.917,0,0,1,1.152-.1,1.344,1.344,0,0,1,.8.335,1.3,1.3,0,0,1,.4.795,1.394,1.394,0,0,1-.085.76,1.209,1.209,0,0,1-.485.556,2.58,2.58,0,0,1-.971.307l2.172,2.088-.627.093-2.172-2.088-.29.043.346,2.356-.507.075-.746-5.075Zm.58.424.253,1.721.879-.121a2.181,2.181,0,0,0,.734-.207.8.8,0,0,0,.333-.361.887.887,0,0,0-.138-.941.739.739,0,0,0-.406-.245,2.374,2.374,0,0,0-.761.022l-.892.131Z" transform="translate(-144.212 -81.251)" fill="#fff"/>
        <path id="Trazado_609" data-name="Trazado 609" d="M325.663,177.718l1.013-.149a5.833,5.833,0,0,1,1.152-.1,1.34,1.34,0,0,1,.8.334,1.3,1.3,0,0,1,.4.8,1.394,1.394,0,0,1-.086.76,1.2,1.2,0,0,1-.485.556,2.576,2.576,0,0,1-.971.308l2.172,2.088-.628.092-2.172-2.088-.29.043.346,2.356-.507.075-.746-5.075Zm.58.424.253,1.721.879-.121a2.18,2.18,0,0,0,.734-.207.8.8,0,0,0,.333-.361.887.887,0,0,0-.138-.941.743.743,0,0,0-.406-.245,2.376,2.376,0,0,0-.761.022l-.893.131Z" transform="translate(-148.06 -80.686)" fill="#fff"/>
        <path id="Trazado_610" data-name="Trazado 610" d="M336.579,175.779a2.691,2.691,0,1,1,.832,5.317,2.631,2.631,0,0,1-2.02-.492,2.572,2.572,0,0,1-1.054-1.751,2.723,2.723,0,0,1,.152-1.4,2.6,2.6,0,0,1,.821-1.123,2.542,2.542,0,0,1,1.269-.549m.1.487a2.18,2.18,0,0,0-1.7,1.351,2.258,2.258,0,0,0-.118,1.153,2.151,2.151,0,0,0,2.424,1.837l.031,0a2.178,2.178,0,0,0,1.051-.45,2.04,2.04,0,0,0,.665-.894,2.246,2.246,0,0,0,.119-1.144,2.219,2.219,0,0,0-.442-1.052,2.088,2.088,0,0,0-.91-.667,2.187,2.187,0,0,0-1.12-.129Z" transform="translate(-151.989 -79.898)" fill="#fff"/>
        <path id="Trazado_611" data-name="Trazado 611" d="M345.424,174.264l.522-.077,1.574,3.5.918-3.865.1-.015,1.976,3.439.517-3.806.515-.075-.71,5.288-.1.014-2.068-3.615-.969,4.061-.1.014Z" transform="translate(-157.044 -78.818)" fill="#fff"/>
      </g>
    </g>
    <text id="VU_À_LA" data-name="VU À LA" transform="matrix(0.989, -0.145, 0.145, 0.989, 54.481, 164.121)" fill="#fff" font-size="36" font-family="WorkSans-Black, Work Sans" font-weight="800"><tspan x="0" y="0">VU</tspan><tspan y="0" letter-spacing="-0.01em"> </tspan><tspan y="0" letter-spacing="-0.009em">À</tspan><tspan y="0" xml:space="preserve"> LA</tspan></text>
    <g id="Grupo_249" data-name="Grupo 249">
      <g id="Grupo_248" data-name="Grupo 248" clip-path="url(#clip-path)">
        <path id="Trazado_612" data-name="Trazado 612" d="M150.8,321.1l.912,6.2,7.507-1.1,2.607,17.732,8.449-1.242-2.607-17.733,7.47-1.1-.912-6.2Z" transform="translate(-68.558 -144.419)" fill="none" stroke="#fff" stroke-miterlimit="10" stroke-width="2"/>
        <path id="Trazado_613" data-name="Trazado 613" d="M204.382,305.853l5.91-.869,2.41-6.541-7.108,1.045Zm17.851,23.642-.912-6.2-11.858,1.743-.416-2.828,9.211-1.355-.843-5.73-9.211,1.355-.437-2.973,11.423-1.68-.912-6.2-19.872,2.923,3.52,23.934Z" transform="translate(-90.203 -135.684)" fill="none" stroke="#fff" stroke-miterlimit="10" stroke-width="2"/>
        <path id="Trazado_614" data-name="Trazado 614" d="M248.48,308.571l-8.449,1.242,3.52,23.934,19.292-2.837-.912-6.2L251.087,326.3Z" transform="translate(-109.128 -140.289)" fill="none" stroke="#fff" stroke-miterlimit="10" stroke-width="2"/>
        <path id="Trazado_615" data-name="Trazado 615" d="M286.234,293.814l5.911-.869,2.409-6.541-7.108,1.045Zm17.851,23.641-.912-6.2L291.316,313l-.416-2.828,9.211-1.355-.843-5.73-9.211,1.355-.437-2.973,11.422-1.68-.912-6.2-19.872,2.923,3.52,23.934Z" transform="translate(-127.417 -130.211)" fill="none" stroke="#fff" stroke-miterlimit="10" stroke-width="2"/>
      </g>
    </g>
  </g>
</svg>
