<svg id="Grupo_215" data-name="Grupo 215" xmlns="http://www.w3.org/2000/svg" xmlns:xlink="http://www.w3.org/1999/xlink" width="287.347" height="287" viewBox="0 0 287.347 287">
  <defs>
    <clipPath id="clip-path">
      <rect id="Rectángulo_67" data-name="Rectángulo 67" width="287.347" height="287" fill="none"/>
    </clipPath>
    <clipPath id="clip-path-3">
      <rect id="Rectángulo_55" data-name="Rectángulo 55" width="10.031" height="13.411" fill="none"/>
    </clipPath>
    <clipPath id="clip-path-4">
      <rect id="Rectángulo_56" data-name="Rectángulo 56" width="9.432" height="12.63" fill="none"/>
    </clipPath>
    <clipPath id="clip-path-5">
      <rect id="Rectángulo_57" data-name="Rectángulo 57" width="8.301" height="11.11" fill="none"/>
    </clipPath>
    <clipPath id="clip-path-6">
      <rect id="Rectángulo_58" data-name="Rectángulo 58" width="7.189" height="9.624" fill="none"/>
    </clipPath>
    <clipPath id="clip-path-7">
      <rect id="Rectángulo_59" data-name="Rectángulo 59" width="5.876" height="7.858" fill="none"/>
    </clipPath>
    <clipPath id="clip-path-8">
      <rect id="Rectángulo_60" data-name="Rectángulo 60" width="5.656" height="7.574" fill="none"/>
    </clipPath>
    <clipPath id="clip-path-9">
      <rect id="Rectángulo_61" data-name="Rectángulo 61" width="5.994" height="8.017" fill="none"/>
    </clipPath>
    <clipPath id="clip-path-10">
      <rect id="Rectángulo_62" data-name="Rectángulo 62" width="5.267" height="7.035" fill="none"/>
    </clipPath>
    <clipPath id="clip-path-11">
      <rect id="Rectángulo_63" data-name="Rectángulo 63" width="4.73" height="6.335" fill="none"/>
    </clipPath>
    <clipPath id="clip-path-12">
      <rect id="Rectángulo_64" data-name="Rectángulo 64" width="3.271" height="4.36" fill="none"/>
    </clipPath>
  </defs>
  <g id="Grupo_214" data-name="Grupo 214" clip-path="url(#clip-path)">
    <g id="Grupo_211" data-name="Grupo 211">
      <g id="Grupo_210" data-name="Grupo 210" clip-path="url(#clip-path)">
        <path id="Trazado_476" data-name="Trazado 476" d="M6.533,121.95a2.308,2.308,0,0,0,1.926-1.893A138.2,138.2,0,0,1,267.683,80.664a2.308,2.308,0,0,0,2.4,1.235l.73-.111a2.307,2.307,0,0,0,1.708-3.327A143.508,143.508,0,0,0,3.183,119.391,2.307,2.307,0,0,0,5.8,122.061Z" transform="translate(-1.121 -0.019)" fill="#21364f"/>
        <path id="Trazado_477" data-name="Trazado 477" d="M290.1,256.223a2.31,2.31,0,0,0-1.928,1.9A138.2,138.2,0,0,1,28.951,297.511a2.31,2.31,0,0,0-2.4-1.236l-.725.11a2.309,2.309,0,0,0-1.71,3.331,143.508,143.508,0,0,0,269.337-40.93,2.309,2.309,0,0,0-2.622-2.673Z" transform="translate(-8.49 -91.12)" fill="#21364f"/>
        <path id="Trazado_478" data-name="Trazado 478" d="M281.953,260.788a2.31,2.31,0,0,0-1.906,1.78,120.019,120.019,0,0,1-221.107,33.6,2.308,2.308,0,1,0-4,2.3,124.637,124.637,0,0,0,229.616-34.893A2.309,2.309,0,0,0,281.953,260.788Z" transform="translate(-19.438 -92.784)" fill="#21364f"/>
        <path id="Trazado_479" data-name="Trazado 479" d="M36.636,129.519a2.307,2.307,0,0,0,1.9-1.778,120.028,120.028,0,0,1,221.039-33.59,2.306,2.306,0,1,0,4-2.3A124.638,124.638,0,0,0,34.039,126.734a2.306,2.306,0,0,0,2.6,2.785" transform="translate(-12.091 -10.495)" fill="#21364f"/>
        <path id="Trazado_480" data-name="Trazado 480" d="M134.21,284.571a2.309,2.309,0,0,0-1.86-1.823A120.027,120.027,0,0,1,89.027,63.409a2.306,2.306,0,1,0-2.474-3.892,124.639,124.639,0,0,0,44.989,227.771,2.307,2.307,0,0,0,2.669-2.717" transform="translate(-10.283 -21.048)" fill="#21364f"/>
        <path id="Trazado_481" data-name="Trazado 481" d="M252.306,35.312a2.308,2.308,0,0,0,1.86,1.823A120.028,120.028,0,0,1,297.49,256.474a2.305,2.305,0,1,0,2.473,3.892A124.638,124.638,0,0,0,254.974,32.595a2.306,2.306,0,0,0-2.668,2.717" transform="translate(-89.759 -11.585)" fill="#21364f"/>
        <path id="Trazado_482" data-name="Trazado 482" d="M142.612,302.475a2.658,2.658,0,0,0-2.437-1.748A138.231,138.231,0,0,1,52.367,58.677a2.655,2.655,0,1,0-3.5-4,143.541,143.541,0,0,0,91.184,251.354,2.656,2.656,0,0,0,2.56-3.561" transform="translate(0 -19.222)" fill="#21364f"/>
        <path id="Trazado_483" data-name="Trazado 483" d="M223.591,3.571A2.651,2.651,0,0,0,226.035,5.3a137.975,137.975,0,0,1,89.211,241.028,2.651,2.651,0,1,0,3.518,3.966A143.275,143.275,0,0,0,226.123,0a2.651,2.651,0,0,0-2.532,3.571" transform="translate(-79.498 0)" fill="#21364f"/>
        <path id="Trazado_484" data-name="Trazado 484" d="M189.845,71.976l5.677,9.365,10.924-.775-7.152,8.293,4.112,10.15-10.1-4.239-8.382,7.047.912-10.913-9.293-5.794L187.206,82.6Z" transform="translate(-62.818 -25.61)" fill="#21364f"/>
        <path id="Trazado_485" data-name="Trazado 485" d="M151.365,29.969a2.657,2.657,0,1,1-3.026-2.228,2.658,2.658,0,0,1,3.026,2.228" transform="translate(-51.978 -9.86)" fill="#4d4d4d"/>
        <path id="Trazado_486" data-name="Trazado 486" d="M193.319,19.421a2.657,2.657,0,1,1-3.026-2.228,2.658,2.658,0,0,1,3.026,2.228" transform="translate(-66.906 -6.107)" fill="#21364f"/>
        <path id="Trazado_487" data-name="Trazado 487" d="M151.365,29.969a2.657,2.657,0,1,1-3.026-2.228,2.658,2.658,0,0,1,3.026,2.228" transform="translate(-51.978 -9.86)" fill="#21364f"/>
        <path id="Trazado_488" data-name="Trazado 488" d="M110.745,51.495a2.657,2.657,0,1,1-3.026-2.228,2.658,2.658,0,0,1,3.026,2.228" transform="translate(-37.525 -17.519)" fill="#21364f"/>
        <path id="Trazado_489" data-name="Trazado 489" d="M78.8,77.378a2.657,2.657,0,1,1-3.026-2.228A2.658,2.658,0,0,1,78.8,77.378" transform="translate(-26.158 -26.729)" fill="#21364f"/>
        <path id="Trazado_490" data-name="Trazado 490" d="M320.7,40.616a2.657,2.657,0,1,1-3.026-2.228,2.658,2.658,0,0,1,3.026,2.228" transform="translate(-112.232 -13.648)" fill="#21364f"/>
        <path id="Trazado_491" data-name="Trazado 491" d="M279.736,25.814a2.657,2.657,0,1,1-3.026-2.228,2.658,2.658,0,0,1,3.026,2.228" transform="translate(-97.655 -8.381)" fill="#21364f"/>
        <path id="Trazado_492" data-name="Trazado 492" d="M235.371,17.2a2.657,2.657,0,1,1-3.026-2.228,2.658,2.658,0,0,1,3.026,2.228" transform="translate(-81.869 -5.318)" fill="#21364f"/>
        <path id="Trazado_493" data-name="Trazado 493" d="M249.874,424.2a2.657,2.657,0,1,1,3.026,2.228,2.658,2.658,0,0,1-3.026-2.228" transform="translate(-88.899 -149.852)" fill="#21364f"/>
        <path id="Trazado_494" data-name="Trazado 494" d="M291.828,413.656a2.657,2.657,0,1,1,3.026,2.228,2.658,2.658,0,0,1-3.026-2.228" transform="translate(-103.827 -146.099)" fill="#21364f"/>
        <path id="Trazado_495" data-name="Trazado 495" d="M332.448,392.13a2.657,2.657,0,1,1,3.026,2.228,2.658,2.658,0,0,1-3.026-2.228" transform="translate(-118.281 -138.439)" fill="#21364f"/>
        <path id="Trazado_496" data-name="Trazado 496" d="M364.4,366.247a2.657,2.657,0,1,1,3.026,2.228,2.658,2.658,0,0,1-3.026-2.228" transform="translate(-129.648 -129.23)" fill="#21364f"/>
        <path id="Trazado_497" data-name="Trazado 497" d="M122.49,403.008a2.657,2.657,0,1,1,3.026,2.228,2.657,2.657,0,0,1-3.026-2.228" transform="translate(-43.573 -142.31)" fill="#21364f"/>
        <path id="Trazado_498" data-name="Trazado 498" d="M163.456,417.811a2.657,2.657,0,1,1,3.026,2.228,2.658,2.658,0,0,1-3.026-2.228" transform="translate(-58.15 -147.577)" fill="#21364f"/>
        <path id="Trazado_499" data-name="Trazado 499" d="M207.822,426.422a2.657,2.657,0,1,1,3.026,2.228,2.658,2.658,0,0,1-3.026-2.228" transform="translate(-73.936 -150.641)" fill="#21364f"/>
        <path id="Trazado_500" data-name="Trazado 500" d="M89.471,155.966c-.19,4.25,2.141,7.76,5.2,7.834s5.7-3.312,5.878-7.561-2.142-7.749-5.2-7.824-5.7,3.3-5.876,7.55" transform="translate(-31.832 -52.809)" fill="#21364f"/>
        <g id="Grupo_182" data-name="Grupo 182" transform="translate(67.405 104.638)" opacity="0.95" style="isolation: isolate">
          <g id="Grupo_181" data-name="Grupo 181">
            <g id="Grupo_180" data-name="Grupo 180" clip-path="url(#clip-path-3)">
              <path id="Trazado_501" data-name="Trazado 501" d="M104.885,168.207c-.859,3.656.572,7.058,3.21,7.574s5.465-2.037,6.323-5.706-.582-7.056-3.21-7.573-5.474,2.038-6.323,5.7" transform="translate(-104.636 -162.436)" fill="#21364f"/>
            </g>
          </g>
        </g>
        <g id="Grupo_185" data-name="Grupo 185" transform="translate(69.837 118.044)" opacity="0.85" style="isolation: isolate">
          <g id="Grupo_184" data-name="Grupo 184">
            <g id="Grupo_183" data-name="Grupo 183" clip-path="url(#clip-path-4)">
              <path id="Trazado_502" data-name="Trazado 502" d="M108.649,188.678c-.812,3.448.54,6.645,3.019,7.136s5.143-1.921,5.946-5.368-.553-6.643-3.02-7.136-5.146,1.911-5.945,5.368" transform="translate(-108.412 -183.247)" fill="#21364f"/>
            </g>
          </g>
        </g>
        <g id="Grupo_188" data-name="Grupo 188" transform="translate(65.185 130.316)" opacity="0.8" style="isolation: isolate">
          <g id="Grupo_187" data-name="Grupo 187">
            <g id="Grupo_186" data-name="Grupo 186" clip-path="url(#clip-path-5)">
              <path id="Trazado_503" data-name="Trazado 503" d="M101.4,207.072c-.718,3.037.481,5.839,2.651,6.278s4.527-1.685,5.237-4.72-.48-5.839-2.66-6.276-4.509,1.682-5.228,4.719" transform="translate(-101.19 -202.297)" fill="#21364f"/>
            </g>
          </g>
        </g>
        <g id="Grupo_191" data-name="Grupo 191" transform="translate(57.087 135.795)" opacity="0.7" style="isolation: isolate">
          <g id="Grupo_190" data-name="Grupo 190">
            <g id="Grupo_189" data-name="Grupo 189" clip-path="url(#clip-path-6)">
              <path id="Trazado_504" data-name="Trazado 504" d="M88.8,214.943c-.613,2.632.415,5.063,2.3,5.436s3.92-1.46,4.532-4.092-.415-5.063-2.3-5.436-3.919,1.459-4.532,4.092" transform="translate(-88.62 -210.803)" fill="#21364f"/>
            </g>
          </g>
        </g>
        <g id="Grupo_194" data-name="Grupo 194" transform="translate(50.056 136.696)" opacity="0.6" style="isolation: isolate">
          <g id="Grupo_193" data-name="Grupo 193">
            <g id="Grupo_192" data-name="Grupo 192" clip-path="url(#clip-path-7)">
              <path id="Trazado_505" data-name="Trazado 505" d="M77.849,215.581c-.5,2.15.336,4.133,1.886,4.439s3.2-1.189,3.7-3.339-.336-4.133-1.886-4.439-3.2,1.2-3.7,3.339" transform="translate(-77.705 -212.201)" fill="#21364f"/>
            </g>
          </g>
        </g>
        <g id="Grupo_197" data-name="Grupo 197" transform="translate(44.999 131.761)" opacity="0.5" style="isolation: isolate">
          <g id="Grupo_196" data-name="Grupo 196">
            <g id="Grupo_195" data-name="Grupo 195" clip-path="url(#clip-path-8)">
              <path id="Trazado_506" data-name="Trazado 506" d="M69.995,207.8c-.482,2.07.324,3.987,1.813,4.275s3.08-1.142,3.564-3.222-.323-3.977-1.813-4.275-3.072,1.151-3.563,3.223" transform="translate(-69.855 -204.54)" fill="#21364f"/>
            </g>
          </g>
        </g>
        <g id="Grupo_200" data-name="Grupo 200" transform="translate(42.355 123.687)" opacity="0.45" style="isolation: isolate">
          <g id="Grupo_199" data-name="Grupo 199">
            <g id="Grupo_198" data-name="Grupo 198" clip-path="url(#clip-path-9)">
              <path id="Trazado_507" data-name="Trazado 507" d="M65.9,195.451c-.512,2.193.349,4.219,1.918,4.532s3.265-1.218,3.779-3.406-.35-4.228-1.918-4.531-3.269,1.205-3.779,3.406" transform="translate(-65.75 -192.007)" fill="#21364f"/>
            </g>
          </g>
        </g>
        <g id="Grupo_203" data-name="Grupo 203" transform="translate(43.116 116.28)" opacity="0.4" style="isolation: isolate">
          <g id="Grupo_202" data-name="Grupo 202">
            <g id="Grupo_201" data-name="Grupo 201" clip-path="url(#clip-path-10)">
              <path id="Trazado_508" data-name="Trazado 508" d="M67.06,183.536c-.444,1.929.3,3.7,1.69,3.973s2.861-1.071,3.316-2.991-.3-3.7-1.681-3.975-2.869,1.082-3.325,2.992" transform="translate(-66.932 -180.509)" fill="#21364f"/>
            </g>
          </g>
        </g>
        <g id="Grupo_206" data-name="Grupo 206" transform="translate(46.335 108.827)" opacity="0.3" style="isolation: isolate">
          <g id="Grupo_205" data-name="Grupo 205">
            <g id="Grupo_204" data-name="Grupo 204" clip-path="url(#clip-path-11)">
              <path id="Trazado_509" data-name="Trazado 509" d="M72.045,171.66c-.406,1.729.279,3.336,1.515,3.582s2.576-.962,2.981-2.69-.278-3.336-1.515-3.582-2.564.959-2.981,2.69" transform="translate(-71.928 -168.938)" fill="#21364f"/>
            </g>
          </g>
        </g>
        <g id="Grupo_209" data-name="Grupo 209" transform="translate(50.683 104.947)" opacity="0.2" style="isolation: isolate">
          <g id="Grupo_208" data-name="Grupo 208">
            <g id="Grupo_207" data-name="Grupo 207" clip-path="url(#clip-path-12)">
              <path id="Trazado_510" data-name="Trazado 510" d="M78.758,164.787c-.28,1.2.191,2.292,1.052,2.466s1.776-.659,2.057-1.856-.191-2.291-1.041-2.459-1.788.653-2.068,1.849" transform="translate(-78.678 -162.915)" fill="#21364f"/>
            </g>
          </g>
        </g>
        <path id="Trazado_511" data-name="Trazado 511" d="M132.247,176.193l5.491-.808a3.013,3.013,0,0,0,1.572,2.244,5.843,5.843,0,0,0,3.348.332,5.253,5.253,0,0,0,2.425-.939,1.734,1.734,0,0,0,.741-1.681c-.142-.968-1.379-1.525-3.712-1.686a15.735,15.735,0,0,1-2.256-.162c-2.953-.283-4.995-.838-6.1-1.665a4.991,4.991,0,0,1-2.185-3.638,6.477,6.477,0,0,1,1.6-5.437,10.206,10.206,0,0,1,6.033-2.789,11.135,11.135,0,0,1,6.978.876,7.16,7.16,0,0,1,3.28,4.884l-3.477.511a2.6,2.6,0,0,1-2.552-1.032l-.741-.551a4.393,4.393,0,0,0-2.776-.339,4.824,4.824,0,0,0-2.348.839,1.652,1.652,0,0,0-.517,1.559q.19,1.3,4.52,1.567a7.979,7.979,0,0,0,.891.121,3.588,3.588,0,0,0,.7-.025,15.016,15.016,0,0,1,6.094,1.589,5.138,5.138,0,0,1,2.109,3.649,6.562,6.562,0,0,1-1.775,5.88c-1.442,1.412-3.776,2.37-7.016,2.846-3.077.453-5.448.171-7.142-.852a6.577,6.577,0,0,1-3.146-5.069Z" transform="translate(-46.781 -56.854)" fill="#21364f"/>
        <path id="Trazado_512" data-name="Trazado 512" d="M179.041,169.788l4.047-.6a9,9,0,0,1-2.63,5.677,10.381,10.381,0,0,1-6.034,2.789,9.114,9.114,0,0,1-7.629-1.926c-2.012-1.68-3.279-4.34-3.808-7.941q-.76-5.173,1.319-8.455a9.094,9.094,0,0,1,6.751-4.05,9.794,9.794,0,0,1,7.941,1.8q3.02,2.614,3.809,7.95l.131.892a1.348,1.348,0,0,1,0,.583l-13.982,2.057a5.6,5.6,0,0,0,1.762,3.535,3.841,3.841,0,0,0,3.343.828,4.532,4.532,0,0,0,2.266-.915,1.071,1.071,0,0,0,.406-.343c.123-.153.243-.326.381-.511a1.863,1.863,0,0,1,.513-.736,2.225,2.225,0,0,1,1.417-.641m-10.626-4.882,8.246-1.212a5.277,5.277,0,0,0-1.605-3.064,3.916,3.916,0,0,0-3.159-.691,3.984,3.984,0,0,0-2.74,1.558,4.671,4.671,0,0,0-.741,3.408" transform="translate(-57.921 -55.198)" fill="#21364f"/>
        <path id="Trazado_513" data-name="Trazado 513" d="M197.009,174.075l-1.533-10.422a13.473,13.473,0,0,1,.153-5.429,8.826,8.826,0,0,1,2.041-3.8,9.867,9.867,0,0,1,3.339-2.306,16.418,16.418,0,0,1,4.154-1.184l.817-.12.843,5.736-1.862.274a4.823,4.823,0,0,0-3.31,1.642,4.881,4.881,0,0,0-.608,3.719l1.627,11.068-5.66.833Z" transform="translate(-69.481 -53.661)" fill="#21364f"/>
        <path id="Trazado_514" data-name="Trazado 514" d="M229.969,168.393l-5.736.844-10.673-20.392,5.984-.88,6.508,14.482,1.863-13.734a2.569,2.569,0,0,1,2.309-2.316l4.2-.617Z" transform="translate(-75.988 -51.871)" fill="#21364f"/>
        <path id="Trazado_515" data-name="Trazado 515" d="M246.141,135.5l2.907-.427a2.785,2.785,0,0,1,3.146,2.339l.251,1.7-5.649.831Zm.928,6.308,2.907-.428a2.787,2.787,0,0,1,3.149,2.342l2.758,18.75-5.652.831Z" transform="translate(-87.582 -48.05)" fill="#21364f"/>
        <path id="Trazado_516" data-name="Trazado 516" d="M260.878,157.277l5.5-.809a2.988,2.988,0,0,0,1.572,2.244,5.843,5.843,0,0,0,3.348.332,5.2,5.2,0,0,0,2.415-.937,1.735,1.735,0,0,0,.741-1.682c-.142-.968-1.379-1.525-3.712-1.686a15.643,15.643,0,0,1-2.256-.162q-4.444-.424-6.1-1.665a5.024,5.024,0,0,1-2.185-3.638,6.5,6.5,0,0,1,1.588-5.435,10.225,10.225,0,0,1,6.034-2.79,11.137,11.137,0,0,1,6.977.876,7.159,7.159,0,0,1,3.281,4.884l-3.477.511a2.6,2.6,0,0,1-2.552-1.032c-.251-.186-.5-.363-.741-.551a4.414,4.414,0,0,0-2.777-.339,4.869,4.869,0,0,0-2.351.84,1.643,1.643,0,0,0-.509,1.558q.19,1.3,4.52,1.567a7.829,7.829,0,0,0,.891.121,3.692,3.692,0,0,0,.7-.024,15,15,0,0,1,6.094,1.589,5.13,5.13,0,0,1,2.1,3.651,6.56,6.56,0,0,1-1.775,5.88c-1.442,1.412-3.785,2.371-7.016,2.846q-4.6.677-7.141-.852a6.549,6.549,0,0,1-3.146-5.069l-.034-.228Z" transform="translate(-92.55 -50.124)" fill="#21364f"/>
        <path id="Trazado_517" data-name="Trazado 517" d="M307.665,150.871l4.038-.594a8.913,8.913,0,0,1-2.63,5.676,10.374,10.374,0,0,1-6.034,2.789,9.115,9.115,0,0,1-7.63-1.925c-2.012-1.681-3.287-4.34-3.817-7.94q-.76-5.172,1.319-8.455a9.107,9.107,0,0,1,6.75-4.05c3.24-.477,5.879.124,7.941,1.8a11.132,11.132,0,0,1,2.706,3.814l-5.651.831a5.326,5.326,0,0,0-.986-1.1,3.947,3.947,0,0,0-3.158-.691,4.02,4.02,0,0,0-2.751,1.56q-1.212,1.838-.666,5.552t2.224,5.039a3.844,3.844,0,0,0,3.343.828,4.473,4.473,0,0,0,2.253-.914,1.068,1.068,0,0,0,.405-.342l.381-.512a4.021,4.021,0,0,1,.551-.741,2.255,2.255,0,0,1,1.411-.63" transform="translate(-103.681 -48.468)" fill="#21364f"/>
        <path id="Trazado_518" data-name="Trazado 518" d="M327.989,152.648A8.056,8.056,0,0,1,325,149.09a18.239,18.239,0,0,1-1.476-5.023,16.362,16.362,0,0,1-.035-4.46,9.14,9.14,0,0,1,1.365-3.917,8.482,8.482,0,0,1,4.993-3.665,12.6,12.6,0,0,1,6.052-.356,8.321,8.321,0,0,1,5.139,3.534,13.61,13.61,0,0,1,2.292,6.017,15.755,15.755,0,0,1,.093,4.528,11.683,11.683,0,0,1-.988,3.367,8.151,8.151,0,0,1-4.442,4.042,11.038,11.038,0,0,1-5.349.913,9.462,9.462,0,0,1-4.65-1.422m1.793-14.793q-1.42,2.115-.725,5.764c.464,2.435,1.182,4.076,2.132,4.927a3.7,3.7,0,0,0,1.861.843,3.938,3.938,0,0,0,2.473-.276,4.232,4.232,0,0,0,1.956-2.141,9.273,9.273,0,0,0,.355-4.846,8.308,8.308,0,0,0-1.572-4.223,4.292,4.292,0,0,0-2.42-1.546,3.949,3.949,0,0,0-2.429.309,4.181,4.181,0,0,0-1.63,1.19" transform="translate(-115.053 -46.774)" fill="#21364f"/>
        <path id="Trazado_519" data-name="Trazado 519" d="M137.088,205.494l1.2-.177a6.991,6.991,0,0,1,1.361-.113,1.587,1.587,0,0,1,.942.4,1.53,1.53,0,0,1,.477.939,1.646,1.646,0,0,1-.1.9,1.425,1.425,0,0,1-.573.657,3.047,3.047,0,0,1-1.147.363l2.566,2.466-.745.11-2.565-2.466-.342.05.409,2.784-.6.088Zm.685.5.3,2.032,1.038-.142a2.576,2.576,0,0,0,.867-.244.947.947,0,0,0,.393-.426,1.048,1.048,0,0,0-.163-1.111.877.877,0,0,0-.48-.289,2.805,2.805,0,0,0-.9.026Z" transform="translate(-48.779 -73.015)" fill="#21364f"/>
        <path id="Trazado_520" data-name="Trazado 520" d="M145.523,204.134l3.429-.5.087.589-2.834.417.277,1.881,2.812-.414.086.589-2.809.414.347,2.356,2.812-.414.086.589-3.41.5Z" transform="translate(-51.78 -72.455)" fill="#21364f"/>
        <path id="Trazado_521" data-name="Trazado 521" d="M155.707,202.745l3.674,5.584-.646.095-1.231-1.837-2.583.379-.641,2.113-.665.1,1.952-6.411Zm.111,1.285-.707,2.32,2.052-.3Z" transform="translate(-54.659 -72.141)" fill="#21364f"/>
        <path id="Trazado_522" data-name="Trazado 522" d="M163.248,201.758l.6-.088.8,5.414,2.308-.339.085.58-2.91.428Z" transform="translate(-58.087 -71.758)" fill="#21364f"/>
        <path id="Trazado_523" data-name="Trazado 523" d="M169,201.3l-.086-.589,3.287-.483.086.589-1.339.2.795,5.405-.608.09-.795-5.405Z" transform="translate(-60.102 -71.243)" fill="#21364f"/>
        <path id="Trazado_524" data-name="Trazado 524" d="M175.222,199.686l.691-.1,1.893,2.245,1.147-2.692.691-.1-1.44,3.4.421,2.859-.589.086-.421-2.859Z" transform="translate(-62.347 -70.821)" fill="#21364f"/>
        <path id="Trazado_525" data-name="Trazado 525" d="M188.42,197.942l1.2-.177a7.279,7.279,0,0,1,1.4-.118,1.533,1.533,0,0,1,.913.4,1.5,1.5,0,0,1,.468.94,1.537,1.537,0,0,1-.168,1.034,1.566,1.566,0,0,1-.8.651,7.812,7.812,0,0,1-1.507.318l-.426.062.41,2.783-.608.09Zm.685.5.3,2.032,1.018-.14a2.648,2.648,0,0,0,.886-.247.945.945,0,0,0,.394-.426,1.047,1.047,0,0,0-.164-1.111.821.821,0,0,0-.479-.289,2.714,2.714,0,0,0-.89.024Z" transform="translate(-67.043 -70.327)" fill="#21364f"/>
        <path id="Trazado_526" data-name="Trazado 526" d="M199.342,196.328l3.672,5.584-.646.1-1.231-1.838-2.581.379-.641,2.113-.665.1,1.953-6.411Zm.111,1.285-.707,2.32,2.052-.3Z" transform="translate(-70.185 -69.857)" fill="#21364f"/>
        <path id="Trazado_527" data-name="Trazado 527" d="M206.921,195.223l1.2-.176a6.988,6.988,0,0,1,1.361-.113,1.587,1.587,0,0,1,.942.4,1.53,1.53,0,0,1,.477.939,1.646,1.646,0,0,1-.1.9,1.428,1.428,0,0,1-.573.657,3.047,3.047,0,0,1-1.147.363l2.566,2.466-.754.111-2.566-2.466-.342.05.409,2.783-.6.088-.882-5.993Zm.685.5.3,2.032,1.038-.142a2.576,2.576,0,0,0,.867-.244.947.947,0,0,0,.393-.426,1.048,1.048,0,0,0-.163-1.111.875.875,0,0,0-.48-.289,2.805,2.805,0,0,0-.9.026Z" transform="translate(-73.623 -69.361)" fill="#21364f"/>
        <path id="Trazado_528" data-name="Trazado 528" d="M214.5,194.6l-.086-.589,3.287-.483.086.589-1.339.2.795,5.405-.608.09-.795-5.405Z" transform="translate(-76.294 -68.862)" fill="#21364f"/>
        <path id="Trazado_529" data-name="Trazado 529" d="M222.348,198.856l-.881-5.994.133-.019,4.665,4-.675-4.589.589-.086.882,5.993-.133.02-4.62-3.96.668,4.541Z" transform="translate(-78.802 -68.378)" fill="#21364f"/>
        <path id="Trazado_530" data-name="Trazado 530" d="M231.656,191.467l3.429-.5.087.589-2.834.417.277,1.881,2.812-.414.086.589-2.812.414.347,2.356,2.812-.414.087.589-3.408.5Z" transform="translate(-82.428 -67.948)" fill="#21364f"/>
        <path id="Trazado_531" data-name="Trazado 531" d="M239.251,190.47l1.2-.176a6.891,6.891,0,0,1,1.361-.113,1.58,1.58,0,0,1,.939.4,1.531,1.531,0,0,1,.478.939,1.647,1.647,0,0,1-.1.9,1.421,1.421,0,0,1-.573.657,3.04,3.04,0,0,1-1.147.363l2.565,2.466-.741.109-2.565-2.466-.342.05.409,2.784-.6.088Zm.685.5.3,2.032,1.038-.142a2.576,2.576,0,0,0,.867-.244.947.947,0,0,0,.393-.426,1.048,1.048,0,0,0-.163-1.111.877.877,0,0,0-.48-.289,2.806,2.806,0,0,0-.9.026l-1.055.155Z" transform="translate(-85.13 -67.67)" fill="#21364f"/>
        <path id="Trazado_532" data-name="Trazado 532" d="M254.765,187.878a3.179,3.179,0,1,1,.983,6.281,3.108,3.108,0,0,1-2.386-.581,3.038,3.038,0,0,1-1.245-2.068,3.216,3.216,0,0,1,.18-1.657,3.067,3.067,0,0,1,.969-1.326,3.03,3.03,0,0,1,1.5-.648m.113.575a2.575,2.575,0,0,0-2.007,1.6,2.666,2.666,0,0,0-.139,1.362,2.541,2.541,0,0,0,2.863,2.17l.036-.005a2.572,2.572,0,0,0,1.241-.532,2.409,2.409,0,0,0,.786-1.056,2.652,2.652,0,0,0,.141-1.351,2.621,2.621,0,0,0-.522-1.243,2.468,2.468,0,0,0-1.076-.788,2.568,2.568,0,0,0-1.323-.153Z" transform="translate(-89.694 -66.834)" fill="#21364f"/>
        <path id="Trazado_533" data-name="Trazado 533" d="M263.714,186.788l3-.441.087.589-2.4.354.277,1.881,2.4-.353.086.589-2.4.353.433,2.945-.6.088Z" transform="translate(-93.835 -66.306)" fill="#21364f"/>
        <path id="Trazado_534" data-name="Trazado 534" d="M273.962,185.859l-.086-.589,3.287-.483.086.589-1.339.2.795,5.405-.608.09-.795-5.405Z" transform="translate(-97.45 -65.751)" fill="#21364f"/>
        <path id="Trazado_535" data-name="Trazado 535" d="M283.831,183.6a3.179,3.179,0,1,1,.983,6.281,3.108,3.108,0,0,1-2.386-.581,3.04,3.04,0,0,1-1.245-2.068,3.216,3.216,0,0,1,.18-1.657,3.067,3.067,0,0,1,.969-1.326,3,3,0,0,1,1.5-.648m.113.575a2.575,2.575,0,0,0-2.007,1.6,2.666,2.666,0,0,0-.139,1.362,2.541,2.541,0,0,0,2.863,2.17l.036-.005a2.578,2.578,0,0,0,1.241-.532,2.409,2.409,0,0,0,.786-1.056,2.653,2.653,0,0,0,.141-1.351,2.621,2.621,0,0,0-.522-1.243,2.472,2.472,0,0,0-1.076-.788,2.582,2.582,0,0,0-1.323-.153Z" transform="translate(-100.037 -65.313)" fill="#21364f"/>
        <path id="Trazado_536" data-name="Trazado 536" d="M293.705,188.336l-.026-6.12.095-.014,3.154,4.553,1.69-5.266.095-.014,1.746,5.867-.589.087-1.219-4.2-1.488,4.6-.152.022-2.78-4,.045,4.4Z" transform="translate(-104.497 -64.573)" fill="#21364f"/>
        <path id="Trazado_537" data-name="Trazado 537" d="M308.192,180.021a3.179,3.179,0,1,1,.983,6.281,3.108,3.108,0,0,1-2.386-.581,3.038,3.038,0,0,1-1.245-2.068,3.216,3.216,0,0,1,.18-1.657,3.115,3.115,0,0,1,2.463-1.973Zm.113.575a2.575,2.575,0,0,0-2.007,1.6,2.666,2.666,0,0,0-.139,1.362,2.541,2.541,0,0,0,2.863,2.17l.036-.005a2.572,2.572,0,0,0,1.241-.532,2.409,2.409,0,0,0,.786-1.056,2.652,2.652,0,0,0,.141-1.351,2.621,2.621,0,0,0-.522-1.243,2.472,2.472,0,0,0-1.076-.788,2.568,2.568,0,0,0-1.323-.153Z" transform="translate(-108.705 -64.038)" fill="#21364f"/>
        <path id="Trazado_538" data-name="Trazado 538" d="M317.2,179.006l1.2-.176a6.99,6.99,0,0,1,1.361-.113,1.587,1.587,0,0,1,.942.4,1.53,1.53,0,0,1,.477.939,1.646,1.646,0,0,1-.1.9,1.428,1.428,0,0,1-.573.657,3.047,3.047,0,0,1-1.147.363l2.566,2.466-.741.109-2.566-2.467-.343.051.409,2.783-.6.088-.881-5.994Zm.685.5.3,2.032,1.038-.142a2.576,2.576,0,0,0,.867-.244.947.947,0,0,0,.393-.426,1.048,1.048,0,0,0-.163-1.111.873.873,0,0,0-.479-.289,2.805,2.805,0,0,0-.9.026l-1.053.155Z" transform="translate(-112.865 -63.59)" fill="#21364f"/>
        <path id="Trazado_539" data-name="Trazado 539" d="M325.663,177.762l1.2-.176a6.89,6.89,0,0,1,1.361-.113,1.582,1.582,0,0,1,.942.395,1.533,1.533,0,0,1,.477.939,1.647,1.647,0,0,1-.1.9,1.419,1.419,0,0,1-.573.656,3.042,3.042,0,0,1-1.147.363l2.566,2.466-.741.109-2.565-2.466-.342.05.409,2.783-.6.088-.881-5.994Zm.685.5.3,2.032,1.038-.142a2.576,2.576,0,0,0,.867-.244.947.947,0,0,0,.393-.426,1.048,1.048,0,0,0-.163-1.111.877.877,0,0,0-.48-.289,2.805,2.805,0,0,0-.9.026l-1.055.155Z" transform="translate(-115.877 -63.148)" fill="#21364f"/>
        <path id="Trazado_540" data-name="Trazado 540" d="M336.991,175.786a3.179,3.179,0,1,1,.983,6.281,3.108,3.108,0,0,1-2.386-.581,3.038,3.038,0,0,1-1.245-2.068,3.216,3.216,0,0,1,.18-1.657,3.067,3.067,0,0,1,.969-1.326,3,3,0,0,1,1.5-.648m.113.575a2.575,2.575,0,0,0-2.007,1.6,2.666,2.666,0,0,0-.139,1.362,2.541,2.541,0,0,0,2.863,2.17l.036-.005a2.572,2.572,0,0,0,1.241-.532,2.409,2.409,0,0,0,.786-1.056,2.652,2.652,0,0,0,.141-1.351,2.621,2.621,0,0,0-.522-1.243,2.466,2.466,0,0,0-1.075-.788,2.584,2.584,0,0,0-1.323-.153Z" transform="translate(-118.952 -62.532)" fill="#21364f"/>
        <path id="Trazado_541" data-name="Trazado 541" d="M345.424,174.427l.617-.091,1.86,4.132,1.085-4.565.124-.018,2.334,4.062.61-4.5.608-.089-.838,6.247-.114.017-2.443-4.27-1.144,4.8-.114.017Z" transform="translate(-122.908 -61.686)" fill="#21364f"/>
      </g>
    </g>
    <text id="VU_À_LA" data-name="VU À LA" transform="matrix(0.989, -0.145, 0.145, 0.989, 64.501, 194.87)" fill="#21364f" font-size="43" font-family="WorkSans-Black, Work Sans" font-weight="800"><tspan x="0" y="0">VU</tspan><tspan y="0" letter-spacing="-0.01em"> </tspan><tspan y="0" letter-spacing="-0.009em">À</tspan><tspan y="0" xml:space="preserve"> LA</tspan></text>
    <g id="Grupo_213" data-name="Grupo 213">
      <g id="Grupo_212" data-name="Grupo 212" clip-path="url(#clip-path)">
        <path id="Trazado_542" data-name="Trazado 542" d="M150.8,321.725l1.077,7.324,8.867-1.3,3.08,20.946,9.98-1.467-3.08-20.946,8.823-1.3-1.077-7.324Z" transform="translate(-53.656 -113.028)" fill="none" stroke="#21364f" stroke-miterlimit="10" stroke-width="2"/>
        <path id="Trazado_543" data-name="Trazado 543" d="M205.465,307.2l6.981-1.026,2.847-7.726-8.4,1.234Zm21.085,27.926-1.077-7.325-14.007,2.059-.491-3.341,10.88-1.6-1-6.768-10.88,1.6-.516-3.512,13.492-1.984-1.077-7.325-23.473,3.452,4.158,28.271Z" transform="translate(-70.597 -106.192)" fill="none" stroke="#21364f" stroke-miterlimit="10" stroke-width="2"/>
        <path id="Trazado_544" data-name="Trazado 544" d="M250.011,308.571l-9.98,1.467,4.158,28.271,22.788-3.351-1.078-7.325-12.808,1.884Z" transform="translate(-85.407 -109.795)" fill="none" stroke="#21364f" stroke-miterlimit="10" stroke-width="2"/>
        <path id="Trazado_545" data-name="Trazado 545" d="M287.317,295.157l6.982-1.027,2.846-7.726-8.4,1.235ZM308.4,323.082l-1.077-7.325-14.007,2.06-.491-3.341,10.88-1.6-1-6.768-10.88,1.6-.516-3.512,13.492-1.985-1.077-7.325-23.473,3.453,4.158,28.271Z" transform="translate(-99.721 -101.908)" fill="none" stroke="#21364f" stroke-miterlimit="10" stroke-width="2"/>
      </g>
    </g>
  </g>
</svg>
