<svg id="Grupo_178" data-name="Grupo 178" xmlns="http://www.w3.org/2000/svg" xmlns:xlink="http://www.w3.org/1999/xlink" width="156.806" height="200.082" viewBox="0 0 156.806 200.082">
  <defs>
    <clipPath id="clip-path">
      <rect id="Rectángulo_54" data-name="Rectángulo 54" width="156.806" height="200.082" fill="none"/>
    </clipPath>
  </defs>
  <g id="Grupo_177" data-name="Grupo 177" clip-path="url(#clip-path)">
    <path id="Trazado_466" data-name="Trazado 466" d="M60.972,75.877l-5.88,5.879a.017.017,0,0,1,.006.011l5.88-5.877c0-.007,0-.007-.006-.013" transform="translate(-9.163 -12.62)" fill="#515151"/>
    <path id="Trazado_467" data-name="Trazado 467" d="M59.7,69.817l-.007-.011L16.987,112.512v61.974h85.407V112.512ZM55.538,154.59H38.858V137.32H55.538Zm0-25.592H38.858V112.336H55.538Zm-4.785-39.69a8.941,8.941,0,1,1,8.94,8.941,8.938,8.938,0,0,1-8.94-8.941M80.529,154.59H63.86V137.32H80.529Zm0-25.592H63.86V112.336H80.529Z" transform="translate(-2.825 -11.611)" fill="#ff7867"/>
    <path id="Trazado_468" data-name="Trazado 468" d="M92.454,86.392V59.644H77.7V71.631L56.879,50.8,0,107.68l7.927,7.928,6.234-6.234L56.874,66.656l.006-.005,48.957,48.957,7.9-7.928Z" transform="translate(0 -8.45)" fill="#daebfe"/>
    <path id="Trazado_469" data-name="Trazado 469" d="M138.868,153.864l33.767,71.809-7.507-2.612-7.513-2.614L128.58,158.7Z" transform="translate(-21.386 -25.592)" fill="#daebfe"/>
    <path id="Trazado_470" data-name="Trazado 470" d="M173.317,181.672l-.793,9.534,7.847,5.466-.8,9.531,1.695,3.6-2.779,7.453-31.4-66.779,5.147-2.42,6.179,13.141,7.847,5.468-.793,9.534Z" transform="translate(-24.465 -24.627)" fill="#c1ddfe"/>
    <path id="Trazado_471" data-name="Trazado 471" d="M146.063,150.964l31.4,66.779-2.777,7.448-33.767-71.809Z" transform="translate(-23.439 -25.109)" fill="#daebfe"/>
    <path id="Trazado_472" data-name="Trazado 472" d="M139.895,153.864l33.767,71.809-7.507-2.612-31.4-66.78Z" transform="translate(-22.413 -25.592)" fill="#c1ddfe"/>
    <rect id="Rectángulo_52" data-name="Rectángulo 52" width="28.963" height="9.656" transform="matrix(0.905, -0.426, 0.426, 0.905, 102.066, 129.924)" fill="#daebfe"/>
    <rect id="Rectángulo_53" data-name="Rectángulo 53" width="93.339" height="11.961" transform="translate(10.197 156.43)" fill="#daebfe"/>
    <path id="Trazado_473" data-name="Trazado 473" d="M130.273,72a47.11,47.11,0,0,0,8.373-26.332A45.665,45.665,0,1,0,49.025,58.076l6.734-6.734a36.608,36.608,0,0,1-.431-5.675,37.653,37.653,0,1,1,55.145,33.339h0a37.3,37.3,0,0,1-13.53,4.106A8.42,8.42,0,0,0,97.4,89.1a8.273,8.273,0,0,0,1.221,1.884,45.154,45.154,0,0,0,14.83-4.493h0a46.245,46.245,0,0,0,16.834-14.488l-.01-.007" transform="translate(-7.87)" fill="#493f93"/>
    <path id="Trazado_474" data-name="Trazado 474" d="M146.19,97.024a32.1,32.1,0,0,0-9.676-11.961,45.771,45.771,0,0,1-16.833,14.484,8.455,8.455,0,1,1-2.978-7.483A37.734,37.734,0,0,0,129.537,81.04a32.241,32.241,0,1,0-13.374,61.937l26.212-12.321a32.228,32.228,0,0,0,3.815-33.632M102.958,124.4a4.044,4.044,0,1,1,1.942-5.384,4.041,4.041,0,0,1-1.942,5.384" transform="translate(-14.099 -13.056)" fill="#c1ddfe"/>
    <path id="Trazado_475" data-name="Trazado 475" d="M84.588,95.615a32.036,32.036,0,0,0-3.04,7.466,44.349,44.349,0,0,1-9.816-4.3,45.884,45.884,0,0,1-13.019-11.49,8.921,8.921,0,0,1,6.507-4.682,37.846,37.846,0,0,0,10.35,9.135,36.623,36.623,0,0,0,9.018,3.872" transform="translate(-9.766 -13.74)" fill="#493f93"/>
  </g>
</svg>
