<svg id="Grupo_256" data-name="Grupo 256" xmlns="http://www.w3.org/2000/svg" xmlns:xlink="http://www.w3.org/1999/xlink" width="717.993" height="497.045" viewBox="0 0 717.993 497.045">
  <defs>
    <clipPath id="clip-path">
      <path id="Trazado_617" data-name="Trazado 617" d="M112.076,387.692v7.986h-.067a1.292,1.292,0,0,1-.111.489l1.78-.312a60.672,60.672,0,0,1-1.279-8.219ZM96.748,332.121q-39.264,6.051-65.515,31.9Q5.183,389.672.489,423.775H0v7.319H66.071V404.265l1.4.245L66,404.22l40.644-7.119a3.157,3.157,0,0,1-.6-1.423v-10.5a2.779,2.779,0,0,1,.712-1.913,3.143,3.143,0,0,1,1.8-1.046l.1-.022q-1.022-.456-2.036-.957a4.072,4.072,0,0,1-2.136-3.715,32.954,32.954,0,0,1,3.837-16.5,172.162,172.162,0,0,1-9.354-29.309q-1.113.226-2.225.4M362.834,220.312a125.133,125.133,0,0,0-29.921,5.985,101.257,101.257,0,0,0-24.292,11.612,91.746,91.746,0,0,0-21.446,19.354q-7.408,9.231-20,11.168l-.378.044q-10.923,1.491-21.957,2.069a158.284,158.284,0,0,0-40.521,2.124L224.6,306.115q.576.957,1.057,1.913a19.147,19.147,0,0,1,3.593,7.808,17.119,17.119,0,0,1,.311,3.025,13.42,13.42,0,0,1-.778,4.916,10.7,10.7,0,0,1-3.115,4.4l-.022.023a11.4,11.4,0,0,1-9.833,2.269,18,18,0,0,1-10.545-6.184q-3.678-3.3-7.23-6.663,1,7.471,1.891,15.761a257.12,257.12,0,0,1-.445,56.46q-2.818.264-5.528.49a214.251,214.251,0,0,1-5.172,40.754H486.834v0H632.145a3.852,3.852,0,0,0,1.069-2.78,56.193,56.193,0,0,0-1.135-10.412,220.343,220.343,0,0,0-10.033-33.391,147.957,147.957,0,0,0-30.766-48.386q-25.961-27.407-65.159-32.413-.512-.089-1-.178-19.949-4.726-33.169-18.453V409.137a5.09,5.09,0,0,1-5.117,5.117,5.127,5.127,0,0,1-5.117-5.117V271.478q-14.211-22.632-27.652-30.632a148.783,148.783,0,0,0-77.471-21.084q-6.794,0-13.76.551" transform="translate(0 -219.761)" fill="none"/>
    </clipPath>
    <linearGradient id="linear-gradient" x1="0.013" y1="1.884" x2="0.014" y2="1.884" gradientUnits="objectBoundingBox">
      <stop offset="0" stop-color="#ced2f7"/>
      <stop offset="1" stop-color="#f8f5fc"/>
    </linearGradient>
    <clipPath id="clip-path-2">
      <rect id="Rectángulo_81" data-name="Rectángulo 81" width="717.993" height="497.045" fill="none"/>
    </clipPath>
  </defs>
  <g id="Grupo_253" data-name="Grupo 253" transform="translate(0 97.777)">
    <g id="Grupo_252" data-name="Grupo 252" clip-path="url(#clip-path)">
      <path id="Trazado_616" data-name="Trazado 616" d="M-19.673,430.989l8.753-211.755,641.966-.422-8.753,211.755Z" transform="translate(10.92 -219.234)" fill="url(#linear-gradient)"/>
    </g>
  </g>
  <g id="Grupo_255" data-name="Grupo 255">
    <g id="Grupo_254" data-name="Grupo 254" clip-path="url(#clip-path-2)">
      <path id="Trazado_618" data-name="Trazado 618" d="M601.328,48.073,591.1,46.994l-52.834-5.562V5.55L661.125,18.475l20.823,20.133-20.8,15.75ZM522.4,52.979l122.843,12.88v35.883l-43.914-4.6L591.1,96.069l-68.718-7.208-20.8-20.133ZM241.909,469.492q-.027,6.681-.323,10.856-2,5.027,2.38,7.119,3.27,1.557,8.676.89-.824,2.8,1.713,3.626a17.936,17.936,0,0,0,4.894.667,84.726,84.726,0,0,1,9.254.289q5.651-.29,7.875-3.915a103.692,103.692,0,0,1,10.967-.979q3.649-.133,11.123-.445,13.214-.957,20.911-5.851a1.459,1.459,0,0,0,1.268-1.557,11.22,11.22,0,0,0-.445-2.291,5.53,5.53,0,0,0-1.112-5.05,7.253,7.253,0,0,0-2.225-1.713,15.26,15.26,0,0,0-8.454-.957,27.142,27.142,0,0,1-11.345-1.78q-7.186-2.981-10.834-4.382-.957-.957-1.691-1.846l1.4-.667q-.784-4.031-1.457-8.064l225.03-65.871a18.509,18.509,0,0,0,2.28-3.871q1.352-13.334-50.621-28.119L407.142,367.85l-16.2-34.7H559.906l-37.773,8.587a84.255,84.255,0,0,1,22.5,9.944q27.111,16.917,14.427,26.729Q662.5,379.548,708.7,392.443q25.709,7.176,37.406,12.892l28.186-6.407,53.079,42.957-205.844-8.253,39.176-8.9h-.99q-45.331-14.915-131.263,5.183L341.272,484.709q-.731,6.283-21.089,10.767-21.112,4.65-51.01,4.649t-51.01-4.649q-21.111-4.65-21.112-11.234t21.112-11.234a190.454,190.454,0,0,1,23.748-3.515M620.238,368.362q0,2.18-7.03,3.737a93.648,93.648,0,0,1-34.014,0q-7.03-1.558-7.03-3.737,0-2.2,7.03-3.76a94.985,94.985,0,0,1,34.014,0q7.03,1.557,7.03,3.76" transform="translate(-109.378 -3.081)" fill="#21364f" fill-rule="evenodd"/>
      <path id="Trazado_619" data-name="Trazado 619" d="M286.491,112.344a1.426,1.426,0,0,0,1.112,1.4,1.2,1.2,0,0,1,.445.156,4.707,4.707,0,0,1,.957-.222h.156q-5.495,8.386-10.256,12.168a95.379,95.379,0,0,1-11.635,7.475,50.837,50.837,0,0,1-13.793,4.761,52.992,52.992,0,0,1-14.3-.155,22.579,22.579,0,0,1-5.339-1.557,25.362,25.362,0,0,1,2.959-9.5,31.5,31.5,0,0,1,9.277-11.257,27.636,27.636,0,0,1,13.7-5.361q1.113-.133,13.348-.8a51.7,51.7,0,0,0,10.7-2,7.985,7.985,0,0,0-1.713,4.071q0,.156.133,1.4a2.18,2.18,0,0,0,2.158,1.268q.667,0,2.091-1.846m-67.828,62.9q-.168.135-.334.278a24.7,24.7,0,0,0-6.741,10.166q-2.381,6.3,0,15.572,2.291,9.277,5.183,14.015,4.961,8.454,10.011,17.063,3.181,5.339,6.162,10.9a33.353,33.353,0,0,1,2.291,5.494q1.113,3.938,1.935,8.009a37.421,37.421,0,0,1-1.869,20.689,94.859,94.859,0,0,1-9.343,18.842q-.762,1.187-1.413,2.414a172.164,172.164,0,0,1-9.354-29.309q-1.141-5.124-1.98-10.344a283.492,283.492,0,0,1-3.693-55.482q.089-2.314.133-4.65.4-6.873,1.29-13.7a10.682,10.682,0,0,1,2.647-6.006,14.2,14.2,0,0,1,5.072-3.949M269.5,520.872l-7.719-2.8L262,516.2q-2.892-21.735-6.741-42.2-3.938-20.533.734-47.984,1.9-11.354,2.859-24.516,1.351-18.67.79-40.977a21.21,21.21,0,0,0-3.114-11.345,65.376,65.376,0,0,1-6.463-12.847,59.532,59.532,0,0,1-1.858-6.04q-.532-2.131-.9-4.293,2,.39,4.015.756,6.385.667,12.68,1.557h.6q.191.994.378,1.991.315,1.658.623,3.315,2.778,14.863,5.295,29.865a72.151,72.151,0,0,1,.667,19.443q-.78,8.291-1.513,16.6-2.612,29.567-4.627,59.286a196.1,196.1,0,0,0,2.447,46.583q.964,5.9,1.413,11.935.126,1.769.211,3.549M276.9,182.107a47.04,47.04,0,0,1,5.628,6.362q6.229,8.142,16.707,25.428,9.744,10.633,17.53,21.023,4,5.405,8.876,12.013a16.319,16.319,0,0,0,7.5,5.361q3.433,1.042,10.956,1.179.669.016,1.368.022a17.108,17.108,0,0,1,.311,3.025,13.41,13.41,0,0,1-.779,4.916,10.706,10.706,0,0,1-3.114,4.405l-.022.022a11.4,11.4,0,0,1-9.833,2.269,18,18,0,0,1-10.545-6.184q-3.678-3.3-7.23-6.663a328.741,328.741,0,0,1-39.287-44.37,29.314,29.314,0,0,1-5.873-14.282,16.83,16.83,0,0,1,.245-6.585,5.526,5.526,0,0,1,.178-.667l.779-1.824c.015-.029.03-.044.044-.044l1.713-2.4a12.117,12.117,0,0,1,.89-.845l.022-.022a10.744,10.744,0,0,1,3.938-2.136M253.322,516.066l-4.738-.978-1.846-.445a329.059,329.059,0,0,1-7.564-80.242q.188-5.724.9-29.6.131-4.337.278-9.266.89-32.124-5.183-46.228a98.284,98.284,0,0,1-3.637-9.71q-.969-3.109-1.635-6.084a60.673,60.673,0,0,1-1.279-8.219q-.079-.9-.122-1.791-.063-1.117-.089-2.191a59.7,59.7,0,0,0,6.285,1.969q.023.475.056.945a49.11,49.11,0,0,0,1.268,8.209,51.314,51.314,0,0,0,1.869,6.04,59.411,59.411,0,0,0,5.206,10.477,22.9,22.9,0,0,1,3.337,11.635q.681,21.458.234,43.057-.344,16.482-1.346,33.047a248.362,248.362,0,0,0,8.009,79.374" transform="translate(-116.219 -59.643)" fill="#362e95" fill-rule="evenodd"/>
      <path id="Trazado_620" data-name="Trazado 620" d="M422.786,296.372a6.738,6.738,0,0,1-3.037,2.792l-4.216,2.058q-3.209-4.956-6.173-10.111-.8-1.008-1.635-1.924l3.025-1.468,2.747-1.346a7.2,7.2,0,0,1,2.714-.734,7.057,7.057,0,0,1,2.714.4,6.84,6.84,0,0,1,4.093,3.6l.022.022a6.8,6.8,0,0,1,.311,5.428,7.319,7.319,0,0,1-.567,1.279" transform="translate(-226.319 -158.546)" fill="#fff" fill-rule="evenodd"/>
      <path id="Trazado_621" data-name="Trazado 621" d="M292.06,811.449q-6.3,3.27-19.51,3.27-11.635,0-16.151-3.137-3.115-2.069-4.093-7.03-.289-.979-.512-1.646l5.717-2.136q.734.89,1.691,1.846,3.649,1.4,10.834,4.382a27.142,27.142,0,0,0,11.346,1.78,15.26,15.26,0,0,1,8.454.957,7.254,7.254,0,0,1,2.225,1.713M188.994,616.8q.111.111.289.267a2.883,2.883,0,0,0,4.249,0,2.409,2.409,0,0,0,.712-1.2l1.78-.311q.666,2.975,1.635,6.084l-31.311,5.506-16.084-2.848-.445-.089-1.468-.289Zm.6,6.184-12.08-2.136L165.3,622.98l12.1,2.136Z" transform="translate(-82.346 -341.678)" fill="#ff5a72" fill-rule="evenodd"/>
      <path id="Trazado_622" data-name="Trazado 622" d="M574.379,6.317,564.157,5.237a4.854,4.854,0,0,1,1.5-3.226A4.874,4.874,0,0,1,569.263.5a4.948,4.948,0,0,1,3.626,1.513,4.911,4.911,0,0,1,1.49,3.6Zm0,157.058V287.43a5.09,5.09,0,0,1-5.117,5.117,5.128,5.128,0,0,1-5.117-5.117V102.364q1,1.268,2,2.491,4.694,5.762,8.231,9.5Zm-322.5,298.131q.223.667.512,1.646.979,4.961,4.093,7.03,4.516,3.136,16.151,3.137,13.214,0,19.51-3.271a5.53,5.53,0,0,1,1.112,5.05,47.43,47.43,0,0,1-18.4,5.917,186.93,186.93,0,0,1-19.354.667q-9.12,1.424-14.616,1.713a67.008,67.008,0,0,1-14.749-.956l-.445-2.981a55.192,55.192,0,0,1,1.046-13.192c.013-.118.028-.236.045-.356a60.83,60.83,0,0,1,1.2-7.208l7.719,2.8a34.006,34.006,0,0,0,13.281.667q1.4-.356,2.892-.667M166.43,285.739v66.716l-7.986-1.424v.045l-9.944-1.8V282.558l1.4.244.445.089Z" transform="translate(-82.429 -0.277)" fill="#e63d5e" fill-rule="evenodd"/>
      <path id="Trazado_623" data-name="Trazado 623" d="M210.743,629.585l-12.191,2.136-12.1-2.136,12.213-2.136Z" transform="translate(-103.494 -348.283)" fill="#ffea9e" fill-rule="evenodd"/>
      <path id="Trazado_624" data-name="Trazado 624" d="M188.8,701.446V634.73l31.311-5.506a98.3,98.3,0,0,0,3.637,9.71q6.073,14.1,5.183,46.227-.147,4.929-.278,9.266Z" transform="translate(-104.799 -349.268)" fill="#991e40" fill-rule="evenodd"/>
      <path id="Trazado_625" data-name="Trazado 625" d="M238.951,599.754a3.161,3.161,0,0,1-.6-1.423v-10.5a2.782,2.782,0,0,1,.712-1.913,3.146,3.146,0,0,1,1.8-1.045l.1-.023q1.749.789,3.526,1.457.025,1.074.089,2.191.044.889.122,1.791l-.323.056v7.986h-.067a1.288,1.288,0,0,1-.111.489,2.417,2.417,0,0,1-.712,1.2,2.884,2.884,0,0,1-4.249,0q-.178-.156-.289-.267" transform="translate(-132.303 -324.637)" fill="#ffdb59" fill-rule="evenodd"/>
      <path id="Trazado_626" data-name="Trazado 626" d="M330.864,367.726a216.06,216.06,0,0,1-7.252,24.916A176.553,176.553,0,0,0,313.69,441a299.155,299.155,0,0,0,3.5,67.973q.673,4.034,1.457,8.064l-1.4.667-5.717,2.136q-1.49.312-2.892.667a34.005,34.005,0,0,1-13.281-.667q-.085-1.78-.211-3.549-.449-6.034-1.413-11.935a196.1,196.1,0,0,1-2.447-46.583q2.015-29.719,4.627-59.286.733-8.3,1.513-16.6a72.149,72.149,0,0,0-.667-19.443q-2.517-15-5.295-29.865-.308-1.656-.623-3.315-.188-1-.378-1.991h-.6a26.736,26.736,0,0,1-1.057-8.609,25.137,25.137,0,0,1,.323-2.959q.534-3.133,1.224-6.206a119.275,119.275,0,0,1,4.271-14.705,124.741,124.741,0,0,0,5.25-19.509,110.823,110.823,0,0,0,1.713-19.866,93.856,93.856,0,0,0-1.335-17.374,78.49,78.49,0,0,0-3.337-12.3q-2.069-5.406-4.6-12.547a32.222,32.222,0,0,1-1.913-14.238,64.59,64.59,0,0,1,3.248-15.195,15.309,15.309,0,0,1-8.009,3.114,40.843,40.843,0,0,1-19.265-.155,11.335,11.335,0,0,1-7.274-5.05,17.328,17.328,0,0,1-3.1-9.088q-.042-.784-.011-1.59h.156l4.805.978q.023.251.056.5a21.123,21.123,0,0,0,.612,3.059,6.643,6.643,0,0,0,1.869,2.737,6.234,6.234,0,0,0,3.337,1.557,22.285,22.285,0,0,0,6.14.89,27.528,27.528,0,0,0,5.784-.6q3.115-.29,6.162-.667,3.115-.445,6.229-1.024,2.825-.378,5.717-.978,2.8-.579,5.784-.957a16.314,16.314,0,0,1,4.527-.022q.808.115,1.613.311.511.305,1.012.612,2.4,1.488,4.483,3.036a33.832,33.832,0,0,1,4.672,3.782q1.5,1.555,2.859,3.248l.245.3a26.1,26.1,0,0,0-10.378-6.285,15.426,15.426,0,0,0-8.9-.4,10.737,10.737,0,0,0-3.938,2.135l-.022.023a11.927,11.927,0,0,0-.89.845l-1.713,2.4c-.015,0-.029.015-.044.045l-.779,1.824a5.526,5.526,0,0,0-.178.667,16.829,16.829,0,0,0-.245,6.585,29.319,29.319,0,0,0,5.873,14.282,328.762,328.762,0,0,0,39.287,44.369q1,7.471,1.891,15.762a257.118,257.118,0,0,1-.445,56.46q-2.818.264-5.528.49a214.221,214.221,0,0,1-5.172,40.755M346.4,209.3l20.277,33.447q.576.958,1.057,1.914-.224-.288-.456-.579a222.992,222.992,0,0,1-35.983-42.79l4.216-2.058a6.733,6.733,0,0,0,3.037-2.791q.342.474.656.99ZM274.292,535.884a82.952,82.952,0,0,0,11.056,1.913l.445,2.981a67.01,67.01,0,0,0,14.749.956q5.495-.288,14.616-1.713a186.956,186.956,0,0,0,19.354-.667,47.439,47.439,0,0,0,18.4-5.917,11.19,11.19,0,0,1,.445,2.291,1.459,1.459,0,0,1-1.268,1.557q-7.7,4.895-20.911,5.851-7.475.311-11.123.445a103.569,103.569,0,0,0-10.967.979q-2.224,3.625-7.875,3.915a84.882,84.882,0,0,0-9.254-.29,17.943,17.943,0,0,1-4.894-.667q-2.536-.822-1.713-3.626-5.406.667-8.676-.89-4.382-2.092-2.38-7.119m35.394-429.461q.956-.445,1.691-.823a1.891,1.891,0,0,1,1.112,1.78q0,.444-.133,2.825a2.027,2.027,0,0,0,0,1.112q-1.424,1.846-2.091,1.846a2.18,2.18,0,0,1-2.158-1.268q-.133-1.246-.134-1.4a7.985,7.985,0,0,1,1.713-4.071m-6.029,31.211a2.772,2.772,0,0,0,.089.667v.311a2.04,2.04,0,0,0,.133.667v1.335a12.794,12.794,0,0,1-1.246,5.718q-1.424,2.67-3.048,2.958-2,.445-3.782-2.958a3.126,3.126,0,0,0-.89.445h-.156l-1.624,1.4a2.431,2.431,0,0,1-.6.667L292.4,149q-.534.89-2.38,3.782-2.825,4.961-6.162,5.784a25.306,25.306,0,0,1-8.743.667h-.823a11.025,11.025,0,0,1-4.071-1.112,6.824,6.824,0,0,1-2.514-1.268,7.89,7.89,0,0,1-2.536-3.047,24.286,24.286,0,0,1-4.672-8.3,7.516,7.516,0,0,1-.356-1.713q-.156-1.113-.311-1.935a14.41,14.41,0,0,1-.133-1.846,11.486,11.486,0,0,1,0-2.67v-2a22.578,22.578,0,0,0,5.339,1.557,52.992,52.992,0,0,0,14.3.155,50.836,50.836,0,0,0,13.793-4.76,95.433,95.433,0,0,0,11.635-7.475q4.761-3.781,10.255-12.168a15.308,15.308,0,0,1-3.782,10.077,44.794,44.794,0,0,0-4.383,5.339,5.937,5.937,0,0,0-1.112,1.557,32.9,32.9,0,0,0-2.67,3.337,7.154,7.154,0,0,0,.289,2.825,2.877,2.877,0,0,1,.156.957,2.238,2.238,0,0,0,.133.89M287.862,515.173l-8.676-.134a248.362,248.362,0,0,1-8.009-79.374q1-16.565,1.346-33.047.448-21.6-.234-43.057a22.9,22.9,0,0,0-3.337-11.635,59.41,59.41,0,0,1-5.206-10.478,51.3,51.3,0,0,1-1.869-6.04,49.114,49.114,0,0,1-1.268-8.209q-.033-.47-.056-.945,1.078.278,2.169.512l6.451-10.968-2.447,11.858q3.212.686,6.44,1.313.369,2.162.9,4.293a59.541,59.541,0,0,0,1.858,6.04,65.4,65.4,0,0,0,6.463,12.847,21.208,21.208,0,0,1,3.114,11.346q.561,22.307-.79,40.977-.954,13.162-2.859,24.516-4.672,27.452-.734,47.984,3.849,20.467,6.741,42.2" transform="translate(-142.084 -58.616)" fill="#100a5c" fill-rule="evenodd"/>
      <path id="Trazado_627" data-name="Trazado 627" d="M365.582,156.1a31.258,31.258,0,0,1,1.4,4.227.706.706,0,0,0,.156.378q-.823.89-1.869,2a32.763,32.763,0,0,1-2.892,2.959,2.236,2.236,0,0,1-.133-.89,2.88,2.88,0,0,0-.156-.957,7.143,7.143,0,0,1-.289-2.825,32.993,32.993,0,0,1,2.67-3.337,5.944,5.944,0,0,1,1.112-1.557m2.447,29.1q7.453,11.056,9.788,14.482,2.38,3.47-.467,6.162a5.154,5.154,0,0,1-1.935,1.557,2.654,2.654,0,0,0-1.046.712q-3.36-2.848-3.693-3.671a4.522,4.522,0,0,1,2.225,1.78q3.247-1.757,2.4-4.649-.467-2.024-3.4-5.806a35.589,35.589,0,0,1-3.871-6.006,5.117,5.117,0,0,1,0-4.56" transform="translate(-200.805 -86.648)" fill="#e9b8ae" fill-rule="evenodd"/>
      <path id="Trazado_628" data-name="Trazado 628" d="M353.673,166.45q.445,2.825.667,6.385a22.69,22.69,0,0,1,2.158,4.293,27.071,27.071,0,0,1-1.112,4.227,14.691,14.691,0,0,1-.756,2,70.708,70.708,0,0,1-.823,10.1,6.288,6.288,0,0,1-.289.957q-1.268,4.961-3.937,7.185a27.99,27.99,0,0,0-2.959-1.846q-2.514-1.4-4.227-7.274a11.947,11.947,0,0,0-2.514-3.4,17.44,17.44,0,0,1-2.091-3.337,10.481,10.481,0,0,1-.289-1.268,7.044,7.044,0,0,1,.289-1.846,2.441,2.441,0,0,0,.6-.667l1.624-1.4h.156a3.128,3.128,0,0,1,.89-.445q1.78,3.4,3.782,2.959,1.624-.289,3.048-2.959a12.794,12.794,0,0,0,1.246-5.717v-1.335a2.043,2.043,0,0,1-.133-.667v-.311a2.768,2.768,0,0,1-.089-.667,32.817,32.817,0,0,0,2.892-2.959q1.046-1.113,1.869-2m18.1,55.115q-2.282-.216-4.716-.323-1.356-1.694-2.859-3.248a33.772,33.772,0,0,0-4.672-3.782q-2.083-1.548-4.483-3.037a2.257,2.257,0,0,1,2.169-.99q.334.823,3.693,3.671a2.657,2.657,0,0,1,1.046-.712,5.153,5.153,0,0,0,1.935-1.557q2.847-2.692.467-6.162-2.336-3.426-9.788-14.482a4.753,4.753,0,0,1,.845-1.09q1.379,1.446,6.385,8.164a27.832,27.832,0,0,0,7.3,7.341q4.249,1.2,6.118,6.385,1.264,4.964,2.024,7.742a7.189,7.189,0,0,0-2.714.734Z" transform="translate(-187.339 -92.393)" fill="#f8d3cb" fill-rule="evenodd"/>
      <path id="Trazado_629" data-name="Trazado 629" d="M285.02,223.778a53.1,53.1,0,0,0-.89-6.585,4.792,4.792,0,0,1-.222-1.046,6.917,6.917,0,0,1-.156-1.557q-.29-.667-.6-1.4-.445-1.268-.8-2.38a6.83,6.83,0,0,0,2.514,1.268,11.022,11.022,0,0,0,4.071,1.112h.823a25.306,25.306,0,0,0,8.743-.667q3.337-.824,6.162-5.784,1.847-2.892,2.38-3.782l.133-.156a7.044,7.044,0,0,0-.289,1.846,10.48,10.48,0,0,0,.289,1.268c-.086,0-.131-.049-.133-.145a2.731,2.731,0,0,0,.133.745l.156.8v.311a4.117,4.117,0,0,0,1.713,2.514q0,.956.067,1.935a18.148,18.148,0,0,0,3.849,10.678q-2.8.133-7.63.734-6.006,1.113-7.853,1.268a31.742,31.742,0,0,1-12.458-.979" transform="translate(-156.726 -112.57)" fill="#e1b1a7" fill-rule="evenodd"/>
      <path id="Trazado_630" data-name="Trazado 630" d="M349.774,225.481a8.982,8.982,0,0,1-2.225,1.268,2.647,2.647,0,0,0-.289-.289h-3.493a18.151,18.151,0,0,1-3.849-10.678q-.067-.979-.067-1.935a4.117,4.117,0,0,1-1.713-2.514v-.311l-.156-.8a2.731,2.731,0,0,1-.133-.745c0,.1.047.145.133.145a17.465,17.465,0,0,0,2.091,3.337,11.945,11.945,0,0,1,2.514,3.4q1.713,5.873,4.227,7.274a28,28,0,0,1,2.959,1.846" transform="translate(-187.533 -116.275)" fill="#f0c6bd" fill-rule="evenodd"/>
      <path id="Trazado_631" data-name="Trazado 631" d="M275.762,233.846l-2.091,1.468q-2.069.89-2,2.158.312,1.113,2.447,1.935a9.1,9.1,0,0,0,2.536,1.023,31.734,31.734,0,0,0,12.458.979q1.847-.156,7.853-1.268,4.827-.6,7.63-.734h3.493a2.687,2.687,0,0,1,.289.289,10.194,10.194,0,0,1,2.981,3.4,33.41,33.41,0,0,1,2.08,3.982,16.333,16.333,0,0,0-4.527.022q-2.981.378-5.784.957-2.892.6-5.717.979-3.115.579-6.229,1.023-3.048.378-6.162.667a27.529,27.529,0,0,1-5.784.6,22.284,22.284,0,0,1-6.14-.89,6.23,6.23,0,0,1-3.337-1.557,6.644,6.644,0,0,1-1.869-2.736,21.127,21.127,0,0,1-.612-3.059q.378-4.054,1.88-5.906a30.857,30.857,0,0,1,4.382-3.27l2-1.112a4.79,4.79,0,0,0,.222,1.046" transform="translate(-148.358 -129.222)" fill="#f1f6ff" fill-rule="evenodd"/>
      <path id="Trazado_632" data-name="Trazado 632" d="M281.241,235.15a53.108,53.108,0,0,1,.89,6.585,9.1,9.1,0,0,1-2.536-1.023q-2.136-.823-2.447-1.935-.067-1.268,2-2.158Z" transform="translate(-153.837 -130.527)" fill="#c2a3e0" fill-rule="evenodd"/>
      <path id="Trazado_633" data-name="Trazado 633" d="M656.892,109.9l-10.233-1.079V98.7l10.233,1.079Zm-10.233,37.874,10.233,1.068v20.021q-3.537-3.737-8.231-9.5-1-1.223-2-2.492ZM308.206,533.967a82.881,82.881,0,0,1-11.056-1.913q.3-4.174.323-10.856,0-1.858-.011-3.915-.156-3.937-.156-7.052l4.738.979,8.676.133-.222,1.869a60.787,60.787,0,0,0-1.2,7.208q-.025.179-.044.356a55.191,55.191,0,0,0-1.046,13.192" transform="translate(-164.941 -54.786)" fill="#bb355a" fill-rule="evenodd"/>
      <path id="Trazado_634" data-name="Trazado 634" d="M403.925,289.6q2.434.106,4.716.323l-3.025,1.468q-.709-.779-1.446-1.49l-.245-.3" transform="translate(-224.21 -160.751)" fill="#ed9870" fill-rule="evenodd"/>
      <path id="Trazado_635" data-name="Trazado 635" d="M235.968,403.845a59.8,59.8,0,0,1-6.285-1.968q-1.777-.669-3.526-1.458-1.022-.456-2.036-.956a4.074,4.074,0,0,1-2.136-3.716,32.954,32.954,0,0,1,3.837-16.5q.651-1.227,1.413-2.414A94.869,94.869,0,0,0,236.579,358a37.421,37.421,0,0,0,1.869-20.689q-.823-4.071-1.935-8.009a33.343,33.343,0,0,0-2.291-5.495q-2.981-5.562-6.162-10.9-5.049-8.609-10.011-17.063-2.892-4.738-5.183-14.015-2.381-9.276,0-15.572a24.7,24.7,0,0,1,6.741-10.166q.166-.142.334-.278,4.189-3.343,11.457-3.215-.031.806.011,1.59a17.328,17.328,0,0,0,3.1,9.088,11.335,11.335,0,0,0,7.274,5.05,40.842,40.842,0,0,0,19.265.155,15.309,15.309,0,0,0,8.009-3.114,64.59,64.59,0,0,0-3.248,15.195,32.222,32.222,0,0,0,1.913,14.237q2.536,7.141,4.6,12.547a78.477,78.477,0,0,1,3.337,12.3A93.853,93.853,0,0,1,277,337.018a110.817,110.817,0,0,1-1.713,19.866,124.738,124.738,0,0,1-5.25,19.509,119.269,119.269,0,0,0-4.271,14.705q-.689,3.073-1.224,6.206a25.144,25.144,0,0,0-.323,2.959,26.747,26.747,0,0,0,1.057,8.609q-6.3-.89-12.68-1.557-2.011-.366-4.015-.756-3.228-.626-6.44-1.313l2.447-11.858-6.451,10.968q-1.09-.234-2.169-.512m107.182-77.594a19.147,19.147,0,0,1,3.593,7.808q-.7-.006-1.368-.022-7.523-.137-10.956-1.179a16.32,16.32,0,0,1-7.5-5.361q-4.872-6.608-8.876-12.013-7.786-10.389-17.53-21.023-10.478-17.286-16.707-25.428a47,47,0,0,0-5.628-6.362,15.426,15.426,0,0,1,8.9.4,26.1,26.1,0,0,1,10.378,6.285q.737.711,1.446,1.49.836.916,1.635,1.924,2.965,5.154,6.173,10.11a222.99,222.99,0,0,0,35.983,42.79q.232.291.456.579" transform="translate(-117.496 -140.207)" fill="#5653de" fill-rule="evenodd"/>
      <path id="Trazado_636" data-name="Trazado 636" d="M997.006,4.961l10.222,1.079,65.448,6.885-5.651,2.469L944.161,2.469,949.811,0Zm54.136,57.818L928.3,49.9l5.651-2.469L997,54.036l10.233,1.079,49.564,5.194Z" transform="translate(-515.278)" fill="#e9edf8" fill-rule="evenodd"/>
      <path id="Trazado_637" data-name="Trazado 637" d="M1240.15,92.519l20.8-15.75,5.65-2.469-20.8,15.75Z" transform="translate(-688.38 -41.242)" fill="#8f8dfd" fill-rule="evenodd"/>
      <path id="Trazado_638" data-name="Trazado 638" d="M1241.106,51.652l-20.823-20.133,5.651-2.469,20.822,20.133ZM1204.4,114.786V78.9l5.65-2.469v35.883Z" transform="translate(-668.536 -16.125)" fill="#a6ace0" fill-rule="evenodd"/>
      <path id="Trazado_639" data-name="Trazado 639" d="M1081.739,721.447a9.989,9.989,0,0,1-9.989-9.989V645.787a9.988,9.988,0,1,1,19.977,0v65.671a9.989,9.989,0,0,1-9.988,9.989" transform="translate(-594.905 -352.918)" fill="#bb355a"/>
    </g>
  </g>
</svg>
