<svg xmlns="http://www.w3.org/2000/svg" xmlns:xlink="http://www.w3.org/1999/xlink" width="213" height="179.817" viewBox="0 0 213 179.817">
  <defs>
    <clipPath id="clip-path">
      <rect id="Rectángulo_48" data-name="Rectángulo 48" width="213" height="179.817" fill="none"/>
    </clipPath>
  </defs>
  <g id="Grupo_166" data-name="Grupo 166" transform="translate(0 0.001)">
    <g id="Grupo_165" data-name="Grupo 165" transform="translate(0 -0.001)" clip-path="url(#clip-path)">
      <path id="Trazado_320" data-name="Trazado 320" d="M163.991,22.392a39.008,39.008,0,0,0-14.373-15.18l-3.393,3.3-1.944-5.9c.057.021.123.048.187.073a30.617,30.617,0,0,0-9.41-2.25c-1.178,15.358,4.535,30.379,14.405,42.1,6.117,7.266,17.563,15.413,27.382,10.434,0,0-2.212-13.149-12.853-32.58" transform="translate(-89.686 -1.618)" fill="#e5f0fe"/>
      <path id="Trazado_321" data-name="Trazado 321" d="M176.266,55.38s-23-18.864-40.906-52.946" transform="translate(-89.989 -1.618)" fill="#e5f0fe"/>
      <path id="Trazado_322" data-name="Trazado 322" d="M176.266,55.38c-2.157-1.791-4.208-3.706-6.228-5.649-.992-.99-2-1.965-2.965-2.984s-1.951-2.015-2.892-3.055-1.907-2.057-2.816-3.125l-1.382-1.586-.69-.794-.67-.81-2.678-3.245-2.593-3.313-.646-.831-.623-.847-1.243-1.7c-.825-1.134-1.672-2.252-2.451-3.419l-2.382-3.468c-.79-1.158-1.52-2.357-2.279-3.536-1.539-2.345-2.926-4.784-4.353-7.2-.726-1.2-1.36-2.452-2.03-3.683l-1.988-3.7L137.419,6.1c.693,1.217,1.35,2.456,2.1,3.64,1.456,2.394,2.865,4.815,4.429,7.141,3.006,4.727,6.281,9.278,9.671,13.734l2.577,3.317,2.662,3.249.666.812.686.8,1.374,1.589c.907,1.067,1.85,2.1,2.788,3.142s1.892,2.065,2.854,3.082,1.95,2.011,2.927,3.014c1.98,1.98,3.992,3.933,6.114,5.765" transform="translate(-89.989 -1.618)" fill="#fff"/>
      <path id="Trazado_323" data-name="Trazado 323" d="M179.474,39.346s-6.6-15.572-2.9-22.659" transform="translate(-116.638 -11.093)" fill="#e5f0fe"/>
      <path id="Trazado_324" data-name="Trazado 324" d="M179.22,39.346a54.066,54.066,0,0,1-3.556-11.141,30.766,30.766,0,0,1-.6-5.835,17.18,17.18,0,0,1,.28-2.925,9.311,9.311,0,0,1,.972-2.758,9.87,9.87,0,0,0-.81,2.786,17.18,17.18,0,0,0-.184,2.9,32.889,32.889,0,0,0,.671,5.772c.358,1.909.85,3.792,1.394,5.659q.406,1.4.871,2.786c.3.926.625,1.845.963,2.759" transform="translate(-116.384 -11.094)" fill="#fff"/>
      <path id="Trazado_325" data-name="Trazado 325" d="M166.62,87.819s-13.33-9.069-19-8.9" transform="translate(-98.139 -52.465)" fill="#e5f0fe"/>
      <path id="Trazado_326" data-name="Trazado 326" d="M166.62,87.8c-.753-.462-1.5-.927-2.263-1.375s-1.512-.908-2.276-1.349c-1.526-.883-3.057-1.758-4.623-2.565-1.554-.828-3.141-1.595-4.766-2.266a22.417,22.417,0,0,0-2.482-.885,10.1,10.1,0,0,0-2.591-.46,9.362,9.362,0,0,1,2.633.3,22.272,22.272,0,0,1,2.534.8,46.945,46.945,0,0,1,4.827,2.21c1.56.834,3.1,1.708,4.6,2.641s2.979,1.9,4.407,2.944" transform="translate(-98.139 -52.449)" fill="#fff"/>
      <path id="Trazado_327" data-name="Trazado 327" d="M219.957,84.331s-4.648-15.423-1.022-22.356" transform="translate(-144.631 -41.201)" fill="#e5f0fe"/>
      <path id="Trazado_328" data-name="Trazado 328" d="M219.669,84.331a53.648,53.648,0,0,1-1.463-5.512,55.667,55.667,0,0,1-.9-5.638,33.847,33.847,0,0,1-.114-5.714,13.663,13.663,0,0,1,1.454-5.493,11.353,11.353,0,0,0-.855,2.7,19.445,19.445,0,0,0-.342,2.81c-.038.944-.051,1.889-.017,2.834s.11,1.888.206,2.83c.178,1.884.474,3.757.819,5.621q.254,1.4.564,2.788c.2.929.416,1.852.647,2.773" transform="translate(-144.342 -41.201)" fill="#fff"/>
      <path id="Trazado_329" data-name="Trazado 329" d="M201.9,135.611s-8.86-3.953-17.251-1.86" transform="translate(-122.754 -88.513)" fill="#e5f0fe"/>
      <path id="Trazado_330" data-name="Trazado 330" d="M201.9,135.349c-.69-.252-1.384-.49-2.089-.692s-1.408-.406-2.118-.58a36.8,36.8,0,0,0-4.31-.8,28.35,28.35,0,0,0-4.37-.247l-1.1.036c-.365.022-.727.072-1.091.1l-.547.05c-.181.024-.361.06-.542.089q-.542.094-1.087.178a19.774,19.774,0,0,1,4.354-.715,25.611,25.611,0,0,1,4.421.173,32.086,32.086,0,0,1,4.333.882,26.449,26.449,0,0,1,4.143,1.52" transform="translate(-122.754 -88.251)" fill="#fff"/>
      <path id="Trazado_331" data-name="Trazado 331" d="M209.275,61.408c-.042-.079-.083-.155-.129-.233-.53-.936-1.093-1.857-1.681-2.759-.141-.223-.285-.442-.432-.66s-.3-.449-.454-.674a70.034,70.034,0,0,0-6.856-8.379q-1.191-1.251-2.406-2.427c-1.167-1.137-2.352-2.219-3.531-3.251-1.691-1.479-3.378-2.848-5.017-4.11-5.746-4.42-14.555-10.548-24.667-12.677-12.241-2.578-25.675,1.323-34.989,9.666a36.938,36.938,0,0,0-5.276,5.815c-.45.619-.889,1.257-1.307,1.906-1.01,1.538-1.953,3.132-2.876,4.688a.059.059,0,0,1-.01.02c-2.508,4.251-5.1,8.635-8.933,11.677-.345.276-.7.539-1.069.79a19.21,19.21,0,0,1-3.664,1.968,25.48,25.48,0,0,1-8.516,1.755c-.369.018-.747.03-1.126.035a49.812,49.812,0,0,1-9.995-.962c-2.063-.39-4.16-.86-6.188-1.315A76.514,76.514,0,0,0,65.25,59.956q-1.474-.042-2.945.051c-9.492.59-17.687,5.318-23.9,10.465-.456.379-.9.756-1.334,1.137-1.533,1.339-2.929,2.69-4.179,3.985q-.814.842-1.709,1.839c-6.02,6.725-14.163,18.527-13.115,32.352.514,6.829,3.227,13.665,8.231,20.69a75.613,75.613,0,0,0,6.026,7.37q1.317,1.438,2.769,2.893c3.141,3.152,6.447,6.147,9.851,9.03,3.559,3.019,7.224,5.91,10.921,8.728,3.458,2.634,6.94,5.2,10.382,7.744,8.251,6.085,16.784,12.38,26.589,16.088a61.176,61.176,0,0,0,9.806,2.776,88.837,88.837,0,0,0,22.939,1.224c1.357-.086,2.7-.2,4.025-.322,4.106-.389,8.036-.944,11.682-1.53q1.163-.185,2.293-.388a90.332,90.332,0,0,0,22.351-6.568c8.55-3.983,14.5-9.294,18.2-16.118,4.15-7.655,4.642-16.5,4.606-23.354-.005-1.267-.011-2.391,0-3.406,0-.223,0-.443.012-.653.122-6.123.974-8.019,5.667-13.167.435-.48.9-.986,1.407-1.525,2.177-2.331,4.535-4.99,6.825-7.947q.543-.693,1.079-1.417c.967-1.3,1.916-2.657,2.819-4.059,4.712-7.288,8.35-15.915,8.18-25.489q-.007-.377-.023-.751a.533.533,0,0,0,0-.077c-.033-.848-.1-1.689-.195-2.521a.083.083,0,0,0,0-.029,41.314,41.314,0,0,0-5.228-15.6M206.2,105.4c-.835,1.3-1.707,2.57-2.6,3.788q-.62.851-1.254,1.669c-2.32,3.006-4.715,5.714-6.926,8.077-.446.479-.865.931-1.259,1.359-4.977,5.436-5.847,7.332-5.967,13.751,0,.216-.007.443-.011.674-.009,1-.005,2.1,0,3.339.034,6.789-.447,15.547-4.542,23.1-6.261,11.546-19.1,18.7-40.3,22.43-.7.127-1.423.246-2.149.362-3.521.565-7.312,1.1-11.269,1.489-1.294.128-2.609.238-3.937.325a88.581,88.581,0,0,1-23.489-1.232,60.584,60.584,0,0,1-9.477-2.705c-9.737-3.682-18.238-9.95-26.46-16.016-3.6-2.653-7.237-5.334-10.842-8.094s-7.2-5.594-10.67-8.554c-3.309-2.811-6.522-5.733-9.579-8.8q-1.35-1.355-2.591-2.7a75.378,75.378,0,0,1-6.062-7.381c-5-6.981-7.708-13.764-8.219-20.528C17.587,96.322,25.389,84.8,31.317,78.1c.684-.777,1.346-1.487,1.963-2.129,1.178-1.222,2.484-2.489,3.912-3.755.755-.663,1.543-1.33,2.366-1.985a50.028,50.028,0,0,1,10.031-6.32A35.375,35.375,0,0,1,62.34,60.549a33.851,33.851,0,0,1,3.652-.025,80.483,80.483,0,0,1,14.047,2.29c2.032.454,4.133.927,6.2,1.319a53.234,53.234,0,0,0,8.463.96c.592.017,1.174.021,1.745.006a25.181,25.181,0,0,0,11.78-2.793,19.542,19.542,0,0,0,1.724-1.057c.442-.3.87-.621,1.279-.958,3.759-3.051,6.313-7.326,8.777-11.494.035-.062.074-.121.109-.183.886-1.5,1.794-3.037,2.757-4.518.455-.7.924-1.389,1.408-2.055a36.549,36.549,0,0,1,5.1-5.651c9.191-8.284,22.492-12.169,34.611-9.617,10,2.1,18.74,8.184,24.444,12.573,1.579,1.216,3.2,2.533,4.831,3.952,1.074.933,2.154,1.913,3.219,2.932.907.869,1.809,1.768,2.7,2.7a69.418,69.418,0,0,1,6.632,8.019q.659.933,1.276,1.9c.142.212.279.432.415.649q.615.986,1.187,1.991c.041.076.081.148.122.22a40.845,40.845,0,0,1,5.138,15.288v.007c.094.828.161,1.666.2,2.51,0,.025,0,.054.005.079.018.424.029.849.028,1.269.048,9.179-3.448,17.484-7.981,24.542" transform="translate(-11.947 -16.92)" fill="#c1ddfe"/>
      <path id="Trazado_332" data-name="Trazado 332" d="M216.44,76.889c-.036-.084-.07-.164-.109-.244-.023-.058-.048-.111-.074-.164-.061-.137-.122-.275-.186-.407s-.129-.273-.2-.409c-.478-1-1-1.989-1.561-2.955a55.306,55.306,0,0,0-5.481-7.778c-1.342-1.612-2.756-3.148-4.2-4.607q-1.7-1.706-3.431-3.264-.97-.874-1.938-1.7c-1.317-1.121-2.624-2.174-3.9-3.156-8.656-6.663-15.666-10.3-22.723-11.784a33.4,33.4,0,0,0-11.168-.41,36.457,36.457,0,0,0-21.455,10.713,31.885,31.885,0,0,0-2.77,3.3c-1.384,1.9-2.62,3.992-3.935,6.218a.06.06,0,0,0-.011.017c-.875,1.481-1.758,2.978-2.7,4.445a.056.056,0,0,0-.011.017,42.822,42.822,0,0,1-3.887,5.226,26.647,26.647,0,0,1-4.164,3.829q-.319.236-.651.463a24.2,24.2,0,0,1-4.314,2.343,28.731,28.731,0,0,1-7.5,1.967,40.681,40.681,0,0,1-8.144.173,61.539,61.539,0,0,1-6.945-.925c-1.07-.2-2.139-.425-3.2-.652s-2.114-.463-3.149-.7a89.447,89.447,0,0,0-11.542-2.079,32.729,32.729,0,0,0-4.959-.093c-.585.037-1.187.095-1.783.17a32.556,32.556,0,0,0-10.6,3.375,45.2,45.2,0,0,0-6.133,3.789,57.3,57.3,0,0,0-5.9,4.956c-.654.624-1.272,1.242-1.854,1.844-1.19,1.232-2.546,2.739-3.931,4.482-4.991,6.275-10.352,15.59-9.563,26.019.484,6.4,3.263,12.919,8.442,19.747a77.3,77.3,0,0,0,5.888,6.843q.643.668,1.312,1.341c2.583,2.592,5.295,5.083,8.086,7.5,7.2,6.232,14.954,11.946,22.515,17.523,7.989,5.895,16.253,11.988,25.439,15.463a55.392,55.392,0,0,0,6.906,2.1,67.134,67.134,0,0,0,10.76,1.6,102.753,102.753,0,0,0,16.592-.292q1.728-.159,3.519-.367c.625-.07,1.253-.148,1.887-.228,2.027-.26,4.1-.563,6.326-.92.361-.06.722-.116,1.078-.178a86.948,86.948,0,0,0,22.126-6.379c7.668-3.575,13.021-8.241,16.177-14.065,3.634-6.7,4.061-14.764,4.03-21.042-.007-1.047-.006-2.015,0-2.916,0-.267.007-.531.013-.788a43.342,43.342,0,0,1,.255-4.36,16.376,16.376,0,0,1,3.4-8.49,60.872,60.872,0,0,1,4.594-5.364c.038-.045.08-.09.119-.131a102.568,102.568,0,0,0,7.5-8.915q1.542-2.071,2.846-4.105c.249-.387.49-.777.728-1.166a47.694,47.694,0,0,0,4.932-10.582,35.015,35.015,0,0,0,1.39-6.446c.024-.2.048-.4.065-.605.011-.1.022-.209.031-.313a32.276,32.276,0,0,0,.1-4.142q-.059-1.457-.255-2.885c-.008-.075-.02-.149-.032-.227a.1.1,0,0,0,0-.032,34.97,34.97,0,0,0-2.695-9.211m2.02,8.437q.207,1.163.313,2.347c.05.527.087,1.06.109,1.592a31.561,31.561,0,0,1-.172,4.818,35.415,35.415,0,0,1-2.151,8.693,49.1,49.1,0,0,1-4.026,8.13q-.228.382-.478.767-1.382,2.208-3.062,4.478a102.421,102.421,0,0,1-7.541,8.978c-.006.005-.012.013-.018.018-1.572,1.683-2.858,3.125-3.911,4.438-2.9,3.618-4,6.276-4.407,10.415-.111,1.163-.168,2.446-.193,3.9,0,.26-.009.524-.014.8-.006.889-.007,1.843,0,2.868.032,6.212-.391,14.191-3.964,20.78-5.538,10.213-17.985,16.823-38.042,20.189-.314.054-.629.1-.948.155-2.226.36-4.292.658-6.312.917-.517.066-1.03.128-1.541.19q-1.772.212-3.489.368c-10.8,1.02-19.862.593-27.794-1.327a54.1,54.1,0,0,1-6.574-2.017c-9.118-3.448-17.349-9.519-25.311-15.391-7.582-5.588-15.347-11.317-22.556-17.562-2.757-2.388-5.433-4.851-7.984-7.412-.392-.394-.78-.786-1.158-1.179a77.529,77.529,0,0,1-5.807-6.7c-5.234-6.828-8.036-13.335-8.522-19.705-.762-10.066,4.319-19.1,9.166-25.283a61.807,61.807,0,0,1,4.18-4.8c.5-.52,1.032-1.057,1.591-1.592A57.392,57.392,0,0,1,53.73,82.2a45.078,45.078,0,0,1,6.311-3.917,32.161,32.161,0,0,1,10.365-3.287c.584-.076,1.172-.132,1.75-.167a32.177,32.177,0,0,1,5.038.1,90.8,90.8,0,0,1,11.318,2.056c.644.145,1.3.292,1.951.434,1.452.322,2.928.635,4.408.915,2.066.389,4.033.67,5.912.846a42.5,42.5,0,0,0,9.347-.085,28.2,28.2,0,0,0,9.684-2.971,23.309,23.309,0,0,0,2.374-1.432c.448-.308.877-.623,1.295-.954a27.8,27.8,0,0,0,4.085-3.966,64.978,64.978,0,0,0,6.206-9.244c1.3-2.2,2.533-4.292,3.906-6.179a31.259,31.259,0,0,1,2.464-2.978,35.91,35.91,0,0,1,21.39-10.817,32.9,32.9,0,0,1,10.986.4c6.977,1.47,13.915,5.072,22.505,11.683,1.257.968,2.546,2,3.84,3.1.626.536,1.259,1.085,1.884,1.65,1.139,1.019,2.271,2.09,3.382,3.205,1.292,1.3,2.556,2.656,3.766,4.072.915,1.068,1.8,2.172,2.643,3.31.217.288.427.581.638.873a49.448,49.448,0,0,1,2.72,4.233q.9,1.563,1.663,3.186c.07.146.138.3.2.444.132.284.256.565.377.85.114.269.227.534.334.8l.164.419a33.822,33.822,0,0,1,1.786,6.333,2.077,2.077,0,0,1,.036.208" transform="translate(-21.466 -26.41)" fill="#c1ddfe"/>
      <path id="Trazado_333" data-name="Trazado 333" d="M223.117,92.6c-.227-.816-.492-1.623-.789-2.424-.057-.153-.114-.305-.176-.461a36.447,36.447,0,0,0-1.966-4.21,54.737,54.737,0,0,0-9.015-11.873c-.426-.434-.854-.858-1.284-1.277-.546-.534-1.1-1.056-1.65-1.564q-.271-.251-.54-.491c-.208-.191-.418-.378-.628-.565q-.866-.769-1.732-1.5c-1.142-.963-2.281-1.872-3.39-2.729-8.056-6.2-14.468-9.558-20.787-10.89a28.634,28.634,0,0,0-9.568-.345A31.1,31.1,0,0,0,150.76,66.2c-.041.052-.081.1-.118.156-1.259,1.732-2.44,3.733-3.7,5.855-1.105,1.872-2.262,3.835-3.576,5.775a42.415,42.415,0,0,1-4.307,5.459c-.072.077-.144.154-.217.227a30.248,30.248,0,0,1-4.732,4.037c-.422.292-.855.57-1.293.837a31.845,31.845,0,0,1-12.632,4.276,45.429,45.429,0,0,1-9.079.2,66.522,66.522,0,0,1-7.512-1l-.218-.043c-2.15-.408-4.248-.878-6.276-1.333-2.573-.577-5.069-1.137-7.491-1.533-.674-.113-1.339-.214-2-.293a30.383,30.383,0,0,0-5.677-.24c-.487.031-.982.078-1.473.143a27.476,27.476,0,0,0-8.524,2.637q-.753.364-1.484.766a40.317,40.317,0,0,0-4.295,2.719,54.939,54.939,0,0,0-7.329,6.41c-.144.15-.289.3-.439.46a55.629,55.629,0,0,0-5.643,7.012c-3.568,5.284-6.632,12.068-6.082,19.339.449,5.947,3.319,12.144,8.728,18.808a80.184,80.184,0,0,0,5.465,6.031.869.869,0,0,0,.065.067c2.518,2.528,5.172,4.966,7.912,7.332,7.047,6.1,14.685,11.727,22.143,17.223,7.729,5.7,15.722,11.594,24.285,14.831q1.934.731,3.98,1.317a60.739,60.739,0,0,0,12.546,2.109,102.9,102.9,0,0,0,18.353-.585c.816-.088,1.64-.188,2.477-.295.307-.038.616-.079.926-.121,1.669-.223,3.4-.477,5.248-.775l.025-.005c8.88-1.428,16.167-3.467,21.921-6.151,6.692-3.118,11.317-7.107,13.979-12.015,3.111-5.742,3.48-13.026,3.45-18.734-.006-.9-.006-1.745,0-2.554,0-.282.006-.557.012-.828a47.655,47.655,0,0,1,.4-5.984c.815-5.692,3.118-9.415,9.255-15.981.44-.471.873-.944,1.3-1.407a92.194,92.194,0,0,0,6.544-8.031q1.855-2.574,3.293-5.056c.1-.182.211-.361.309-.542.268-.472.523-.937.764-1.4a37.418,37.418,0,0,0,3.362-8.815q.074-.306.137-.609c.032-.149.062-.3.09-.45a27.8,27.8,0,0,0,.51-6.492,27.438,27.438,0,0,0-1.032-6.346m.488,6.367a27.05,27.05,0,0,1-.544,6.575c-.032.167-.07.336-.1.5-.055.249-.116.5-.178.749a36.536,36.536,0,0,1-2.951,7.758q-.416.826-.882,1.662c-.123.219-.249.442-.375.662q-1.426,2.47-3.262,5.027v0a89.876,89.876,0,0,1-6,7.433c-.6.675-1.22,1.351-1.861,2.039-6.152,6.584-8.509,10.347-9.363,16a47.2,47.2,0,0,0-.439,6.375c-.007.268-.012.543-.013.825-.007.8-.006,1.634,0,2.518.027,5.643-.329,12.841-3.383,18.472-4.868,8.976-16.491,14.831-35.532,17.893-.028.006-.053.007-.081.013-1.713.276-3.316.515-4.871.726-.406.054-.807.108-1.207.158q-1.107.14-2.191.261c-12.605,1.432-22.691.935-31.255-1.564-1.248-.36-2.461-.764-3.648-1.214C106.967,188.639,99,182.768,91.3,177.084c-7.415-5.469-15.01-11.068-22.022-17.12-2.74-2.362-5.393-4.8-7.906-7.319a.645.645,0,0,1-.059-.057,80.316,80.316,0,0,1-5.409-5.955c-5.391-6.613-8.247-12.743-8.69-18.608-.525-6.918,2.3-13.409,5.693-18.55a53.9,53.9,0,0,1,5.633-7.116c.237-.253.465-.494.687-.726.518-.538,1.066-1.089,1.646-1.643l.009-.009c.152-.148.308-.3.468-.443a51.5,51.5,0,0,1,4.933-4.108,40.85,40.85,0,0,1,4.289-2.747q1.024-.567,2.091-1.067.906-.422,1.842-.785a25.442,25.442,0,0,1,6.027-1.571c.481-.063.965-.108,1.438-.136a30,30,0,0,1,5.761.256c.293.038.586.076.881.122v0c2.685.393,5.487,1.021,8.375,1.668,1.833.415,3.723.837,5.663,1.215.283.059.565.114.85.168q2.99.562,5.755.846a47.547,47.547,0,0,0,11.005-.043,31.881,31.881,0,0,0,14.035-5.117c.042-.027.083-.057.125-.084a31.185,31.185,0,0,0,5.327-4.645.205.205,0,0,0,.026-.031,44.63,44.63,0,0,0,4.358-5.652c1.194-1.8,2.261-3.608,3.285-5.343,1.187-2.009,2.311-3.914,3.492-5.564.056-.084.116-.163.173-.244A30.516,30.516,0,0,1,171.66,54.82a28.127,28.127,0,0,1,9.386.335c6.236,1.316,12.579,4.642,20.569,10.789,1.1.845,2.218,1.746,3.347,2.7.615.517,1.233,1.05,1.848,1.6q.355.311.7.634c.21.187.418.378.622.569.433.4.861.809,1.291,1.225q.8.773,1.577,1.582a53.516,53.516,0,0,1,8.768,11.635,35.088,35.088,0,0,1,1.945,4.217c.061.156.119.312.177.468.29.8.552,1.614.773,2.434a26.852,26.852,0,0,1,.939,5.967" transform="translate(-30.984 -35.921)" fill="#c1ddfe"/>
      <path id="Trazado_334" data-name="Trazado 334" d="M227.189,116.763a32.791,32.791,0,0,1-1.792,4.483c-.315.65-.652,1.3-1.016,1.967.14.113.285.23.429.343q.5-.9.939-1.794a34.351,34.351,0,0,0,1.709-4.083Zm-72.93-23.034c.2.039.407.073.608.112.621-.782,1.2-1.571,1.762-2.358l-.782.161c-.5.7-1.032,1.393-1.588,2.085m-7.912,7.447a33.311,33.311,0,0,1-4.88,2.77q-.915.43-1.864.8l.112.54a34.6,34.6,0,0,0,3.826-1.767,32.847,32.847,0,0,0,3.116-1.9,36.261,36.261,0,0,0,6.544-5.8l-.905.186a35.438,35.438,0,0,1-5.947,5.168m81.867,2.964c-.2-.81-.446-1.614-.728-2.411-.051-.143-.1-.289-.159-.431a30.735,30.735,0,0,0-1.288-2.964,45.647,45.647,0,0,0-7.322-10.3c-.161-.179-.326-.357-.491-.535-.341-.361-.682-.718-1.028-1.067-.416-.422-.835-.84-1.26-1.249l-.411-.4c-.915-.871-1.841-1.71-2.768-2.514-1.421-1.234-2.843-2.384-4.222-3.445-7.459-5.737-13.27-8.822-18.851-10a23.776,23.776,0,0,0-7.967-.28,26.208,26.208,0,0,0-17.679,10.139c-.786,1.083-1.572,2.341-2.386,3.7-.346.575-.7,1.17-1.056,1.778-.382.645-.775,1.311-1.187,1.991-1.061,1.771-2.227,3.634-3.566,5.488-.5.7-1.032,1.393-1.588,2.085q-.924,1.155-1.965,2.279a35.438,35.438,0,0,1-5.947,5.168,33.311,33.311,0,0,1-4.88,2.77q-.915.43-1.864.8a36.872,36.872,0,0,1-5.1,1.587,40.587,40.587,0,0,1-4.192.758,46.641,46.641,0,0,1-5.913.371,64.782,64.782,0,0,1-12.175-1.214c-1.652-.314-3.247-.654-4.795-1-.119-.027-.234-.051-.349-.078-.51-.114-1.016-.226-1.514-.338-2.561-.576-5.053-1.133-7.406-1.51a36.694,36.694,0,0,0-3.995-.452h-.007a20.678,20.678,0,0,0-2.409,0c-.379.023-.77.06-1.162.112q-.561.071-1.116.175a23.49,23.49,0,0,0-5.6,1.855c-.367.171-.728.351-1.088.539-.67.35-1.327.727-1.97,1.122-.253.155-.506.313-.751.473-1.164.755-2.273,1.568-3.317,2.4a53.453,53.453,0,0,0-4.947,4.538,50.263,50.263,0,0,0-6.448,8.176c-2.693,4.333-4.795,9.545-4.386,14.945.388,5.086,3.027,10.556,8.033,16.595q2.133,2.574,4.84,5.29c.313.312.626.627.943.938,2.369,2.322,4.861,4.577,7.44,6.776,6.718,5.744,14,11.115,21.117,16.364,7.466,5.506,15.191,11.2,23.14,14.208.337.128.674.252,1.017.372a53.734,53.734,0,0,0,14.375,2.766,102.289,102.289,0,0,0,19.4-.834l.253-.03c1.019-.13,2.053-.274,3.119-.427q1.028-.151,2.1-.32c.265-.044.535-.085.8-.129q12.587-2.024,20.617-5.769c5.741-2.674,9.706-6,11.852-9.954,2.593-4.78,2.892-11.286,2.867-16.422,0-.774,0-1.516,0-2.233,0-.263.006-.52.009-.773a44.5,44.5,0,0,1,.989-9.787,24.565,24.565,0,0,1,3.735-8.285A61.647,61.647,0,0,1,213.852,138a89.284,89.284,0,0,0,7.913-9.6,53.177,53.177,0,0,0,3.045-4.84q.5-.9.939-1.794a34.351,34.351,0,0,0,1.709-4.083c.144-.417.278-.832.395-1.243.11-.37.211-.734.3-1.1.008-.031.013-.061.022-.088a23.47,23.47,0,0,0,.691-6.591,22.808,22.808,0,0,0-.654-4.516m.111,4.54a23.073,23.073,0,0,1-.686,6.473.11.11,0,0,1-.009.027q-.107.438-.235.881-.1.349-.206.7a32.791,32.791,0,0,1-1.792,4.483c-.315.65-.652,1.3-1.016,1.967a51.881,51.881,0,0,1-3.021,4.813,88.661,88.661,0,0,1-7.906,9.6,63.636,63.636,0,0,0-6.229,7.539,25.123,25.123,0,0,0-3.8,8.24,44.57,44.57,0,0,0-1.07,10.283c0,.249-.006.5-.007.762-.008.7-.008,1.434,0,2.193.026,5.069-.269,11.488-2.8,16.16-4.054,7.478-14.844,12.676-32.077,15.445-.3.047-.587.1-.878.14-.605.1-1.2.185-1.78.272-1.147.167-2.255.322-3.345.463a.076.076,0,0,1-.029,0c-14.326,1.83-25.181,1.2-34.076-2-.229-.081-.454-.166-.68-.251-7.878-2.984-15.572-8.654-23.009-14.14-7.074-5.217-14.316-10.557-21-16.264-2.561-2.183-5.037-4.42-7.393-6.727q-.524-.517-1.044-1.034-2.7-2.7-4.81-5.253c-4.929-5.948-7.528-11.313-7.9-16.285-.405-5.346,1.722-10.523,4.427-14.815a49.734,49.734,0,0,1,6.255-7.891,52.443,52.443,0,0,1,4.679-4.315,37.008,37.008,0,0,1,6.055-4.057c.343-.18.687-.354,1.037-.521a22.73,22.73,0,0,1,5.617-1.877c.359-.07.716-.129,1.076-.174.378-.049.758-.083,1.127-.1a20.485,20.485,0,0,1,2.129-.015l0,0a36.255,36.255,0,0,1,4.36.483c2.279.378,4.69.915,7.172,1.474.226.049.452.1.678.153.123.026.249.055.376.083,1.805.4,3.67.807,5.618,1.177a69.052,69.052,0,0,0,9.861,1.18,49.591,49.591,0,0,0,8.4-.332,40.321,40.321,0,0,0,4.23-.766,36.893,36.893,0,0,0,5.1-1.577,34.6,34.6,0,0,0,3.826-1.767,32.847,32.847,0,0,0,3.116-1.9,36.261,36.261,0,0,0,6.544-5.8c.586-.651,1.14-1.313,1.668-1.981.621-.782,1.2-1.571,1.762-2.358,1.313-1.86,2.458-3.718,3.51-5.477.32-.537.631-1.069.938-1.585.25-.42.5-.837.741-1.245.911-1.536,1.79-2.967,2.665-4.166a25.64,25.64,0,0,1,17.307-9.92,23.3,23.3,0,0,1,7.787.273c5.494,1.159,11.239,4.209,18.626,9.9,1.473,1.132,2.995,2.371,4.512,3.7q1.205,1.056,2.4,2.188c.305.291.61.583.91.883q.688.675,1.358,1.372c.336.355.669.71,1,1.069a.526.526,0,0,1,.047.049,44.713,44.713,0,0,1,7.192,10.2q.649,1.313,1.16,2.662c.045.111.087.227.128.339a25.2,25.2,0,0,1,.76,2.478,22.033,22.033,0,0,1,.659,4.486" transform="translate(-40.501 -45.435)" fill="#c1ddfe"/>
      <path id="Trazado_335" data-name="Trazado 335" d="M28.1,74.1c9.093,9.29,16.22,22.142,27.082,28.776,12.423,7.583,22.742,1.519,35.159-2.563,10.886-3.576,30.72-3.754,46.611.661,7.613,2.115,14.324,5.286,18.708,9.643a20.594,20.594,0,0,1,2.02,2.315A52.469,52.469,0,0,1,164.41,125c.207.518.407,1.043.6,1.568a55.747,55.747,0,0,1,1.663,5.416c2.828,11.128,2.454,23.187,0,35.093-1.665,8.062-7.618,23.318-19.372,32.6-13.746,10.859-28.047,11.075-36.435,1.45-7.715-8.853-22.671-4.174-34.518-4.835-7.761-.433-15.628.033-23.237-1.559C41.442,192.3,31.225,185.157,22.831,176.7,9.9,163.668,6.381,136.823,2.207,118.663c-3.265-14.212-4-33.614,5.578-45.806,0,0,8.506-10.822,20.313,1.246" transform="translate(0 -45.47)" fill="#daebfe"/>
      <path id="Trazado_336" data-name="Trazado 336" d="M199.913,157.426c-14.507-.422-30.193-5.229-44.064-2.144-15.86,3.531-19.456,16.4-26.273,29.3C123.6,195.892,107.793,211.4,91.6,220.167c-7.758,4.2-15.609,6.85-22.508,6.745a22.974,22.974,0,0,1-3.417-.3,58.567,58.567,0,0,1-14.762-4.483c-.567-.255-1.135-.523-1.694-.8a62.252,62.252,0,0,1-5.533-3.064c-10.9-6.753-19.938-16.736-27.19-28.207-4.909-7.77-11.945-24.644-9.692-41.214,2.635-19.379,13.962-30.633,28.161-29.4,13.06,1.138,21.456-14.211,31.49-22.86,6.574-5.666,12.535-12.135,19.884-16.751,11.267-7.077,25.011-9.254,38.313-8.958,20.486.455,44.118,19.3,61.543,30.665,13.636,8.892,29.264,23.915,31.009,41.139,0,0,1.549,15.289-17.291,14.738" transform="translate(-4.236 -47.107)" fill="#c1ddfe"/>
      <path id="Trazado_337" data-name="Trazado 337" d="M516.138,29.508l-4.308,2.224,4.417-4.836A85.79,85.79,0,0,0,514.67,0c-4.033,4.2-8.8,7.938-13.229,11.926l3.261,4.4-5.146-2.43-1.275,1a41.274,41.274,0,0,0-8.363,11.058A80.768,80.768,0,0,0,485.13,38.47l1.813,4.316-2.534-2.4-.138,1.137a188.139,188.139,0,0,0-4.391,23.3c-.3,2.236-1.214,6.89,1.1,7.18,1.017.128,3.2-1.328,4.1-1.751a80.681,80.681,0,0,0,15.852-9.6l-4.723-1.036,6.6-1.253a46.212,46.212,0,0,0,8.557-12.262,71.027,71.027,0,0,0,4.772-16.584" transform="translate(-318.743 0)" fill="#e5f0fe"/>
      <path id="Trazado_338" data-name="Trazado 338" d="M488.066,82.815l-.284-.177C488,82.292,509.5,47.7,517.1,20.813l.323.091c-7.614,26.935-29.138,61.564-29.354,61.911" transform="translate(-324.283 -13.836)" fill="#fff"/>
      <rect id="Rectángulo_42" data-name="Rectángulo 42" width="0.335" height="10.957" transform="translate(180.626 20.933) rotate(-15.261)" fill="#fff"/>
      <rect id="Rectángulo_43" data-name="Rectángulo 43" width="10.852" height="0.335" transform="translate(180.468 38.829) rotate(-10.37)" fill="#fff"/>
      <rect id="Rectángulo_44" data-name="Rectángulo 44" width="0.335" height="12.337" transform="translate(173.638 35.644) rotate(-8.382)" fill="#fff"/>
      <rect id="Rectángulo_45" data-name="Rectángulo 45" width="12.958" height="0.335" transform="translate(171.014 56.361) rotate(-24.464)" fill="#fff"/>
      <path id="Trazado_339" data-name="Trazado 339" d="M312.929,315.965a34.1,34.1,0,1,1,6.685-.66,34.35,34.35,0,0,1-6.685.66m.14-67.351a33.336,33.336,0,1,0,32.624,26.856,33.356,33.356,0,0,0-32.624-26.856" transform="translate(-185.475 -164.835)" fill="#fff"/>
      <path id="Trazado_340" data-name="Trazado 340" d="M322.915,320.906a29.021,29.021,0,1,1,5.68-.561,29.175,29.175,0,0,1-5.68.561m.05-57.315A28.319,28.319,0,1,0,350.733,286.4a28.344,28.344,0,0,0-27.768-22.811" transform="translate(-195.431 -174.792)" fill="#fff"/>
      <path id="Trazado_341" data-name="Trazado 341" d="M365.387,277.345a1.358,1.358,0,1,1-1.6-1.068,1.358,1.358,0,0,1,1.6,1.068" transform="translate(-241.126 -183.654)" fill="#fff"/>
      <path id="Trazado_342" data-name="Trazado 342" d="M393.058,416.853a1.358,1.358,0,1,1-1.6-1.068,1.358,1.358,0,0,1,1.6,1.068" transform="translate(-259.522 -276.401)" fill="#fff"/>
      <path id="Trazado_343" data-name="Trazado 343" d="M307.874,359.867a1.358,1.358,0,1,1-1.068,1.6,1.358,1.358,0,0,1,1.068-1.6" transform="translate(-203.951 -239.226)" fill="#fff"/>
      <path id="Trazado_344" data-name="Trazado 344" d="M447.382,332.2a1.358,1.358,0,1,1-1.068,1.6,1.358,1.358,0,0,1,1.068-1.6" transform="translate(-296.697 -220.83)" fill="#fff"/>
      <path id="Trazado_345" data-name="Trazado 345" d="M384,312.806H384L372.789,314.8l-3.739-18.851a.308.308,0,0,1,.6-.12l3.621,18.259L383.89,312.2a.308.308,0,0,1,.114.6" transform="translate(-245.345 -196.505)" fill="#fff"/>
      <path id="Trazado_346" data-name="Trazado 346" d="M499.227,243.823l-6.112-4.07,6.581-3.258Zm-5.443-4.028,5.146,3.427.394-6.169Z" transform="translate(-327.828 -157.224)" fill="#fff"/>
      <path id="Trazado_347" data-name="Trazado 347" d="M590.232,281.1l.469-7.328,6.112,4.07Zm.766-6.727-.395,6.169,5.54-2.743Z" transform="translate(-392.393 -182.009)" fill="#fff"/>
      <path id="Trazado_348" data-name="Trazado 348" d="M90.795,421.808l.469-7.328,6.112,4.07Zm.766-6.727-.395,6.169,5.54-2.742Z" transform="translate(-60.362 -275.551)" fill="#fff"/>
      <path id="Trazado_349" data-name="Trazado 349" d="M54.99,284.774,50.1,279.3l7.188-1.5Zm-4.257-5.265,4.12,4.609,1.932-5.873Z" transform="translate(-33.305 -184.684)" fill="#fff"/>
      <path id="Trazado_350" data-name="Trazado 350" d="M305.467,82.439H218.2a9.225,9.225,0,0,1-9.224-9.224V23.173a9.224,9.224,0,0,1,9.224-9.224h87.264a9.224,9.224,0,0,1,9.224,9.224V73.215a9.224,9.224,0,0,1-9.224,9.224" transform="translate(-138.932 -9.273)" fill="#fff"/>
      <path id="Trazado_351" data-name="Trazado 351" d="M314.7,22.969a9.222,9.222,0,0,0-9.219-9.02H218.214a9.222,9.222,0,0,0-9.219,9.02Z" transform="translate(-138.942 -9.273)" fill="#545ed6"/>
      <path id="Trazado_352" data-name="Trazado 352" d="M500.925,25.633a1.457,1.457,0,1,1-1.457-1.457,1.458,1.458,0,0,1,1.457,1.457" transform="translate(-331.083 -16.072)" fill="#fff"/>
      <path id="Trazado_353" data-name="Trazado 353" d="M484.621,25.633a1.457,1.457,0,1,1-1.457-1.457,1.458,1.458,0,0,1,1.457,1.457" transform="translate(-320.244 -16.072)" fill="#fff"/>
      <path id="Trazado_354" data-name="Trazado 354" d="M351.944,46.52h.3v1.625a.8.8,0,0,1-.054.3.594.594,0,0,1-.15.22.658.658,0,0,1-.23.134.9.9,0,0,1-.291.045,1.012,1.012,0,0,1-.292-.04.624.624,0,0,1-.229-.123.557.557,0,0,1-.15-.208.747.747,0,0,1-.054-.294h.3a.5.5,0,0,0,.032.188.336.336,0,0,0,.219.205.559.559,0,0,0,.17.024.46.46,0,0,0,.167-.029.369.369,0,0,0,.134-.086.388.388,0,0,0,.088-.141.564.564,0,0,0,.032-.2Z" transform="translate(-233.216 -30.927)" fill="#545ed6"/>
      <path id="Trazado_355" data-name="Trazado 355" d="M357.476,49.92a.338.338,0,0,1-.025-.079c-.006-.032-.011-.066-.016-.1a.747.747,0,0,1-.092.081.658.658,0,0,1-.112.068.623.623,0,0,1-.132.046.672.672,0,0,1-.149.016.682.682,0,0,1-.237-.039.553.553,0,0,1-.181-.107.472.472,0,0,1-.116-.16.479.479,0,0,1-.041-.2.526.526,0,0,1,.053-.242.485.485,0,0,1,.154-.176.732.732,0,0,1,.242-.107,1.279,1.279,0,0,1,.316-.036h.29v-.134a.328.328,0,0,0-.092-.244.368.368,0,0,0-.27-.09.481.481,0,0,0-.15.022.383.383,0,0,0-.116.059.271.271,0,0,0-.075.086.206.206,0,0,0-.027.1h-.293a.384.384,0,0,1,.048-.181.536.536,0,0,1,.136-.161.714.714,0,0,1,.214-.117.819.819,0,0,1,.28-.045.878.878,0,0,1,.256.036.545.545,0,0,1,.2.107.5.5,0,0,1,.131.179.619.619,0,0,1,.047.251v.793a1.167,1.167,0,0,0,.015.182.7.7,0,0,0,.045.165v.025Zm-.483-.222a.493.493,0,0,0,.148-.022.556.556,0,0,0,.126-.058.465.465,0,0,0,.1-.081.388.388,0,0,0,.066-.095v-.35h-.243a.779.779,0,0,0-.386.078.254.254,0,0,0-.136.236.318.318,0,0,0,.021.115.24.24,0,0,0,.062.092.311.311,0,0,0,.1.061.4.4,0,0,0,.141.023" transform="translate(-236.922 -32.032)" fill="#545ed6"/>
      <path id="Trazado_356" data-name="Trazado 356" d="M362.033,48.216l.009.214a.662.662,0,0,1,.221-.181.638.638,0,0,1,.29-.065.7.7,0,0,1,.225.034.416.416,0,0,1,.172.109.5.5,0,0,1,.11.192.917.917,0,0,1,.039.285v1.117h-.291V48.8a.568.568,0,0,0-.022-.169.282.282,0,0,0-.065-.114.262.262,0,0,0-.107-.064.481.481,0,0,0-.147-.02.421.421,0,0,0-.249.075.512.512,0,0,0-.167.2v1.215h-.291v-1.7Z" transform="translate(-240.5 -32.033)" fill="#545ed6"/>
      <path id="Trazado_357" data-name="Trazado 357" d="M368.109,49.815a.539.539,0,0,1-.2.147.749.749,0,0,1-.3.053.7.7,0,0,1-.229-.036.438.438,0,0,1-.177-.112.506.506,0,0,1-.114-.2.933.933,0,0,1-.04-.291v-1.1h.291v1.1a.563.563,0,0,0,.027.19.31.31,0,0,0,.071.118.24.24,0,0,0,.1.06.41.41,0,0,0,.116.016.532.532,0,0,0,.286-.068.4.4,0,0,0,.158-.181v-1.24h.292v1.7h-.277Z" transform="translate(-244.019 -32.096)" fill="#545ed6"/>
      <path id="Trazado_358" data-name="Trazado 358" d="M373.331,49.92a.336.336,0,0,1-.025-.079c-.006-.032-.011-.066-.016-.1a.747.747,0,0,1-.092.081.66.66,0,0,1-.112.068.624.624,0,0,1-.132.046.672.672,0,0,1-.15.016.682.682,0,0,1-.237-.039.552.552,0,0,1-.181-.107.467.467,0,0,1-.116-.16.48.48,0,0,1-.041-.2.526.526,0,0,1,.053-.242.485.485,0,0,1,.154-.176.732.732,0,0,1,.242-.107,1.279,1.279,0,0,1,.316-.036h.29v-.134a.328.328,0,0,0-.091-.244.368.368,0,0,0-.27-.09.481.481,0,0,0-.15.022.383.383,0,0,0-.116.059.267.267,0,0,0-.075.086.206.206,0,0,0-.027.1h-.293a.384.384,0,0,1,.048-.181.536.536,0,0,1,.136-.161.714.714,0,0,1,.214-.117.819.819,0,0,1,.28-.045.878.878,0,0,1,.256.036.55.55,0,0,1,.2.107.5.5,0,0,1,.131.179.618.618,0,0,1,.047.251v.793a1.163,1.163,0,0,0,.015.182.7.7,0,0,0,.045.165v.025Zm-.483-.222a.493.493,0,0,0,.148-.022.557.557,0,0,0,.126-.058.465.465,0,0,0,.1-.081.388.388,0,0,0,.066-.095v-.35h-.243a.778.778,0,0,0-.386.078.254.254,0,0,0-.136.236.318.318,0,0,0,.021.115.24.24,0,0,0,.062.092.311.311,0,0,0,.1.061.4.4,0,0,0,.141.023" transform="translate(-247.463 -32.032)" fill="#545ed6"/>
      <path id="Trazado_359" data-name="Trazado 359" d="M378.436,48.477a.654.654,0,0,0-.07-.009l-.073,0a.422.422,0,0,0-.246.066.408.408,0,0,0-.143.178v1.21h-.291v-1.7h.284l0,.2a.512.512,0,0,1,.166-.167.446.446,0,0,1,.241-.062.468.468,0,0,1,.072.007.233.233,0,0,1,.057.015Z" transform="translate(-251.041 -32.033)" fill="#545ed6"/>
      <path id="Trazado_360" data-name="Trazado 360" d="M381.144,49.556l.4-1.278h.312l-.685,1.968a1.384,1.384,0,0,1-.061.137.609.609,0,0,1-.1.138.529.529,0,0,1-.146.107.436.436,0,0,1-.2.044l-.041,0-.047-.007-.044-.008-.032-.007V50.41l.017,0h.062a.528.528,0,0,0,.131-.014.283.283,0,0,0,.1-.046.3.3,0,0,0,.076-.086.685.685,0,0,0,.059-.132l.065-.173-.608-1.686h.318Z" transform="translate(-252.894 -32.095)" fill="#545ed6"/>
      <path id="Trazado_361" data-name="Trazado 361" d="M338.081,49.087a.167.167,0,0,1-.118-.049L336.8,47.874a.168.168,0,0,1,0-.237l1.179-1.18a.168.168,0,0,1,.237.237l-1.061,1.061L338.2,48.8a.167.167,0,0,1-.119.286" transform="translate(-223.875 -30.853)" fill="#545ed6"/>
      <path id="Trazado_362" data-name="Trazado 362" d="M393.091,49.087a.167.167,0,0,1-.119-.286l1.046-1.046-1.061-1.061a.168.168,0,1,1,.237-.237l1.179,1.18a.168.168,0,0,1,0,.237l-1.164,1.164a.168.168,0,0,1-.119.049" transform="translate(-261.21 -30.853)" fill="#545ed6"/>
      <path id="Trazado_363" data-name="Trazado 363" d="M315.773,64.11h-101a.134.134,0,0,1,0-.268h101a.134.134,0,0,1,0,.268" transform="translate(-142.692 -42.443)" fill="#c0d6fd"/>
      <path id="Trazado_364" data-name="Trazado 364" d="M229.286,82.5H214.769a.134.134,0,0,1-.134-.134V72a.134.134,0,0,1,.134-.134h14.517a.135.135,0,0,1,.134.134V82.367a.135.135,0,0,1-.134.134M214.9,82.233h14.249v-10.1H214.9Z" transform="translate(-142.692 -47.776)" fill="#c0d6fd"/>
      <path id="Trazado_365" data-name="Trazado 365" d="M272.594,82.5H258.078a.134.134,0,0,1-.134-.134V72a.134.134,0,0,1,.134-.134h14.516a.135.135,0,0,1,.134.134V82.367a.135.135,0,0,1-.134.134m-14.382-.268H272.46v-10.1H258.212Z" transform="translate(-171.484 -47.776)" fill="#c0d6fd"/>
      <path id="Trazado_366" data-name="Trazado 366" d="M315.9,82.5H301.386a.135.135,0,0,1-.134-.134V72a.135.135,0,0,1,.134-.134H315.9a.134.134,0,0,1,.134.134V82.367a.134.134,0,0,1-.134.134m-14.383-.268h14.249v-10.1H301.521Z" transform="translate(-200.276 -47.776)" fill="#c0d6fd"/>
      <path id="Trazado_367" data-name="Trazado 367" d="M359.212,82.5H344.7a.135.135,0,0,1-.134-.134V72a.135.135,0,0,1,.134-.134h14.516a.135.135,0,0,1,.134.134V82.367a.135.135,0,0,1-.134.134m-14.382-.268h14.248v-10.1H344.829Z" transform="translate(-229.068 -47.776)" fill="#c0d6fd"/>
      <path id="Trazado_368" data-name="Trazado 368" d="M402.491,82.5H387.974a.134.134,0,0,1-.134-.134V72a.134.134,0,0,1,.134-.134h14.517a.135.135,0,0,1,.134.134V82.367a.135.135,0,0,1-.134.134m-14.382-.268h14.248v-10.1H388.108Z" transform="translate(-257.84 -47.776)" fill="#c0d6fd"/>
      <path id="Trazado_369" data-name="Trazado 369" d="M445.8,82.5H431.282a.135.135,0,0,1-.134-.134V72a.135.135,0,0,1,.134-.134H445.8a.135.135,0,0,1,.134.134V82.367a.135.135,0,0,1-.134.134m-14.383-.268h14.249v-10.1H431.417Z" transform="translate(-286.632 -47.776)" fill="#c0d6fd"/>
      <path id="Trazado_370" data-name="Trazado 370" d="M489.109,82.5H474.592a.135.135,0,0,1-.134-.134V72a.135.135,0,0,1,.134-.134h14.517a.134.134,0,0,1,.134.134V82.367a.134.134,0,0,1-.134.134m-14.382-.268h14.248v-10.1H474.726Z" transform="translate(-315.425 -47.776)" fill="#c0d6fd"/>
      <path id="Trazado_371" data-name="Trazado 371" d="M229.286,143.815H214.769a.134.134,0,0,1-.134-.134V133.312a.134.134,0,0,1,.134-.134h14.517a.134.134,0,0,1,.134.134v10.369a.134.134,0,0,1-.134.134m-14.383-.268h14.249v-10.1H214.9Z" transform="translate(-142.692 -88.538)" fill="#c0d6fd"/>
      <path id="Trazado_372" data-name="Trazado 372" d="M272.594,143.815H258.078a.134.134,0,0,1-.134-.134V133.312a.134.134,0,0,1,.134-.134h14.516a.135.135,0,0,1,.134.134v10.369a.134.134,0,0,1-.134.134m-14.382-.268H272.46v-10.1H258.212Z" transform="translate(-171.484 -88.538)" fill="#c0d6fd"/>
      <path id="Trazado_373" data-name="Trazado 373" d="M315.9,143.815H301.386a.134.134,0,0,1-.134-.134V133.312a.134.134,0,0,1,.134-.134H315.9a.134.134,0,0,1,.134.134v10.369a.134.134,0,0,1-.134.134m-14.383-.268h14.249v-10.1H301.521Z" transform="translate(-200.276 -88.538)" fill="#c0d6fd"/>
      <path id="Trazado_374" data-name="Trazado 374" d="M359.212,143.815H344.7a.134.134,0,0,1-.134-.134V133.312a.135.135,0,0,1,.134-.134h14.516a.135.135,0,0,1,.134.134v10.369a.134.134,0,0,1-.134.134m-14.382-.268h14.248v-10.1H344.829Z" transform="translate(-229.068 -88.538)" fill="#c0d6fd"/>
      <path id="Trazado_375" data-name="Trazado 375" d="M402.491,143.815H387.974a.134.134,0,0,1-.134-.134V133.312a.134.134,0,0,1,.134-.134h14.517a.134.134,0,0,1,.134.134v10.369a.134.134,0,0,1-.134.134m-14.382-.268h14.248v-10.1H388.108Z" transform="translate(-257.84 -88.538)" fill="#c0d6fd"/>
      <path id="Trazado_376" data-name="Trazado 376" d="M445.8,143.815H431.282a.134.134,0,0,1-.134-.134V133.312a.135.135,0,0,1,.134-.134H445.8a.135.135,0,0,1,.134.134v10.369a.134.134,0,0,1-.134.134m-14.383-.268h14.249v-10.1H431.417Z" transform="translate(-286.632 -88.538)" fill="#c0d6fd"/>
      <path id="Trazado_377" data-name="Trazado 377" d="M489.109,143.815H474.592a.134.134,0,0,1-.134-.134V133.312a.134.134,0,0,1,.134-.134h14.517a.134.134,0,0,1,.134.134v10.369a.134.134,0,0,1-.134.134m-14.382-.268h14.248v-10.1H474.726Z" transform="translate(-315.425 -88.538)" fill="#c0d6fd"/>
      <path id="Trazado_378" data-name="Trazado 378" d="M229.286,175.059H214.769a.134.134,0,0,1-.134-.134V164.556a.134.134,0,0,1,.134-.134h14.517a.134.134,0,0,1,.134.134v10.369a.134.134,0,0,1-.134.134m-14.383-.268h14.249v-10.1H214.9Z" transform="translate(-142.692 -109.309)" fill="#c0d6fd"/>
      <path id="Trazado_379" data-name="Trazado 379" d="M272.594,175.059H258.078a.134.134,0,0,1-.134-.134V164.556a.134.134,0,0,1,.134-.134h14.516a.135.135,0,0,1,.134.134v10.369a.134.134,0,0,1-.134.134m-14.382-.268H272.46v-10.1H258.212Z" transform="translate(-171.484 -109.309)" fill="#c0d6fd"/>
      <path id="Trazado_380" data-name="Trazado 380" d="M315.9,175.059H301.386a.134.134,0,0,1-.134-.134V164.556a.134.134,0,0,1,.134-.134H315.9a.134.134,0,0,1,.134.134v10.369a.134.134,0,0,1-.134.134m-14.383-.268h14.249v-10.1H301.521Z" transform="translate(-200.276 -109.309)" fill="#c0d6fd"/>
      <path id="Trazado_381" data-name="Trazado 381" d="M359.212,175.059H344.7a.134.134,0,0,1-.134-.134V164.556a.135.135,0,0,1,.134-.134h14.516a.135.135,0,0,1,.134.134v10.369a.134.134,0,0,1-.134.134m-14.382-.268h14.248v-10.1H344.829Z" transform="translate(-229.068 -109.309)" fill="#c0d6fd"/>
      <path id="Trazado_382" data-name="Trazado 382" d="M402.491,175.059H387.974a.134.134,0,0,1-.134-.134V164.556a.134.134,0,0,1,.134-.134h14.517a.134.134,0,0,1,.134.134v10.369a.134.134,0,0,1-.134.134m-14.382-.268h14.248v-10.1H388.108Z" transform="translate(-257.84 -109.309)" fill="#c0d6fd"/>
      <path id="Trazado_383" data-name="Trazado 383" d="M445.8,175.059H431.282a.134.134,0,0,1-.134-.134V164.556a.135.135,0,0,1,.134-.134H445.8a.135.135,0,0,1,.134.134v10.369a.134.134,0,0,1-.134.134m-14.383-.268h14.249v-10.1H431.417Z" transform="translate(-286.632 -109.309)" fill="#c0d6fd"/>
      <path id="Trazado_384" data-name="Trazado 384" d="M489.109,175.059H474.592a.134.134,0,0,1-.134-.134V164.556a.134.134,0,0,1,.134-.134h14.517a.134.134,0,0,1,.134.134v10.369a.134.134,0,0,1-.134.134m-14.382-.268h14.248v-10.1H474.726Z" transform="translate(-315.425 -109.309)" fill="#c0d6fd"/>
      <path id="Trazado_385" data-name="Trazado 385" d="M229.286,113.315H214.769a.134.134,0,0,1-.134-.134V102.812a.134.134,0,0,1,.134-.134h14.517a.134.134,0,0,1,.134.134v10.369a.134.134,0,0,1-.134.134m-14.383-.268h14.249v-10.1H214.9Z" transform="translate(-142.692 -68.261)" fill="#c0d6fd"/>
      <path id="Trazado_386" data-name="Trazado 386" d="M272.594,113.315H258.078a.134.134,0,0,1-.134-.134V102.812a.134.134,0,0,1,.134-.134h14.516a.135.135,0,0,1,.134.134v10.369a.134.134,0,0,1-.134.134m-14.382-.268H272.46v-10.1H258.212Z" transform="translate(-171.484 -68.261)" fill="#c0d6fd"/>
      <path id="Trazado_387" data-name="Trazado 387" d="M359.212,113.315H344.7a.134.134,0,0,1-.134-.134V102.812a.135.135,0,0,1,.134-.134h14.516a.135.135,0,0,1,.134.134v10.369a.134.134,0,0,1-.134.134m-14.382-.268h14.248v-10.1H344.829Z" transform="translate(-229.068 -68.261)" fill="#c0d6fd"/>
      <path id="Trazado_388" data-name="Trazado 388" d="M402.491,113.315H387.974a.134.134,0,0,1-.134-.134V102.812a.134.134,0,0,1,.134-.134h14.517a.134.134,0,0,1,.134.134v10.369a.134.134,0,0,1-.134.134m-14.382-.268h14.248v-10.1H388.108Z" transform="translate(-257.84 -68.261)" fill="#c0d6fd"/>
      <path id="Trazado_389" data-name="Trazado 389" d="M445.8,113.315H431.282a.134.134,0,0,1-.134-.134V102.812a.135.135,0,0,1,.134-.134H445.8a.135.135,0,0,1,.134.134v10.369a.134.134,0,0,1-.134.134m-14.383-.268h14.249v-10.1H431.417Z" transform="translate(-286.632 -68.261)" fill="#c0d6fd"/>
      <path id="Trazado_390" data-name="Trazado 390" d="M489.109,113.315H474.592a.134.134,0,0,1-.134-.134V102.812a.134.134,0,0,1,.134-.134h14.517a.134.134,0,0,1,.134.134v10.369a.134.134,0,0,1-.134.134m-14.382-.268h14.248v-10.1H474.726Z" transform="translate(-315.425 -68.261)" fill="#c0d6fd"/>
      <rect id="Rectángulo_46" data-name="Rectángulo 46" width="16.339" height="11.671" transform="translate(100.354 33.79)" fill="#ff7867"/>
      <path id="Trazado_391" data-name="Trazado 391" d="M220.724,76.87h.173a.494.494,0,0,0,.165-.025.324.324,0,0,0,.118-.069.285.285,0,0,0,.071-.1.352.352,0,0,0,.023-.13.348.348,0,0,0-.082-.25.336.336,0,0,0-.252-.086.412.412,0,0,0-.141.023.311.311,0,0,0-.109.066.3.3,0,0,0-.071.1.358.358,0,0,0-.024.136h-.243a.5.5,0,0,1,.043-.206.488.488,0,0,1,.119-.167.565.565,0,0,1,.186-.113.666.666,0,0,1,.241-.042.768.768,0,0,1,.236.035.514.514,0,0,1,.182.1.468.468,0,0,1,.118.169.619.619,0,0,1,.042.235.372.372,0,0,1-.018.113.439.439,0,0,1-.054.116.492.492,0,0,1-.229.187.511.511,0,0,1,.158.08.423.423,0,0,1,.1.11.429.429,0,0,1,.054.127.6.6,0,0,1,.016.131.576.576,0,0,1-.046.238.485.485,0,0,1-.127.176.571.571,0,0,1-.192.108.743.743,0,0,1-.24.037.78.78,0,0,1-.235-.035.58.58,0,0,1-.193-.1.492.492,0,0,1-.131-.167.516.516,0,0,1-.048-.227h.244a.354.354,0,0,0,.025.136.291.291,0,0,0,.072.105.32.32,0,0,0,.114.067.448.448,0,0,0,.151.024.494.494,0,0,0,.151-.022.294.294,0,0,0,.114-.066.289.289,0,0,0,.072-.112.454.454,0,0,0,.024-.157.38.38,0,0,0-.029-.155.275.275,0,0,0-.082-.108.357.357,0,0,0-.128-.064.621.621,0,0,0-.168-.021h-.173Z" transform="translate(-146.481 -50.529)" fill="#c1ddfe"/>
      <path id="Trazado_392" data-name="Trazado 392" d="M225.872,77.978h-.244V76.359l-.49.18v-.221l.7-.261h.038Z" transform="translate(-149.674 -50.563)" fill="#c1ddfe"/>
      <path id="Trazado_393" data-name="Trazado 393" d="M265.629,77.978h-.244V76.359l-.49.18v-.221l.7-.261h.038Z" transform="translate(-176.105 -50.563)" fill="#545ed6"/>
      <path id="Trazado_394" data-name="Trazado 394" d="M307.8,77.944h-1.253v-.175l.626-.7q.086-.1.143-.169a1.009,1.009,0,0,0,.091-.134.5.5,0,0,0,.047-.114.452.452,0,0,0,.013-.108.385.385,0,0,0-.022-.133.317.317,0,0,0-.064-.109.306.306,0,0,0-.1-.073.349.349,0,0,0-.142-.027.452.452,0,0,0-.169.028.325.325,0,0,0-.119.08.332.332,0,0,0-.071.123.5.5,0,0,0-.023.158h-.243a.656.656,0,0,1,.04-.229.533.533,0,0,1,.119-.188.565.565,0,0,1,.2-.127.731.731,0,0,1,.27-.047.745.745,0,0,1,.242.037.505.505,0,0,1,.181.1.447.447,0,0,1,.114.162.54.54,0,0,1,.039.209.521.521,0,0,1-.029.169.97.97,0,0,1-.077.17,1.447,1.447,0,0,1-.114.168c-.044.056-.09.11-.138.163l-.513.557h.96Z" transform="translate(-203.773 -50.529)" fill="#545ed6"/>
      <path id="Trazado_395" data-name="Trazado 395" d="M348.9,76.87h.174a.5.5,0,0,0,.165-.025.324.324,0,0,0,.118-.069.279.279,0,0,0,.071-.1.352.352,0,0,0,.024-.13.348.348,0,0,0-.083-.25.337.337,0,0,0-.252-.086.409.409,0,0,0-.141.023.311.311,0,0,0-.109.066.293.293,0,0,0-.07.1.359.359,0,0,0-.025.136h-.243a.5.5,0,0,1,.042-.206.489.489,0,0,1,.119-.167.562.562,0,0,1,.186-.113.665.665,0,0,1,.241-.042.77.77,0,0,1,.237.035.514.514,0,0,1,.182.1.464.464,0,0,1,.117.169.607.607,0,0,1,.042.235.382.382,0,0,1-.018.113.46.46,0,0,1-.054.116.5.5,0,0,1-.093.106.49.49,0,0,1-.136.082.52.52,0,0,1,.158.08.424.424,0,0,1,.1.11.412.412,0,0,1,.054.127.559.559,0,0,1,.016.131.582.582,0,0,1-.046.238.481.481,0,0,1-.127.176.566.566,0,0,1-.192.108.747.747,0,0,1-.24.037.779.779,0,0,1-.235-.035.574.574,0,0,1-.193-.1.488.488,0,0,1-.131-.167.521.521,0,0,1-.048-.227h.244a.36.36,0,0,0,.025.136.3.3,0,0,0,.072.105.326.326,0,0,0,.114.067.451.451,0,0,0,.151.024.5.5,0,0,0,.152-.022.3.3,0,0,0,.114-.066.292.292,0,0,0,.072-.112.446.446,0,0,0,.025-.157.386.386,0,0,0-.029-.155.282.282,0,0,0-.082-.108.351.351,0,0,0-.128-.064.619.619,0,0,0-.168-.021H348.9Z" transform="translate(-231.693 -50.529)" fill="#545ed6"/>
      <path id="Trazado_396" data-name="Trazado 396" d="M394.729,77.354h.265v.2h-.265V78h-.244v-.444h-.87v-.143l.856-1.325h.259Zm-.839,0h.595v-.938l-.029.053Z" transform="translate(-261.68 -50.581)" fill="#545ed6"/>
      <path id="Trazado_397" data-name="Trazado 397" d="M436.2,77.038l.1-.954h.98v.225H436.5l-.058.522a.68.68,0,0,1,.132-.057.607.607,0,0,1,.187-.026.591.591,0,0,1,.237.046.491.491,0,0,1,.179.128.579.579,0,0,1,.113.2.9.9,0,0,1,0,.518.57.57,0,0,1-.112.2.523.523,0,0,1-.189.132.684.684,0,0,1-.267.048.741.741,0,0,1-.219-.032.546.546,0,0,1-.183-.1.523.523,0,0,1-.131-.165.634.634,0,0,1-.063-.234h.23a.385.385,0,0,0,.117.248.363.363,0,0,0,.249.083.37.37,0,0,0,.154-.031.308.308,0,0,0,.114-.087.385.385,0,0,0,.071-.137.627.627,0,0,0,.024-.18.537.537,0,0,0-.025-.167.392.392,0,0,0-.074-.135.34.34,0,0,0-.12-.09.39.39,0,0,0-.163-.033.575.575,0,0,0-.107.009.369.369,0,0,0-.08.024.3.3,0,0,0-.065.039l-.063.05Z" transform="translate(-289.945 -50.581)" fill="#545ed6"/>
      <path id="Trazado_398" data-name="Trazado 398" d="M480.9,76.081v.206h-.022a.752.752,0,0,0-.3.053.573.573,0,0,0-.2.14.6.6,0,0,0-.119.2.906.906,0,0,0-.051.234.466.466,0,0,1,.184-.132.623.623,0,0,1,.228-.041.517.517,0,0,1,.246.055.505.505,0,0,1,.17.143.607.607,0,0,1,.1.2.863.863,0,0,1-.006.486.6.6,0,0,1-.113.206.535.535,0,0,1-.185.138.607.607,0,0,1-.256.051.547.547,0,0,1-.271-.064.594.594,0,0,1-.192-.169.732.732,0,0,1-.115-.236.925.925,0,0,1-.039-.264v-.114a2.15,2.15,0,0,1,.017-.267,1.284,1.284,0,0,1,.057-.255,1.01,1.01,0,0,1,.108-.226.707.707,0,0,1,.17-.181.777.777,0,0,1,.242-.12,1.1,1.1,0,0,1,.323-.044Zm-.319.861a.379.379,0,0,0-.123.02.4.4,0,0,0-.108.056.416.416,0,0,0-.087.083.369.369,0,0,0-.057.1v.09a.748.748,0,0,0,.031.227.507.507,0,0,0,.083.164.35.35,0,0,0,.119.1.3.3,0,0,0,.139.034.337.337,0,0,0,.15-.032.316.316,0,0,0,.111-.091.422.422,0,0,0,.069-.138.659.659,0,0,0,0-.341.441.441,0,0,0-.065-.14.332.332,0,0,0-.109-.1.309.309,0,0,0-.154-.037" transform="translate(-319.086 -50.579)" fill="#545ed6"/>
      <path id="Trazado_399" data-name="Trazado 399" d="M221.56,107.516l-.792,1.775h-.255l.789-1.712h-1.035v-.2h1.292Z" transform="translate(-146.437 -71.387)" fill="#545ed6"/>
      <path id="Trazado_400" data-name="Trazado 400" d="M265.839,107.826a.447.447,0,0,1-.075.255.515.515,0,0,1-.2.175.593.593,0,0,1,.133.079.522.522,0,0,1,.1.107.469.469,0,0,1,.066.131.486.486,0,0,1,.023.151.553.553,0,0,1-.047.232.478.478,0,0,1-.129.17.571.571,0,0,1-.193.1.836.836,0,0,1-.48,0,.559.559,0,0,1-.193-.1.481.481,0,0,1-.128-.17.547.547,0,0,1-.047-.232.491.491,0,0,1,.187-.39.572.572,0,0,1,.132-.079.5.5,0,0,1-.2-.175.447.447,0,0,1-.074-.253.557.557,0,0,1,.042-.223.468.468,0,0,1,.117-.165.518.518,0,0,1,.179-.1.691.691,0,0,1,.226-.036.684.684,0,0,1,.225.036.527.527,0,0,1,.179.1.461.461,0,0,1,.117.165.557.557,0,0,1,.042.223m-.2.892a.394.394,0,0,0-.027-.147.326.326,0,0,0-.192-.189.43.43,0,0,0-.3,0,.326.326,0,0,0-.114.074.332.332,0,0,0-.073.115.443.443,0,0,0,0,.294.3.3,0,0,0,.072.11.313.313,0,0,0,.115.069.5.5,0,0,0,.3,0,.3.3,0,0,0,.188-.178.4.4,0,0,0,.025-.147m-.045-.888a.365.365,0,0,0-.023-.131.3.3,0,0,0-.066-.1.306.306,0,0,0-.1-.069.328.328,0,0,0-.13-.025.355.355,0,0,0-.13.023.294.294,0,0,0-.1.066.284.284,0,0,0-.066.1.385.385,0,0,0-.023.137.37.37,0,0,0,.023.134.287.287,0,0,0,.065.1.279.279,0,0,0,.1.065.38.38,0,0,0,.263,0,.279.279,0,0,0,.1-.065.287.287,0,0,0,.065-.1.37.37,0,0,0,.023-.134" transform="translate(-175.954 -71.335)" fill="#545ed6"/>
      <path id="Trazado_401" data-name="Trazado 401" d="M306.833,109.035a.847.847,0,0,0,.324-.053.5.5,0,0,0,.306-.345,1.118,1.118,0,0,0,.035-.238.6.6,0,0,1-.182.146.5.5,0,0,1-.232.055.493.493,0,0,1-.415-.2.634.634,0,0,1-.1-.2.87.87,0,0,1,.006-.488.62.62,0,0,1,.112-.211.52.52,0,0,1,.185-.142.594.594,0,0,1,.256-.052.552.552,0,0,1,.28.066.56.56,0,0,1,.189.175.761.761,0,0,1,.108.248,1.183,1.183,0,0,1,.035.284v.088q0,.125-.013.253a1.375,1.375,0,0,1-.047.248.963.963,0,0,1-.1.225.651.651,0,0,1-.163.183.793.793,0,0,1-.246.123,1.161,1.161,0,0,1-.343.045h-.024v-.205Zm.291-.637a.367.367,0,0,0,.119-.02.4.4,0,0,0,.107-.055.474.474,0,0,0,.087-.083.422.422,0,0,0,.062-.1v-.1a.79.79,0,0,0-.03-.231.535.535,0,0,0-.081-.169.348.348,0,0,0-.117-.1.287.287,0,0,0-.138-.036.316.316,0,0,0-.262.128.439.439,0,0,0-.069.141.636.636,0,0,0-.023.177.666.666,0,0,0,.021.166.465.465,0,0,0,.064.144.333.333,0,0,0,.108.1.3.3,0,0,0,.153.038" transform="translate(-203.791 -71.335)" fill="#fff"/>
      <path id="Trazado_402" data-name="Trazado 402" d="M349.541,109.273H349.3v-1.619l-.49.18v-.221l.7-.261h.038Z" transform="translate(-231.891 -71.369)" fill="#545ed6"/>
      <path id="Trazado_403" data-name="Trazado 403" d="M354.3,108.424a1.582,1.582,0,0,1-.042.4.7.7,0,0,1-.12.26.44.44,0,0,1-.189.142.744.744,0,0,1-.5,0,.443.443,0,0,1-.19-.142.708.708,0,0,1-.122-.26,1.529,1.529,0,0,1-.044-.4v-.292a1.543,1.543,0,0,1,.043-.394.681.681,0,0,1,.121-.256.44.44,0,0,1,.19-.139.694.694,0,0,1,.249-.042.706.706,0,0,1,.251.042.437.437,0,0,1,.19.139.666.666,0,0,1,.121.256,1.563,1.563,0,0,1,.042.394Zm-.243-.332a1.386,1.386,0,0,0-.023-.274.528.528,0,0,0-.069-.183.274.274,0,0,0-.114-.1.4.4,0,0,0-.31,0,.269.269,0,0,0-.113.1.542.542,0,0,0-.069.183,1.334,1.334,0,0,0-.024.274v.37a1.361,1.361,0,0,0,.024.275.557.557,0,0,0,.07.188.29.29,0,0,0,.114.108.37.37,0,0,0,.311,0,.282.282,0,0,0,.112-.108.558.558,0,0,0,.068-.188,1.446,1.446,0,0,0,.022-.275Z" transform="translate(-234.743 -71.335)" fill="#545ed6"/>
      <path id="Trazado_404" data-name="Trazado 404" d="M394.807,109.273h-.244v-1.619l-.49.18v-.221l.7-.261h.038Z" transform="translate(-261.985 -71.369)" fill="#545ed6"/>
      <path id="Trazado_405" data-name="Trazado 405" d="M399.312,109.273h-.244v-1.619l-.49.18v-.221l.7-.261h.038Z" transform="translate(-264.98 -71.369)" fill="#545ed6"/>
      <path id="Trazado_406" data-name="Trazado 406" d="M436.927,109.273h-.244v-1.619l-.49.18v-.221l.7-.261h.038Z" transform="translate(-289.986 -71.369)" fill="#545ed6"/>
      <path id="Trazado_407" data-name="Trazado 407" d="M441.685,109.239h-1.253v-.175l.626-.7q.086-.1.143-.169a1.04,1.04,0,0,0,.091-.135.5.5,0,0,0,.047-.114.451.451,0,0,0,.013-.108.386.386,0,0,0-.022-.133.317.317,0,0,0-.064-.109.3.3,0,0,0-.1-.073.349.349,0,0,0-.142-.027.445.445,0,0,0-.169.029.32.32,0,0,0-.119.08.332.332,0,0,0-.071.123.5.5,0,0,0-.023.158H440.4a.656.656,0,0,1,.04-.229.533.533,0,0,1,.119-.188.559.559,0,0,1,.2-.126.725.725,0,0,1,.271-.047.745.745,0,0,1,.242.037.506.506,0,0,1,.181.1.448.448,0,0,1,.114.162.541.541,0,0,1,.039.209.521.521,0,0,1-.029.169.969.969,0,0,1-.077.17,1.448,1.448,0,0,1-.114.168c-.044.056-.09.11-.138.163l-.513.557h.96Z" transform="translate(-292.78 -71.335)" fill="#545ed6"/>
      <path id="Trazado_408" data-name="Trazado 408" d="M480.852,109.273h-.244v-1.619l-.489.18v-.221l.7-.261h.038Z" transform="translate(-319.188 -71.369)" fill="#545ed6"/>
      <path id="Trazado_409" data-name="Trazado 409" d="M484.714,108.165h.174a.5.5,0,0,0,.165-.025.323.323,0,0,0,.118-.069.28.28,0,0,0,.071-.1.353.353,0,0,0,.024-.13.345.345,0,0,0-.083-.25.336.336,0,0,0-.252-.086.41.41,0,0,0-.141.023.311.311,0,0,0-.109.066.293.293,0,0,0-.07.1.359.359,0,0,0-.025.136h-.243a.5.5,0,0,1,.042-.206.492.492,0,0,1,.119-.167.562.562,0,0,1,.186-.113.666.666,0,0,1,.241-.042.769.769,0,0,1,.236.035.512.512,0,0,1,.182.1.464.464,0,0,1,.117.169.607.607,0,0,1,.042.235.382.382,0,0,1-.018.113.455.455,0,0,1-.054.116.5.5,0,0,1-.093.106.49.49,0,0,1-.136.082.52.52,0,0,1,.158.08.423.423,0,0,1,.1.11.412.412,0,0,1,.054.127.561.561,0,0,1,.016.131.582.582,0,0,1-.046.238.482.482,0,0,1-.127.176.566.566,0,0,1-.192.108.746.746,0,0,1-.24.037.779.779,0,0,1-.235-.035.575.575,0,0,1-.193-.1.488.488,0,0,1-.131-.167.521.521,0,0,1-.048-.227h.244a.363.363,0,0,0,.025.136.3.3,0,0,0,.072.1.326.326,0,0,0,.114.067.451.451,0,0,0,.151.024.5.5,0,0,0,.151-.022.3.3,0,0,0,.114-.066.293.293,0,0,0,.072-.112.446.446,0,0,0,.025-.157.386.386,0,0,0-.028-.155.282.282,0,0,0-.082-.108.351.351,0,0,0-.128-.064.619.619,0,0,0-.168-.021h-.174Z" transform="translate(-321.985 -71.335)" fill="#545ed6"/>
      <path id="Trazado_410" data-name="Trazado 410" d="M221.367,140.067h-.244v-1.619l-.49.18v-.221l.7-.262h.038Z" transform="translate(-146.679 -91.841)" fill="#545ed6"/>
      <path id="Trazado_411" data-name="Trazado 411" d="M225.794,139.444h.265v.2h-.265v.444h-.244v-.444h-.87V139.5l.856-1.325h.259Zm-.839,0h.595v-.938l-.029.053Z" transform="translate(-149.369 -91.859)" fill="#545ed6"/>
      <path id="Trazado_412" data-name="Trazado 412" d="M265.629,140.067h-.244v-1.619l-.49.18v-.221l.7-.262h.038Z" transform="translate(-176.105 -91.841)" fill="#545ed6"/>
      <path id="Trazado_413" data-name="Trazado 413" d="M269.405,139.128l.1-.954h.979v.225h-.773l-.058.522a.668.668,0,0,1,.132-.057.609.609,0,0,1,.187-.026.593.593,0,0,1,.237.046.489.489,0,0,1,.179.128.578.578,0,0,1,.113.2.9.9,0,0,1,0,.518.561.561,0,0,1-.112.2.518.518,0,0,1-.188.133.686.686,0,0,1-.267.048.743.743,0,0,1-.219-.032.541.541,0,0,1-.183-.1.519.519,0,0,1-.131-.165.635.635,0,0,1-.063-.234h.23a.386.386,0,0,0,.117.248.363.363,0,0,0,.249.083.37.37,0,0,0,.154-.031.31.31,0,0,0,.114-.087.385.385,0,0,0,.071-.137.616.616,0,0,0,.024-.18.547.547,0,0,0-.025-.167.4.4,0,0,0-.074-.135.344.344,0,0,0-.12-.09.388.388,0,0,0-.163-.033.569.569,0,0,0-.106.009.379.379,0,0,0-.08.024.3.3,0,0,0-.065.039l-.062.05Z" transform="translate(-179.058 -91.859)" fill="#545ed6"/>
      <path id="Trazado_414" data-name="Trazado 414" d="M307.549,140.067H307.3v-1.619l-.49.18v-.221l.7-.262h.038Z" transform="translate(-203.974 -91.841)" fill="#545ed6"/>
      <path id="Trazado_415" data-name="Trazado 415" d="M312.1,138.17v.206h-.022a.75.75,0,0,0-.3.053.572.572,0,0,0-.2.14.609.609,0,0,0-.119.2.891.891,0,0,0-.051.234.465.465,0,0,1,.184-.132.624.624,0,0,1,.228-.042.517.517,0,0,1,.246.055.505.505,0,0,1,.17.143.607.607,0,0,1,.1.2.837.837,0,0,1,.032.231.849.849,0,0,1-.038.255.609.609,0,0,1-.113.206.532.532,0,0,1-.185.138.607.607,0,0,1-.256.051.545.545,0,0,1-.27-.064.6.6,0,0,1-.193-.169.736.736,0,0,1-.115-.236.938.938,0,0,1-.039-.264v-.114a2.164,2.164,0,0,1,.017-.267,1.286,1.286,0,0,1,.057-.255,1.008,1.008,0,0,1,.108-.226.707.707,0,0,1,.17-.181.78.78,0,0,1,.242-.12,1.1,1.1,0,0,1,.323-.044Zm-.319.861a.389.389,0,0,0-.124.02.409.409,0,0,0-.108.056.425.425,0,0,0-.087.083.37.37,0,0,0-.057.1v.089a.749.749,0,0,0,.031.227.509.509,0,0,0,.083.164.348.348,0,0,0,.119.1.3.3,0,0,0,.139.034.338.338,0,0,0,.15-.032.318.318,0,0,0,.111-.091.423.423,0,0,0,.069-.138.658.658,0,0,0,0-.341.433.433,0,0,0-.065-.14.332.332,0,0,0-.109-.1.309.309,0,0,0-.153-.037" transform="translate(-206.866 -91.857)" fill="#545ed6"/>
      <path id="Trazado_416" data-name="Trazado 416" d="M349.541,140.067H349.3v-1.619l-.49.18v-.221l.7-.262h.038Z" transform="translate(-231.891 -91.841)" fill="#545ed6"/>
      <path id="Trazado_417" data-name="Trazado 417" d="M354.24,138.311l-.792,1.775h-.255l.789-1.712h-1.034v-.2h1.292Z" transform="translate(-234.644 -91.859)" fill="#545ed6"/>
      <path id="Trazado_418" data-name="Trazado 418" d="M394.807,140.067h-.244v-1.619l-.49.18v-.221l.7-.262h.038Z" transform="translate(-261.985 -91.841)" fill="#545ed6"/>
      <path id="Trazado_419" data-name="Trazado 419" d="M399.521,138.621a.445.445,0,0,1-.075.255.512.512,0,0,1-.2.175.59.59,0,0,1,.133.079.524.524,0,0,1,.1.107.479.479,0,0,1,.066.131.494.494,0,0,1,.023.151.547.547,0,0,1-.047.232.478.478,0,0,1-.129.17.566.566,0,0,1-.193.1.789.789,0,0,1-.24.035.8.8,0,0,1-.241-.035.557.557,0,0,1-.193-.1.481.481,0,0,1-.128-.17.548.548,0,0,1-.047-.232.491.491,0,0,1,.187-.39.567.567,0,0,1,.133-.079.5.5,0,0,1-.2-.175.451.451,0,0,1-.073-.253.557.557,0,0,1,.042-.223.473.473,0,0,1,.117-.165.512.512,0,0,1,.179-.1.69.69,0,0,1,.226-.036.682.682,0,0,1,.225.036.524.524,0,0,1,.179.1.467.467,0,0,1,.118.165.558.558,0,0,1,.042.223m-.2.891a.389.389,0,0,0-.027-.147.329.329,0,0,0-.191-.189.435.435,0,0,0-.3,0,.318.318,0,0,0-.187.189.438.438,0,0,0,0,.294.3.3,0,0,0,.072.11.312.312,0,0,0,.115.069.464.464,0,0,0,.153.024.458.458,0,0,0,.151-.024.3.3,0,0,0,.188-.178.4.4,0,0,0,.026-.147m-.045-.887a.364.364,0,0,0-.023-.131.3.3,0,0,0-.167-.173.33.33,0,0,0-.13-.025.355.355,0,0,0-.13.023.286.286,0,0,0-.167.17.384.384,0,0,0-.023.137.371.371,0,0,0,.023.134.292.292,0,0,0,.065.1.278.278,0,0,0,.1.065.38.38,0,0,0,.263,0,.282.282,0,0,0,.1-.065.3.3,0,0,0,.065-.1.37.37,0,0,0,.023-.134" transform="translate(-264.828 -91.807)" fill="#545ed6"/>
      <path id="Trazado_420" data-name="Trazado 420" d="M436.927,140.067h-.244v-1.619l-.49.18v-.221l.7-.262h.038Z" transform="translate(-289.986 -91.841)" fill="#545ed6"/>
      <path id="Trazado_421" data-name="Trazado 421" d="M440.717,139.83a.847.847,0,0,0,.324-.053.5.5,0,0,0,.306-.345,1.1,1.1,0,0,0,.035-.238.6.6,0,0,1-.182.146.5.5,0,0,1-.232.055.493.493,0,0,1-.415-.2.635.635,0,0,1-.1-.2.87.87,0,0,1,.006-.488.623.623,0,0,1,.112-.211.52.52,0,0,1,.185-.142.594.594,0,0,1,.256-.052.552.552,0,0,1,.28.066.56.56,0,0,1,.189.175.762.762,0,0,1,.108.248,1.181,1.181,0,0,1,.035.284v.088q0,.125-.013.253a1.373,1.373,0,0,1-.047.248.963.963,0,0,1-.1.225.651.651,0,0,1-.163.183.789.789,0,0,1-.246.123,1.16,1.16,0,0,1-.343.045h-.024v-.205Zm.291-.637a.37.37,0,0,0,.12-.02.4.4,0,0,0,.106-.055.466.466,0,0,0,.087-.083.414.414,0,0,0,.062-.1v-.1a.79.79,0,0,0-.03-.231.535.535,0,0,0-.081-.169.348.348,0,0,0-.117-.1.287.287,0,0,0-.138-.036.322.322,0,0,0-.151.034.326.326,0,0,0-.111.094.44.44,0,0,0-.069.141.636.636,0,0,0-.023.177.666.666,0,0,0,.021.166.465.465,0,0,0,.064.144.329.329,0,0,0,.108.1.3.3,0,0,0,.153.038" transform="translate(-292.799 -91.807)" fill="#545ed6"/>
      <path id="Trazado_422" data-name="Trazado 422" d="M481.105,140.034h-1.253v-.175l.626-.7q.086-.1.143-.169a1.008,1.008,0,0,0,.091-.134.5.5,0,0,0,.047-.114.452.452,0,0,0,.013-.108.385.385,0,0,0-.022-.133.314.314,0,0,0-.064-.109.308.308,0,0,0-.1-.073.354.354,0,0,0-.142-.027.452.452,0,0,0-.169.029.325.325,0,0,0-.119.08.332.332,0,0,0-.071.123.5.5,0,0,0-.023.158h-.243a.655.655,0,0,1,.04-.229.539.539,0,0,1,.119-.188.565.565,0,0,1,.2-.127.732.732,0,0,1,.271-.047.745.745,0,0,1,.242.037.506.506,0,0,1,.181.1.447.447,0,0,1,.114.162.538.538,0,0,1,.039.209.521.521,0,0,1-.029.169.972.972,0,0,1-.077.17,1.447,1.447,0,0,1-.114.168c-.044.056-.09.11-.138.163l-.513.557h.96Z" transform="translate(-318.987 -91.807)" fill="#545ed6"/>
      <path id="Trazado_423" data-name="Trazado 423" d="M485.614,139.219a1.58,1.58,0,0,1-.042.4.7.7,0,0,1-.12.26.443.443,0,0,1-.189.142.744.744,0,0,1-.5,0,.446.446,0,0,1-.19-.142.709.709,0,0,1-.122-.26,1.532,1.532,0,0,1-.044-.4v-.292a1.544,1.544,0,0,1,.043-.394.68.68,0,0,1,.121-.256.438.438,0,0,1,.19-.139.694.694,0,0,1,.249-.042.706.706,0,0,1,.251.042.437.437,0,0,1,.19.139.67.67,0,0,1,.121.256,1.561,1.561,0,0,1,.042.394Zm-.243-.332a1.389,1.389,0,0,0-.023-.274.529.529,0,0,0-.069-.183.277.277,0,0,0-.114-.1.4.4,0,0,0-.31,0,.269.269,0,0,0-.113.1.542.542,0,0,0-.069.183,1.332,1.332,0,0,0-.024.274v.37a1.36,1.36,0,0,0,.024.276.557.557,0,0,0,.07.188.29.29,0,0,0,.114.108.369.369,0,0,0,.31,0,.281.281,0,0,0,.112-.108.558.558,0,0,0,.068-.188,1.45,1.45,0,0,0,.022-.276Z" transform="translate(-322.039 -91.807)" fill="#545ed6"/>
      <path id="Trazado_424" data-name="Trazado 424" d="M221.62,172.085h-1.253v-.175l.626-.7q.086-.1.144-.169a1.1,1.1,0,0,0,.091-.135.475.475,0,0,0,.047-.114.452.452,0,0,0,.013-.108.387.387,0,0,0-.022-.133.317.317,0,0,0-.064-.109.3.3,0,0,0-.1-.073.35.35,0,0,0-.142-.027.445.445,0,0,0-.169.029.32.32,0,0,0-.119.08.327.327,0,0,0-.071.123.494.494,0,0,0-.024.158h-.243a.648.648,0,0,1,.04-.229.529.529,0,0,1,.119-.188.558.558,0,0,1,.2-.126.723.723,0,0,1,.27-.047.745.745,0,0,1,.242.037.506.506,0,0,1,.181.1.447.447,0,0,1,.114.162.534.534,0,0,1,.04.209.521.521,0,0,1-.029.169.968.968,0,0,1-.077.17,1.4,1.4,0,0,1-.114.168q-.066.083-.138.163l-.514.557h.96Z" transform="translate(-146.479 -113.115)" fill="#545ed6"/>
      <path id="Trazado_425" data-name="Trazado 425" d="M225.872,172.119h-.244V170.5l-.49.18v-.221l.7-.261h.038Z" transform="translate(-149.674 -113.149)" fill="#545ed6"/>
      <path id="Trazado_426" data-name="Trazado 426" d="M265.882,172.085H264.63v-.175l.626-.7q.086-.1.144-.169a1.106,1.106,0,0,0,.09-.135.489.489,0,0,0,.047-.114.453.453,0,0,0,.013-.108.387.387,0,0,0-.022-.133.312.312,0,0,0-.064-.109.3.3,0,0,0-.1-.073.35.35,0,0,0-.142-.027.445.445,0,0,0-.169.029.32.32,0,0,0-.119.08.327.327,0,0,0-.071.123.494.494,0,0,0-.024.158h-.243a.648.648,0,0,1,.04-.229.529.529,0,0,1,.119-.188.558.558,0,0,1,.2-.126.723.723,0,0,1,.271-.047.745.745,0,0,1,.242.037.506.506,0,0,1,.181.1.447.447,0,0,1,.114.162.535.535,0,0,1,.04.209.521.521,0,0,1-.029.169.967.967,0,0,1-.077.17,1.445,1.445,0,0,1-.114.168q-.066.083-.138.163l-.513.557h.96Z" transform="translate(-175.904 -113.115)" fill="#545ed6"/>
      <path id="Trazado_427" data-name="Trazado 427" d="M270.387,172.085h-1.253v-.175l.626-.7q.086-.1.144-.169a1.106,1.106,0,0,0,.09-.135.477.477,0,0,0,.047-.114.453.453,0,0,0,.013-.108.387.387,0,0,0-.022-.133.317.317,0,0,0-.064-.109.3.3,0,0,0-.1-.073.35.35,0,0,0-.142-.027.445.445,0,0,0-.169.029.32.32,0,0,0-.119.08.327.327,0,0,0-.071.123.494.494,0,0,0-.024.158H269.1a.648.648,0,0,1,.04-.229.529.529,0,0,1,.119-.188.558.558,0,0,1,.2-.126.723.723,0,0,1,.271-.047.745.745,0,0,1,.242.037.506.506,0,0,1,.181.1.447.447,0,0,1,.114.162.534.534,0,0,1,.04.209.522.522,0,0,1-.029.169.948.948,0,0,1-.077.17,1.362,1.362,0,0,1-.114.168q-.066.083-.138.163l-.514.557h.96Z" transform="translate(-178.899 -113.115)" fill="#545ed6"/>
      <path id="Trazado_428" data-name="Trazado 428" d="M307.8,172.085h-1.253v-.175l.626-.7q.086-.1.143-.169a1.032,1.032,0,0,0,.091-.135.5.5,0,0,0,.047-.114.453.453,0,0,0,.013-.108.387.387,0,0,0-.022-.133.317.317,0,0,0-.064-.109.306.306,0,0,0-.1-.073.349.349,0,0,0-.142-.027.445.445,0,0,0-.169.029.321.321,0,0,0-.119.08.332.332,0,0,0-.071.123.5.5,0,0,0-.023.158h-.243a.656.656,0,0,1,.04-.229.534.534,0,0,1,.119-.188.559.559,0,0,1,.2-.126.724.724,0,0,1,.27-.047.745.745,0,0,1,.242.037.505.505,0,0,1,.181.1.447.447,0,0,1,.114.162.54.54,0,0,1,.039.209.521.521,0,0,1-.029.169.969.969,0,0,1-.077.17,1.449,1.449,0,0,1-.114.168c-.044.056-.09.11-.138.163l-.513.557h.96Z" transform="translate(-203.773 -113.115)" fill="#545ed6"/>
      <path id="Trazado_429" data-name="Trazado 429" d="M311.41,171.011h.174a.5.5,0,0,0,.165-.025.323.323,0,0,0,.118-.069.28.28,0,0,0,.071-.1.352.352,0,0,0,.024-.13.345.345,0,0,0-.083-.25.336.336,0,0,0-.252-.086.41.41,0,0,0-.141.023.311.311,0,0,0-.109.066.293.293,0,0,0-.07.1.358.358,0,0,0-.025.136h-.243a.5.5,0,0,1,.042-.206.493.493,0,0,1,.119-.167.562.562,0,0,1,.186-.113.664.664,0,0,1,.241-.042.769.769,0,0,1,.236.035.511.511,0,0,1,.182.1.463.463,0,0,1,.117.169.606.606,0,0,1,.042.235.382.382,0,0,1-.018.113.46.46,0,0,1-.054.116.494.494,0,0,1-.093.106.489.489,0,0,1-.136.082.52.52,0,0,1,.158.08.423.423,0,0,1,.1.11.411.411,0,0,1,.054.127.559.559,0,0,1,.016.131.581.581,0,0,1-.046.238.482.482,0,0,1-.127.176.566.566,0,0,1-.192.108.747.747,0,0,1-.24.037.78.78,0,0,1-.235-.035.575.575,0,0,1-.193-.1.489.489,0,0,1-.131-.167.521.521,0,0,1-.048-.227h.244a.366.366,0,0,0,.025.136.3.3,0,0,0,.072.105.325.325,0,0,0,.114.067.451.451,0,0,0,.151.024.5.5,0,0,0,.151-.022.3.3,0,0,0,.114-.066.292.292,0,0,0,.072-.112.445.445,0,0,0,.025-.157.385.385,0,0,0-.029-.155.282.282,0,0,0-.082-.108.35.35,0,0,0-.128-.064.614.614,0,0,0-.168-.021h-.174Z" transform="translate(-206.771 -113.115)" fill="#545ed6"/>
      <path id="Trazado_430" data-name="Trazado 430" d="M349.795,172.085h-1.253v-.175l.626-.7q.087-.1.144-.169a1.1,1.1,0,0,0,.091-.135.5.5,0,0,0,.046-.114.451.451,0,0,0,.013-.108.379.379,0,0,0-.022-.133.317.317,0,0,0-.064-.109.3.3,0,0,0-.1-.073.347.347,0,0,0-.142-.027.445.445,0,0,0-.169.029.323.323,0,0,0-.119.08.327.327,0,0,0-.071.123.494.494,0,0,0-.024.158h-.243a.663.663,0,0,1,.04-.229.534.534,0,0,1,.119-.188.564.564,0,0,1,.2-.126.723.723,0,0,1,.27-.047.748.748,0,0,1,.243.037.507.507,0,0,1,.181.1.448.448,0,0,1,.114.162.54.54,0,0,1,.039.209.521.521,0,0,1-.029.169.923.923,0,0,1-.077.17,1.408,1.408,0,0,1-.114.168c-.044.056-.09.11-.138.163l-.513.557h.96Z" transform="translate(-231.69 -113.115)" fill="#545ed6"/>
      <path id="Trazado_431" data-name="Trazado 431" d="M353.97,171.495h.265v.2h-.265v.444h-.244v-.444h-.87v-.143l.856-1.325h.259Zm-.839,0h.595v-.938l-.029.053Z" transform="translate(-234.582 -113.167)" fill="#545ed6"/>
      <path id="Trazado_432" data-name="Trazado 432" d="M395.06,172.085h-1.253v-.175l.626-.7q.086-.1.143-.169a1.039,1.039,0,0,0,.091-.135.5.5,0,0,0,.047-.114.451.451,0,0,0,.013-.108.386.386,0,0,0-.022-.133.316.316,0,0,0-.064-.109.3.3,0,0,0-.1-.073.349.349,0,0,0-.142-.027.445.445,0,0,0-.169.029.32.32,0,0,0-.119.08.332.332,0,0,0-.071.123.5.5,0,0,0-.023.158h-.243a.656.656,0,0,1,.04-.229.538.538,0,0,1,.119-.188.559.559,0,0,1,.2-.126.725.725,0,0,1,.271-.047.745.745,0,0,1,.242.037.506.506,0,0,1,.181.1.447.447,0,0,1,.114.162.541.541,0,0,1,.039.209.521.521,0,0,1-.029.169.969.969,0,0,1-.077.17,1.449,1.449,0,0,1-.114.168c-.044.056-.09.11-.138.163l-.513.557h.96Z" transform="translate(-261.783 -113.115)" fill="#545ed6"/>
      <path id="Trazado_433" data-name="Trazado 433" d="M398.584,171.179l.1-.954h.98v.225h-.774l-.058.522a.68.68,0,0,1,.132-.057.607.607,0,0,1,.187-.026.59.59,0,0,1,.237.046.49.49,0,0,1,.179.128.578.578,0,0,1,.113.2.9.9,0,0,1,0,.518.566.566,0,0,1-.112.2.519.519,0,0,1-.189.133.685.685,0,0,1-.267.048.741.741,0,0,1-.219-.032.546.546,0,0,1-.183-.1.524.524,0,0,1-.131-.165.636.636,0,0,1-.063-.234h.23a.386.386,0,0,0,.117.248.362.362,0,0,0,.249.083.37.37,0,0,0,.154-.031.308.308,0,0,0,.114-.087.386.386,0,0,0,.071-.137.629.629,0,0,0,.024-.18.538.538,0,0,0-.025-.167.392.392,0,0,0-.074-.135.343.343,0,0,0-.12-.09.39.39,0,0,0-.163-.033.6.6,0,0,0-.107.008.388.388,0,0,0-.08.024.3.3,0,0,0-.065.039l-.063.05Z" transform="translate(-264.938 -113.167)" fill="#545ed6"/>
      <path id="Trazado_434" data-name="Trazado 434" d="M437.18,172.085h-1.253v-.175l.626-.7q.087-.1.144-.169a1.062,1.062,0,0,0,.091-.135.5.5,0,0,0,.047-.114.451.451,0,0,0,.013-.108.386.386,0,0,0-.022-.133.317.317,0,0,0-.064-.109.3.3,0,0,0-.1-.073.348.348,0,0,0-.142-.027.445.445,0,0,0-.169.029.32.32,0,0,0-.119.08.333.333,0,0,0-.071.123.5.5,0,0,0-.023.158h-.243a.656.656,0,0,1,.04-.229.538.538,0,0,1,.119-.188.563.563,0,0,1,.2-.126.724.724,0,0,1,.27-.047.745.745,0,0,1,.242.037.506.506,0,0,1,.181.1.447.447,0,0,1,.114.162.541.541,0,0,1,.039.209.52.52,0,0,1-.029.169.969.969,0,0,1-.077.17,1.445,1.445,0,0,1-.114.168c-.044.056-.09.11-.138.163l-.513.557h.96Z" transform="translate(-289.785 -113.115)" fill="#545ed6"/>
      <path id="Trazado_435" data-name="Trazado 435" d="M441.483,170.221v.206h-.022a.752.752,0,0,0-.3.053.573.573,0,0,0-.2.14.6.6,0,0,0-.119.2.906.906,0,0,0-.051.234.466.466,0,0,1,.184-.132.623.623,0,0,1,.228-.041.516.516,0,0,1,.246.055.505.505,0,0,1,.17.143.608.608,0,0,1,.1.2.863.863,0,0,1-.006.486.6.6,0,0,1-.113.206.534.534,0,0,1-.185.138.607.607,0,0,1-.256.051.551.551,0,0,1-.271-.064.6.6,0,0,1-.192-.169.732.732,0,0,1-.115-.236.925.925,0,0,1-.039-.264v-.114a2.15,2.15,0,0,1,.017-.267,1.284,1.284,0,0,1,.057-.255,1.01,1.01,0,0,1,.108-.226.707.707,0,0,1,.17-.181.777.777,0,0,1,.242-.12,1.1,1.1,0,0,1,.323-.044Zm-.319.861a.38.38,0,0,0-.123.02.4.4,0,0,0-.108.056.416.416,0,0,0-.087.083.369.369,0,0,0-.057.1v.09a.749.749,0,0,0,.031.227.509.509,0,0,0,.083.164.35.35,0,0,0,.119.1.3.3,0,0,0,.139.034.337.337,0,0,0,.15-.032.316.316,0,0,0,.111-.091.423.423,0,0,0,.069-.138.62.62,0,0,0,.023-.176.629.629,0,0,0-.021-.165.44.44,0,0,0-.065-.14.332.332,0,0,0-.109-.1.31.31,0,0,0-.154-.037" transform="translate(-292.879 -113.165)" fill="#545ed6"/>
      <path id="Trazado_436" data-name="Trazado 436" d="M481.105,172.085h-1.253v-.175l.626-.7q.086-.1.143-.169a1.032,1.032,0,0,0,.091-.135.5.5,0,0,0,.047-.114.453.453,0,0,0,.013-.108.387.387,0,0,0-.022-.133.317.317,0,0,0-.064-.109.3.3,0,0,0-.1-.073.349.349,0,0,0-.142-.027.445.445,0,0,0-.169.029.321.321,0,0,0-.119.08.332.332,0,0,0-.071.123.5.5,0,0,0-.023.158h-.243a.656.656,0,0,1,.04-.229.539.539,0,0,1,.119-.188.559.559,0,0,1,.2-.126.725.725,0,0,1,.271-.047.745.745,0,0,1,.242.037.506.506,0,0,1,.181.1.447.447,0,0,1,.114.162.54.54,0,0,1,.039.209.521.521,0,0,1-.029.169.972.972,0,0,1-.077.17,1.449,1.449,0,0,1-.114.168c-.044.056-.09.11-.138.163l-.513.557h.96Z" transform="translate(-318.987 -113.115)" fill="#545ed6"/>
      <path id="Trazado_437" data-name="Trazado 437" d="M485.551,170.362l-.792,1.775H484.5l.789-1.712h-1.034v-.2h1.292Z" transform="translate(-321.941 -113.167)" fill="#545ed6"/>
      <path id="Trazado_438" data-name="Trazado 438" d="M357.027,183.393H306.56a2.015,2.015,0,1,1,0-4.031h50.467a2.015,2.015,0,0,1,0,4.031" transform="translate(-202.464 -119.242)" fill="#c1ddfe"/>
      <path id="Trazado_439" data-name="Trazado 439" d="M310.614,182.681a1.322,1.322,0,1,1-1.322-1.322,1.322,1.322,0,0,1,1.322,1.322" transform="translate(-204.742 -120.569)" fill="#9bc8fe"/>
      <path id="Trazado_440" data-name="Trazado 440" d="M327.455,184.84H318.2a.471.471,0,0,1,0-.941h9.253a.471.471,0,1,1,0,.941" transform="translate(-211.232 -122.258)" fill="#9bc8fe"/>
      <path id="Trazado_441" data-name="Trazado 441" d="M416.088,90.68H393.854a2.015,2.015,0,0,1,0-4.031h22.233a2.015,2.015,0,0,1,0,4.031" transform="translate(-260.499 -57.605)" fill="#ffd3d1"/>
      <path id="Trazado_442" data-name="Trazado 442" d="M397.91,89.969a1.322,1.322,0,1,1-1.322-1.322,1.322,1.322,0,0,1,1.322,1.322" transform="translate(-262.777 -58.933)" fill="#ffbdba"/>
      <path id="Trazado_443" data-name="Trazado 443" d="M414.75,92.128H405.5a.471.471,0,1,1,0-.941h9.253a.471.471,0,0,1,0,.941" transform="translate(-269.267 -60.622)" fill="#ffbdba"/>
      <path id="Trazado_444" data-name="Trazado 444" d="M124.921,415.843c.219-3.008.442-7.92-.215-10.016a11.186,11.186,0,0,1,.45-6.534c.069-.187.11-.288.11-.288l.166-3.449,1.516-31.616s-.235-.016-.624-.057c-1.427-.146-4.945-.6-6.895-1.65v43.877a14.061,14.061,0,0,0-1.735,5.87,62.337,62.337,0,0,0,5.533,3.064Z" transform="translate(-78.244 -240.817)" fill="#ffc4bd"/>
      <path id="Trazado_445" data-name="Trazado 445" d="M135.9,477.875a58.582,58.582,0,0,0,14.762,4.483,22.977,22.977,0,0,0,3.417.3c6.9.106,14.75-2.545,22.508-6.745.061-5.192.029-10.02-.109-14.418q-.1-3.125-.267-5.95s-13.644,4.191-39.8,2.047c-.588-.045-1.184-.1-1.788-.15-.024,0-.045,0-.069-.008l-.016.973v.024L134.485,461l-.284,16.072Z" transform="translate(-89.218 -302.848)" fill="#493f93"/>
      <path id="Trazado_446" data-name="Trazado 446" d="M173.724,207.65c-.074,4.774,1.48,9.573-3.8,14.866,0,0,9.814,2.111,16.443,0-1.375-5.317-2-9.252-1.048-13.853Z" transform="translate(-112.969 -138.048)" fill="#ffc4bd"/>
      <path id="Trazado_447" data-name="Trazado 447" d="M207.6,228.832a7.592,7.592,0,0,1-3.6-.43s-.13,3.286,4.436,5.5Z" transform="translate(-135.617 -151.844)" fill="#ffa69c"/>
      <path id="Trazado_448" data-name="Trazado 448" d="M294.124,188.676l6.276-26.833,5.144-.208.091,31.877a9.48,9.48,0,0,1-3.871,5.884l-.887.24s.595-2.531-6.752-10.959" transform="translate(-195.537 -107.456)" fill="#ffc4bd"/>
      <path id="Trazado_449" data-name="Trazado 449" d="M161.631,262.217l1.409,56.371s-22.969,4.665-45.2,0l2.952-33.891s-4.07.549-11.364-3.43l1.8-21.343c.676-3.965,2.69-8.411,6.33-10.557l12.3-6.037a41.724,41.724,0,0,0,16.29,0l15.506,1.254,10.152-3.211s9.124,1.848,9.981,10.666Z" transform="translate(-72.75 -160.467)" fill="#ff7867"/>
      <path id="Trazado_450" data-name="Trazado 450" d="M301.678,124.72l-4.28-7.287a.72.72,0,0,1,1.132-.873l2.981,2.993L304,109.2a.779.779,0,0,1,1.527.305l-1.074,6.707.25.037.515-2.423a1.1,1.1,0,0,1,2.156.418l-.074.426.028-.121a.936.936,0,0,1,1.829.394l-.215,1.088.164-.712a.523.523,0,0,1,.622-.394c.276.061.662.146.605.628l-.8,5.974c-.067.5-1.877,4.853-1.877,4.853l-5.2.433Z" transform="translate(-197.647 -72.197)" fill="#ffc4bd"/>
      <path id="Trazado_451" data-name="Trazado 451" d="M325.344,128.657a.168.168,0,0,1-.164-.2l.494-2.269a.168.168,0,0,1,.327.071l-.494,2.269a.167.167,0,0,1-.164.132" transform="translate(-216.181 -83.801)" fill="#ffa69c"/>
      <path id="Trazado_452" data-name="Trazado 452" d="M330.474,133.394l-.024,0a.168.168,0,0,1-.142-.19l.409-2.8a.171.171,0,0,1,.19-.142.168.168,0,0,1,.142.19l-.409,2.8a.168.168,0,0,1-.166.143" transform="translate(-219.591 -86.597)" fill="#ffa69c"/>
      <path id="Trazado_453" data-name="Trazado 453" d="M183.831,511.461l-.335-.023.357-5.234-5.145-7.154.272-.2,5.216,7.252Z" transform="translate(-118.807 -331.644)" fill="#fff"/>
      <path id="Trazado_454" data-name="Trazado 454" d="M298.357,254.405l-.335-.022c.446-6.656-9.514-10.931-9.615-10.973l.13-.309c.1.043,10.281,4.41,9.819,11.3" transform="translate(-191.737 -161.616)" fill="#ffa69c"/>
      <path id="Trazado_455" data-name="Trazado 455" d="M120.131,356.6a16.3,16.3,0,0,1-10.534-3.743l.231-.243a16.078,16.078,0,0,0,11.4,3.616l.021.335c-.379.024-.751.036-1.115.036" transform="translate(-72.861 -234.419)" fill="#ffa69c"/>
      <rect id="Rectángulo_47" data-name="Rectángulo 47" width="20.259" height="0.335" transform="translate(47.872 124.224) rotate(-88.109)" fill="#fff"/>
      <path id="Trazado_456" data-name="Trazado 456" d="M170.385,240.622l1.65-3.322s10.846,1.98,15.844,1.365v2.054a33.475,33.475,0,0,1-17.494-.1" transform="translate(-113.274 -157.759)" fill="#ff5e4a"/>
      <path id="Trazado_457" data-name="Trazado 457" d="M199.525,160.037c-.961-1.784-2.384-4.24-2.384-4.24s-.329-3.041-.279-3.663c.082-1.013-1.318-7.072-4.241-8.941a15.2,15.2,0,0,1,1.816,6.214c-1.5-3.351-4.029-5.552-6.891-5.552-4.609,0-8.346,5.7-8.346,12.731s3.736,12.731,8.346,12.731a5.934,5.934,0,0,0,3.2-.97,10.826,10.826,0,0,0-.008,1.158l-2.707,1.892,3.086.786s7.856.212,7.337-7.385a19.021,19.021,0,0,0,.049-2.417l.094-.029a1.615,1.615,0,0,0,.931-2.316" transform="translate(-119.134 -95.196)" fill="#ffc4bd"/>
      <path id="Trazado_458" data-name="Trazado 458" d="M229.466,184.414c0,.444-.212.8-.473.8s-.473-.36-.473-.8.212-.8.473-.8.473.36.473.8" transform="translate(-151.923 -122.066)" fill="#493f93"/>
      <path id="Trazado_459" data-name="Trazado 459" d="M224.184,177.887s1.351-1.535,2.109-1.519v.759l-2.109,1.287Z" transform="translate(-149.04 -117.252)" fill="#493f93"/>
      <path id="Trazado_460" data-name="Trazado 460" d="M231.507,206.929a2.966,2.966,0,0,1-1.93-.723.168.168,0,0,1,.231-.243,2.667,2.667,0,0,0,2.1.6.168.168,0,0,1,.051.331,2.989,2.989,0,0,1-.45.035" transform="translate(-152.591 -136.896)" fill="#ff7e70"/>
      <path id="Trazado_461" data-name="Trazado 461" d="M160.229,163.586s-10.049-8.755-10.877-14.521,3.311-7.471,3.311-7.471,1.517-7.087,8.552-6.692,9.933.849,13.588.278,2.842,6.8,1.517,8.351c0,0-5.337,2.727-4.289,6.9l1.186,3.047-2.069.715s-1.242-3.785-3.035-2.03-.308,4.744,2.881,4.284c0,0,.113,8.8-10.764,7.135" transform="translate(-99.218 -89.674)" fill="#493f93"/>
    </g>
  </g>
</svg>
