<svg id="Grupo_259" data-name="Grupo 259" xmlns="http://www.w3.org/2000/svg" xmlns:xlink="http://www.w3.org/1999/xlink" width="309.234" height="201.14" viewBox="0 0 309.234 201.14">
  <defs>
    <clipPath id="clip-path">
      <rect id="Rectángulo_83" data-name="Rectángulo 83" width="309.234" height="201.14" fill="none"/>
    </clipPath>
  </defs>
  <g id="Grupo_258" data-name="Grupo 258" clip-path="url(#clip-path)">
    <path id="Trazado_640" data-name="Trazado 640" d="M316.429,1339.678H12.017a.954.954,0,0,1-.72-1.581l26.283-30.19H290.867l26.283,30.19a.954.954,0,0,1-.72,1.581" transform="translate(-9.628 -1138.538)" fill="#21364f" opacity="0.321"/>
    <path id="Trazado_641" data-name="Trazado 641" d="M522.786,147.865H288.192V5.812A5.76,5.76,0,0,1,293.9,0h223.18a5.761,5.761,0,0,1,5.707,5.812q0,71.026,0,142.053" transform="translate(-250.872 0)" fill="#212322"/>
    <path id="Trazado_642" data-name="Trazado 642" d="M562.4,217.833H341.652V96.3H562.4q0,60.767,0,121.534" transform="translate(-297.409 -83.829)" fill="#363f3f"/>
    <path id="Trazado_643" data-name="Trazado 643" d="M581.906,130.581H368v-7.935H581.906q0,3.968,0,7.935" transform="translate(-320.344 -106.764)" fill="#424c4c"/>
    <path id="Trazado_644" data-name="Trazado 644" d="M389.53,142.519h-7.71a.648.648,0,0,1-.647-.647q0-1.2,0-2.408a.648.648,0,0,1,.647-.647h7.71a.647.647,0,0,1,.647.647q0,1.2,0,2.408a.647.647,0,0,1-.647.647" transform="translate(-331.812 -120.84)" fill="#495656"/>
    <path id="Trazado_645" data-name="Trazado 645" d="M472.244,144.051h-7.71a.647.647,0,0,1-.648-.647V141a.648.648,0,0,1,.648-.647h7.71a.648.648,0,0,1,.647.647q0,1.2,0,2.408a.647.647,0,0,1-.647.647" transform="translate(-403.814 -122.173)" fill="#495656"/>
    <path id="Trazado_646" data-name="Trazado 646" d="M627.9,144.051h-7.71a.648.648,0,0,1-.647-.647V141a.647.647,0,0,1,.647-.647h7.71a.648.648,0,0,1,.647.647V143.4a.647.647,0,0,1-.647.647" transform="translate(-539.311 -122.173)" fill="#495656"/>
    <path id="Trazado_647" data-name="Trazado 647" d="M1233.937,144.051h-7.71a.648.648,0,0,1-.648-.647V141a.648.648,0,0,1,.648-.647h7.71a.648.648,0,0,1,.647.647V143.4a.647.647,0,0,1-.647.647" transform="translate(-1066.871 -122.173)" fill="#495656"/>
    <path id="Trazado_648" data-name="Trazado 648" d="M1316.651,144.051h-7.71a.647.647,0,0,1-.647-.647V141a.647.647,0,0,1,.647-.647h7.71a.648.648,0,0,1,.647.647V143.4a.647.647,0,0,1-.647.647" transform="translate(-1138.874 -122.173)" fill="#495656"/>
    <path id="Trazado_649" data-name="Trazado 649" d="M1399.366,144.051h-7.71a.647.647,0,0,1-.647-.647q0-1.2,0-2.408a.648.648,0,0,1,.647-.647h7.71a.648.648,0,0,1,.647.647V143.4a.647.647,0,0,1-.647.647" transform="translate(-1210.878 -122.173)" fill="#495656"/>
    <path id="Trazado_650" data-name="Trazado 650" d="M1482.08,144.051h-7.71a.647.647,0,0,1-.648-.647V141a.647.647,0,0,1,.648-.647h7.71a.648.648,0,0,1,.648.647V143.4a.648.648,0,0,1-.648.647" transform="translate(-1282.88 -122.173)" fill="#495656"/>
    <path id="Trazado_651" data-name="Trazado 651" d="M1564.794,144.051h-7.71a.648.648,0,0,1-.647-.647V141a.647.647,0,0,1,.647-.647h7.71a.648.648,0,0,1,.648.647q0,1.2,0,2.408a.647.647,0,0,1-.648.647" transform="translate(-1354.883 -122.173)" fill="#495656"/>
    <path id="Trazado_652" data-name="Trazado 652" d="M792.555,140.348H775.84a.648.648,0,0,0-.648.647V143.4a.648.648,0,0,0,.648.647h16.716a.648.648,0,0,0,.647-.647q0-1.2,0-2.408a.647.647,0,0,0-.647-.647" transform="translate(-674.808 -122.173)" fill="#495656"/>
    <path id="Trazado_653" data-name="Trazado 653" d="M1017.749,140.348h-16.716a.647.647,0,0,0-.647.647V143.4a.647.647,0,0,0,.647.647h16.716a.648.648,0,0,0,.647-.647V141a.648.648,0,0,0-.647-.647" transform="translate(-870.84 -122.173)" fill="#495656"/>
    <path id="Trazado_654" data-name="Trazado 654" d="M1763.875,140.348h-34.726a.648.648,0,0,0-.647.647V143.4a.647.647,0,0,0,.647.647h34.726a.648.648,0,0,0,.648-.647V141a.647.647,0,0,0-.648-.647" transform="translate(-1504.667 -122.173)" fill="#495656"/>
    <path id="Trazado_655" data-name="Trazado 655" d="M391.127,282.492H368q0-36.111,0-72.222h23.128v72.222" transform="translate(-320.344 -183.041)" fill="#424c4c"/>
    <path id="Trazado_656" data-name="Trazado 656" d="M390.233,231.809h-9v-8.365h9q0,4.182,0,8.365" transform="translate(-331.867 -194.509)" fill="#495656"/>
    <path id="Trazado_657" data-name="Trazado 657" d="M390.233,309.732h-9v-8.365h9q0,4.182,0,8.365" transform="translate(-331.867 -262.341)" fill="#495656"/>
    <path id="Trazado_658" data-name="Trazado 658" d="M390.233,387.5h-9v-8.365h9q0,4.182,0,8.365" transform="translate(-331.867 -330.04)" fill="#495656"/>
    <path id="Trazado_659" data-name="Trazado 659" d="M390.233,465.271h-9v-8.365h9q0,4.182,0,8.365" transform="translate(-331.867 -397.738)" fill="#495656"/>
    <path id="Trazado_660" data-name="Trazado 660" d="M390.233,543.041h-9v-8.365h9q0,4.183,0,8.365" transform="translate(-331.867 -465.437)" fill="#495656"/>
    <path id="Trazado_661" data-name="Trazado 661" d="M390.233,620.81h-9v-8.365h9q0,4.182,0,8.365" transform="translate(-331.867 -533.136)" fill="#495656"/>
    <path id="Trazado_662" data-name="Trazado 662" d="M390.233,698.579h-9v-8.365h9q0,4.182,0,8.365" transform="translate(-331.867 -600.834)" fill="#495656"/>
    <path id="Trazado_663" data-name="Trazado 663" d="M472.884,231.809h-9v-8.365h9v8.365" transform="translate(-403.815 -194.509)" fill="#495656"/>
    <path id="Trazado_664" data-name="Trazado 664" d="M472.884,309.732h-9v-8.365h9v8.365" transform="translate(-403.815 -262.341)" fill="#495656"/>
    <path id="Trazado_665" data-name="Trazado 665" d="M472.884,387.5h-9v-8.365h9V387.5" transform="translate(-403.815 -330.04)" fill="#495656"/>
    <path id="Trazado_666" data-name="Trazado 666" d="M472.884,465.271h-9v-8.365h9v8.365" transform="translate(-403.815 -397.738)" fill="#495656"/>
    <path id="Trazado_667" data-name="Trazado 667" d="M472.884,543.041h-9v-8.365h9v8.365" transform="translate(-403.815 -465.437)" fill="#495656"/>
    <path id="Trazado_668" data-name="Trazado 668" d="M472.884,620.81h-9v-8.365h9v8.365" transform="translate(-403.815 -533.136)" fill="#495656"/>
    <path id="Trazado_669" data-name="Trazado 669" d="M472.884,698.579h-9v-8.365h9v8.365" transform="translate(-403.815 -600.834)" fill="#495656"/>
    <path id="Trazado_670" data-name="Trazado 670" d="M391.127,822.061H368q0-13.865,0-27.73h23.128v27.73" transform="translate(-320.344 -691.468)" fill="#424c4c"/>
    <path id="Trazado_671" data-name="Trazado 671" d="M432.2,858.125v13.109H445.3V858.125Zm9.7,9.7h-6.286v-6.286h6.286v6.286" transform="translate(-376.228 -747.001)" fill="#e9eaec"/>
    <path id="Trazado_672" data-name="Trazado 672" d="M394.685,820.615H381.576q0-6.554,0-13.109h13.109Z" transform="translate(-332.164 -702.937)" fill="#197582"/>
    <path id="Trazado_673" data-name="Trazado 673" d="M384.882,975.476h-3.646v-2.948h3.646v2.948" transform="translate(-331.867 -846.589)" fill="#495656"/>
    <path id="Trazado_674" data-name="Trazado 674" d="M426.207,975.476h-3.646v-2.948h3.646q0,1.474,0,2.948" transform="translate(-367.841 -846.589)" fill="#495656"/>
    <path id="Trazado_675" data-name="Trazado 675" d="M508.92,975.476h-3.646v-2.948h3.646q0,1.474,0,2.948" transform="translate(-439.843 -846.589)" fill="#495656"/>
    <path id="Trazado_676" data-name="Trazado 676" d="M467.563,975.476h-3.646q0-1.474,0-2.948h3.646v2.948" transform="translate(-403.842 -846.589)" fill="#495656"/>
    <path id="Trazado_677" data-name="Trazado 677" d="M1864.364,311.928h-23.128V210.27h23.128q0,50.829,0,101.658" transform="translate(-1602.803 -183.041)" fill="#424c4c"/>
    <path id="Trazado_678" data-name="Trazado 678" d="M1859.9,228.873h-5.429v-5.429h5.429q0,2.715,0,5.429" transform="translate(-1614.325 -194.509)" fill="#011017"/>
    <path id="Trazado_679" data-name="Trazado 679" d="M1915,228.873h-5.429q0-2.715,0-5.429H1915v5.429" transform="translate(-1662.291 -194.509)" fill="#001d25"/>
    <path id="Trazado_680" data-name="Trazado 680" d="M1970.1,228.873h-5.429v-5.429h5.429v5.429" transform="translate(-1710.255 -194.509)" fill="#002c37"/>
    <path id="Trazado_681" data-name="Trazado 681" d="M1859.9,283.974h-5.429v-5.429h5.429q0,2.715,0,5.429" transform="translate(-1614.325 -242.474)" fill="#092026"/>
    <path id="Trazado_682" data-name="Trazado 682" d="M1915,283.974h-5.429q0-2.715,0-5.429H1915v5.429" transform="translate(-1662.291 -242.474)" fill="#103d42"/>
    <path id="Trazado_683" data-name="Trazado 683" d="M1970.1,283.974h-5.429v-5.429h5.429v5.429" transform="translate(-1710.255 -242.474)" fill="#185d64"/>
    <path id="Trazado_684" data-name="Trazado 684" d="M1859.9,339.074h-5.429v-5.429h5.429q0,2.715,0,5.429" transform="translate(-1614.325 -290.439)" fill="#0b2933"/>
    <path id="Trazado_685" data-name="Trazado 685" d="M1915,339.074h-5.429q0-2.715,0-5.429H1915v5.429" transform="translate(-1662.291 -290.439)" fill="#114d58"/>
    <path id="Trazado_686" data-name="Trazado 686" d="M1970.1,339.074h-5.429v-5.429h5.429v5.429" transform="translate(-1710.255 -290.439)" fill="#197582"/>
    <path id="Trazado_687" data-name="Trazado 687" d="M1859.9,394.175h-5.429v-5.429h5.429q0,2.715,0,5.429" transform="translate(-1614.325 -338.405)" fill="#092928"/>
    <path id="Trazado_688" data-name="Trazado 688" d="M1915,394.175h-5.429q0-2.715,0-5.429H1915v5.429" transform="translate(-1662.291 -338.405)" fill="#104c40"/>
    <path id="Trazado_689" data-name="Trazado 689" d="M1970.1,394.175h-5.429v-5.429h5.429v5.429" transform="translate(-1710.255 -338.405)" fill="#197260"/>
    <path id="Trazado_690" data-name="Trazado 690" d="M1859.9,449.275h-5.429v-5.429h5.429q0,2.715,0,5.429" transform="translate(-1614.325 -386.37)" fill="#0f3130"/>
    <path id="Trazado_691" data-name="Trazado 691" d="M1915,449.275h-5.429q0-2.715,0-5.429H1915v5.429" transform="translate(-1662.291 -386.37)" fill="#206757"/>
    <path id="Trazado_692" data-name="Trazado 692" d="M1970.1,449.275h-5.429v-5.429h5.429v5.429" transform="translate(-1710.255 -386.37)" fill="#359883"/>
    <path id="Trazado_693" data-name="Trazado 693" d="M1859.9,504.376h-5.429v-5.429h5.429q0,2.715,0,5.429" transform="translate(-1614.325 -434.335)" fill="#214045"/>
    <path id="Trazado_694" data-name="Trazado 694" d="M1915,504.376h-5.429q0-2.715,0-5.429H1915v5.429" transform="translate(-1662.291 -434.335)" fill="#3e7673"/>
    <path id="Trazado_695" data-name="Trazado 695" d="M1970.1,504.376h-5.429v-5.429h5.429v5.429" transform="translate(-1710.255 -434.335)" fill="#5bb2ac"/>
    <path id="Trazado_696" data-name="Trazado 696" d="M1859.9,559.477h-5.429v-5.429h5.429q0,2.715,0,5.429" transform="translate(-1614.325 -482.301)" fill="#324a4e"/>
    <path id="Trazado_697" data-name="Trazado 697" d="M1915,559.477h-5.429q0-2.715,0-5.429H1915v5.429" transform="translate(-1662.291 -482.301)" fill="#5e8980"/>
    <path id="Trazado_698" data-name="Trazado 698" d="M1970.1,559.477h-5.429v-5.429h5.429v5.429" transform="translate(-1710.255 -482.301)" fill="#8ac6be"/>
    <path id="Trazado_699" data-name="Trazado 699" d="M1859.9,614.577h-5.429v-5.429h5.429q0,2.715,0,5.429" transform="translate(-1614.325 -530.266)" fill="#6f9e8e"/>
    <path id="Trazado_700" data-name="Trazado 700" d="M1915,614.577h-5.429q0-2.715,0-5.429H1915v5.429" transform="translate(-1662.291 -530.266)" fill="#92d1bc"/>
    <path id="Trazado_701" data-name="Trazado 701" d="M1970.1,614.577h-5.429v-5.429h5.429v5.429" transform="translate(-1710.255 -530.266)" fill="#b7e0d2"/>
    <path id="Trazado_702" data-name="Trazado 702" d="M1859.9,669.678h-5.429v-5.429h5.429q0,2.715,0,5.429" transform="translate(-1614.325 -578.231)" fill="#afa37d"/>
    <path id="Trazado_703" data-name="Trazado 703" d="M1915,669.678h-5.429q0-2.715,0-5.429H1915v5.429" transform="translate(-1662.291 -578.231)" fill="#e9d9a6"/>
    <path id="Trazado_704" data-name="Trazado 704" d="M1970.1,669.678h-5.429v-5.429h5.429v5.429" transform="translate(-1710.255 -578.231)" fill="#f0e6c3"/>
    <path id="Trazado_705" data-name="Trazado 705" d="M1859.9,724.779h-5.429V719.35h5.429q0,2.715,0,5.429" transform="translate(-1614.325 -626.197)" fill="#af772c"/>
    <path id="Trazado_706" data-name="Trazado 706" d="M1915,724.779h-5.429q0-2.715,0-5.429H1915v5.429" transform="translate(-1662.291 -626.197)" fill="#ec9c3d"/>
    <path id="Trazado_707" data-name="Trazado 707" d="M1970.1,724.779h-5.429V719.35h5.429v5.429" transform="translate(-1710.255 -626.197)" fill="#efbe55"/>
    <path id="Trazado_708" data-name="Trazado 708" d="M1859.9,779.879h-5.429V774.45h5.429q0,2.715,0,5.429" transform="translate(-1614.325 -674.162)" fill="#964d24"/>
    <path id="Trazado_709" data-name="Trazado 709" d="M1915,779.879h-5.429q0-2.715,0-5.429H1915v5.429" transform="translate(-1662.291 -674.162)" fill="#ce6426"/>
    <path id="Trazado_710" data-name="Trazado 710" d="M1970.1,779.879h-5.429V774.45h5.429v5.429" transform="translate(-1710.255 -674.162)" fill="#da8437"/>
    <path id="Trazado_711" data-name="Trazado 711" d="M1859.9,834.98h-5.429v-5.429h5.429q0,2.715,0,5.429" transform="translate(-1614.325 -722.127)" fill="#832b17"/>
    <path id="Trazado_712" data-name="Trazado 712" d="M1915,834.98h-5.429q0-2.715,0-5.429H1915v5.429" transform="translate(-1662.291 -722.127)" fill="#983a30"/>
    <path id="Trazado_713" data-name="Trazado 713" d="M1970.1,834.98h-5.429v-5.429h5.429v5.429" transform="translate(-1710.255 -722.127)" fill="#d35338"/>
    <path id="Trazado_714" data-name="Trazado 714" d="M1859.9,890.081h-5.429v-5.429h5.429q0,2.715,0,5.429" transform="translate(-1614.325 -770.093)" fill="#831d19"/>
    <path id="Trazado_715" data-name="Trazado 715" d="M1915,890.081h-5.429q0-2.715,0-5.429H1915v5.429" transform="translate(-1662.291 -770.093)" fill="#ad2622"/>
    <path id="Trazado_716" data-name="Trazado 716" d="M1970.1,890.081h-5.429v-5.429h5.429v5.429" transform="translate(-1710.255 -770.093)" fill="#c8332d"/>
    <path id="Trazado_717" data-name="Trazado 717" d="M1859.9,945.181h-5.429v-5.429h5.429q0,2.715,0,5.429" transform="translate(-1614.325 -818.058)" fill="#571016"/>
    <path id="Trazado_718" data-name="Trazado 718" d="M1915,945.181h-5.429q0-2.715,0-5.429H1915v5.429" transform="translate(-1662.291 -818.058)" fill="#73171c"/>
    <path id="Trazado_719" data-name="Trazado 719" d="M1970.1,945.181h-5.429v-5.429h5.429v5.429" transform="translate(-1710.255 -818.058)" fill="#981f26"/>
    <path id="Trazado_720" data-name="Trazado 720" d="M733.776,313.634H572.949V210.27H733.776q0,51.682,0,103.364" transform="translate(-498.754 -183.041)" fill="#424c4c"/>
    <path id="Trazado_721" data-name="Trazado 721" d="M888.034,350.671H781.123v-3.41H888.034Z" transform="translate(-679.971 -302.292)" fill="#d35338"/>
    <path id="Trazado_722" data-name="Trazado 722" d="M888.034,438.071H781.123V373.6H888.034Z" transform="translate(-679.971 -325.218)" fill="#e9eaec"/>
    <path id="Trazado_723" data-name="Trazado 723" d="M1017.968,470.8h-61.5V417.772h61.5Z" transform="translate(-832.612 -363.672)" fill="#92d1bc"/>
    <path id="Trazado_724" data-name="Trazado 724" d="M1014.928,483.638a5.356,5.356,0,1,1-5.356-5.356,5.356,5.356,0,0,1,5.356,5.356" transform="translate(-874.174 -416.346)" fill="#ec9c3d"/>
    <path id="Trazado_725" data-name="Trazado 725" d="M1017.968,601.661l-9.64-13.448-13.642-19.031-13.2,18.414-8.252-11.511-13.643,19.031-3.12,4.353v3.139h61.5Z" transform="translate(-832.612 -495.475)" fill="#197582"/>
    <path id="Trazado_726" data-name="Trazado 726" d="M309.514,1216.937c-13.017-14.808-23.95-27.245-33.261-37.839H41.659c-9.311,10.594-20.243,23.03-33.261,37.838H4.985l2.519,1.016h0l3.321,1.339,3.7,1.491a38.184,38.184,0,0,0,14.273,2.768H289.132a38.179,38.179,0,0,0,14.272-2.768l7.008-2.824.013-.006,2.52-1.016Z" transform="translate(-4.339 -1026.409)" fill="#212322"/>
    <path id="Trazado_727" data-name="Trazado 727" d="M303.383,1179.281H5.851c-4.2,0-6.7-1.037-5.587-2.3l37.056-42.153H271.914l37.056,42.153c1.111,1.262-1.385,2.3-5.587,2.3" transform="translate(-0.001 -987.872)" fill="#e9eaec"/>
    <path id="Trazado_728" data-name="Trazado 728" d="M461,1191.381H204.811l19.6-24.84h217l19.6,24.84" transform="translate(-178.289 -1015.478)" fill="#c8cecc"/>
    <path id="Trazado_729" data-name="Trazado 729" d="M851.987,1317.322H743.658q.556-1.524,1.1-3.01c.12-.333,1.216-.6,2.443-.6H853.084q.481,1.475.975,2.987c.112.345-.817.625-2.072.625" transform="translate(-647.357 -1143.589)" fill="#233a35"/>
    <path id="Trazado_730" data-name="Trazado 730" d="M286.593,1317.322H272.577l2.242-3.01a4.475,4.475,0,0,1,2.672-.6h13.7l-1.921,2.987a4.25,4.25,0,0,1-2.677.625" transform="translate(-237.279 -1143.589)" fill="#233a35"/>
    <path id="Trazado_731" data-name="Trazado 731" d="M377.98,1197.322h-12.6l1.816-2.439a4.158,4.158,0,0,1,2.369-.489h12.349l-1.558,2.422a3.956,3.956,0,0,1-2.371.506" transform="translate(-318.06 -1039.724)" fill="#233a35"/>
    <path id="Trazado_732" data-name="Trazado 732" d="M338.057,1284.917H297.672l2.122-2.85a4.386,4.386,0,0,1,2.59-.57h39.5l-1.334,2.828c-.153.326-1.268.592-2.492.592" transform="translate(-259.125 -1115.548)" fill="#233a35"/>
    <path id="Trazado_733" data-name="Trazado 733" d="M354.616,1254.2h-33.18l2.012-2.7a4.308,4.308,0,0,1,2.512-.541h32.471q-.678,1.325-1.373,2.682c-.158.309-1.251.561-2.442.561" transform="translate(-279.811 -1088.962)" fill="#233a35"/>
    <path id="Trazado_734" data-name="Trazado 734" d="M1908.917,1284.917h-22.748l-1.666-2.85c-.185-.315.635-.57,1.832-.57h22.249q1.043,1.4,2.106,2.828c.244.326-.55.592-1.773.592" transform="translate(-1640.444 -1115.548)" fill="#233a35"/>
    <path id="Trazado_735" data-name="Trazado 735" d="M443.62,1317.322H429.6l1.86-3.01a4.1,4.1,0,0,1,2.6-.6h13.7l-1.542,2.987c-.178.345-1.341.625-2.6.625" transform="translate(-373.972 -1143.589)" fill="#233a35"/>
    <path id="Trazado_736" data-name="Trazado 736" d="M1635.82,1317.322H1621.8q-.533-1.524-1.059-3.01c-.117-.333.783-.6,2.013-.6h13.7l1.354,2.987c.157.345-.736.625-1.992.625" transform="translate(-1410.856 -1143.589)" fill="#233a35"/>
    <path id="Trazado_737" data-name="Trazado 737" d="M1792.8,1330.342h-10.327q-.256-.532-.506-1.058c-.164-.341.713-.617,1.957-.617h10.219q.293.523.585,1.05c.192.345-.671.625-1.927.625" transform="translate(-1551.196 -1156.609)" fill="#233a35"/>
    <path id="Trazado_738" data-name="Trazado 738" d="M398.021,1180.473h-12.3l.666-.894a4.118,4.118,0,0,1,2.33-.475H400.9l-.571.888a3.9,3.9,0,0,1-2.305.481" transform="translate(-335.776 -1026.414)" fill="#233a35"/>
    <path id="Trazado_739" data-name="Trazado 739" d="M1900.157,1180.473h-12.3c-.192-.3-.385-.6-.575-.894-.169-.263.578-.475,1.671-.475h12.175q.331.442.661.888c.2.265-.535.481-1.638.481" transform="translate(-1642.87 -1026.414)" fill="#233a35"/>
    <path id="Trazado_740" data-name="Trazado 740" d="M2023.41,1330.342h-10.327l-.705-1.058c-.228-.341.6-.617,1.841-.617h10.219q.392.523.782,1.05c.258.345-.553.625-1.81.625" transform="translate(-1751.749 -1156.609)" fill="#233a35"/>
    <path id="Trazado_741" data-name="Trazado 741" d="M1908.112,1330.342h-10.327l-.606-1.058c-.2-.341.655-.617,1.9-.617H1909.3l.684,1.05c.225.345-.613.625-1.869.625" transform="translate(-1651.477 -1156.609)" fill="#233a35"/>
    <path id="Trazado_742" data-name="Trazado 742" d="M1899.35,1315.343h-10.2l-.591-1.032c-.192-.333.652-.6,1.88-.6h10.094l.667,1.025c.22.336-.609.61-1.85.61" transform="translate(-1643.974 -1143.589)" fill="#233a35"/>
    <path id="Trazado_743" data-name="Trazado 743" d="M600.647,1317.322H586.631l1.478-3.01c.163-.333,1.292-.6,2.52-.6h13.7q-.573,1.475-1.163,2.987c-.133.345-1.263.625-2.519.625" transform="translate(-510.664 -1143.589)" fill="#233a35"/>
    <path id="Trazado_744" data-name="Trazado 744" d="M679.906,1284.917H666.271q.635-1.442,1.25-2.85c.136-.315,1.22-.57,2.415-.57h13.335l-.953,2.828c-.11.326-1.189.592-2.413.592" transform="translate(-579.991 -1115.548)" fill="#233a35"/>
    <path id="Trazado_745" data-name="Trazado 745" d="M832.657,1284.917H819.022l.888-2.85c.1-.315,1.148-.57,2.343-.57h13.335q-.295,1.4-.594,2.828c-.068.326-1.116.592-2.338.592" transform="translate(-712.962 -1115.548)" fill="#233a35"/>
    <path id="Trazado_746" data-name="Trazado 746" d="M365.256,1225.038H343.973l1.911-2.565a4.231,4.231,0,0,1,2.438-.514h20.839l-1.494,2.547a3.873,3.873,0,0,1-2.411.532" transform="translate(-299.43 -1063.72)" fill="#233a35"/>
    <path id="Trazado_747" data-name="Trazado 747" d="M1849.713,1254.092h-28.276q-.742-1.367-1.47-2.7c-.164-.3.65-.541,1.814-.541h27.672q.989,1.325,2,2.682c.231.309-.547.561-1.737.56" transform="translate(-1584.27 -1088.87)" fill="#233a35"/>
    <path id="Trazado_748" data-name="Trazado 748" d="M985.406,1284.917H971.772q.267-1.442.526-2.85c.059-.315,1.075-.57,2.27-.57H987.9q-.116,1.4-.235,2.828c-.026.326-1.039.592-2.263.592" transform="translate(-845.931 -1115.548)" fill="#233a35"/>
    <path id="Trazado_749" data-name="Trazado 749" d="M1138.156,1284.917h-13.635q.083-1.442.165-2.85c.019-.315,1-.57,2.2-.57h13.335q.061,1.4.124,2.828c.014.326-.966.592-2.187.592" transform="translate(-978.901 -1115.548)" fill="#233a35"/>
    <path id="Trazado_750" data-name="Trazado 750" d="M1289.578,1284.917h-13.634q-.1-1.442-.2-2.85c-.021-.315.929-.57,2.125-.57h13.335q.238,1.4.483,2.828c.055.326-.89.592-2.113.592" transform="translate(-1110.542 -1115.548)" fill="#233a35"/>
    <path id="Trazado_751" data-name="Trazado 751" d="M1439.879,1284.917h-13.634q-.283-1.442-.559-2.85c-.062-.315.856-.57,2.053-.57h13.335q.415,1.4.843,2.828c.1.326-.813.592-2.038.592" transform="translate(-1241.062 -1115.548)" fill="#233a35"/>
    <path id="Trazado_752" data-name="Trazado 752" d="M1590.164,1284.917H1576.53q-.467-1.442-.921-2.85c-.1-.315.785-.57,1.981-.57h13.335q.592,1.4,1.2,2.828c.139.326-.74.592-1.962.592" transform="translate(-1371.567 -1115.548)" fill="#233a35"/>
    <path id="Trazado_753" data-name="Trazado 753" d="M1740.43,1284.917H1726.8q-.65-1.442-1.282-2.85c-.142-.315.714-.57,1.908-.57h13.335q.771,1.4,1.561,2.828c.181.326-.664.592-1.887.592" transform="translate(-1502.052 -1115.548)" fill="#233a35"/>
    <path id="Trazado_754" data-name="Trazado 754" d="M646.166,1254.2H632.893l1.294-2.7c.143-.3,1.2-.541,2.368-.541h12.989q-.5,1.325-1.012,2.682c-.115.309-1.177.561-2.366.561" transform="translate(-550.936 -1088.962)" fill="#233a35"/>
    <path id="Trazado_755" data-name="Trazado 755" d="M794.867,1254.2H781.594l.951-2.7c.106-.3,1.135-.541,2.3-.541h12.989l-.671,2.682c-.077.309-1.1.561-2.3.561" transform="translate(-680.38 -1088.962)" fill="#233a35"/>
    <path id="Trazado_756" data-name="Trazado 756" d="M943.567,1254.2H930.294q.308-1.367.608-2.7c.066-.3,1.067-.541,2.23-.541h12.989l-.331,2.682c-.038.309-1.033.561-2.224.561" transform="translate(-809.824 -1088.962)" fill="#233a35"/>
    <path id="Trazado_757" data-name="Trazado 757" d="M1092.263,1254.2H1078.99q.134-1.367.265-2.7c.031-.3,1-.541,2.162-.541h12.989q.008,1.325.01,2.682c0,.309-.963.561-2.153.561" transform="translate(-939.265 -1088.962)" fill="#233a35"/>
    <path id="Trazado_758" data-name="Trazado 758" d="M1240.44,1254.2h-13.273q-.039-1.367-.078-2.7c-.009-.3.93-.541,2.093-.541h12.989q.172,1.325.35,2.682c.04.309-.894.561-2.082.561" transform="translate(-1068.186 -1088.962)" fill="#233a35"/>
    <path id="Trazado_759" data-name="Trazado 759" d="M1386.824,1254.2h-13.273q-.213-1.367-.421-2.7c-.047-.3.86-.541,2.025-.541h12.989q.341,1.325.69,2.682c.079.309-.819.561-2.01.561" transform="translate(-1195.313 -1088.962)" fill="#233a35"/>
    <path id="Trazado_760" data-name="Trazado 760" d="M1533.194,1254.2h-13.273q-.387-1.367-.764-2.7c-.083-.3.789-.541,1.956-.541H1534.1q.511,1.325,1.031,2.682c.118.309-.751.561-1.939.561" transform="translate(-1322.427 -1088.962)" fill="#233a35"/>
    <path id="Trazado_761" data-name="Trazado 761" d="M1679.546,1254.2h-13.273q-.561-1.367-1.107-2.7c-.123-.3.722-.541,1.887-.541h12.989q.678,1.325,1.371,2.682c.16.309-.679.561-1.868.561" transform="translate(-1449.523 -1088.962)" fill="#233a35"/>
    <path id="Trazado_762" data-name="Trazado 762" d="M575.056,1225.038h-12.93l1.42-2.565c.157-.284,1.2-.514,2.34-.514h12.661l-1.151,2.547c-.132.293-1.182.532-2.34.532" transform="translate(-489.333 -1063.72)" fill="#233a35"/>
    <path id="Trazado_763" data-name="Trazado 763" d="M719.916,1225.038h-12.93l1.095-2.565c.12-.284,1.139-.514,2.275-.514h12.66q-.409,1.259-.828,2.547c-.1.293-1.112.532-2.272.532" transform="translate(-615.434 -1063.72)" fill="#233a35"/>
    <path id="Trazado_764" data-name="Trazado 764" d="M864.774,1225.038h-12.93q.388-1.3.769-2.565c.084-.284,1.073-.514,2.209-.514h12.66q-.25,1.259-.5,2.547c-.058.293-1.045.532-2.2.532" transform="translate(-741.533 -1063.72)" fill="#233a35"/>
    <path id="Trazado_765" data-name="Trazado 765" d="M1009.631,1225.038H996.7q.225-1.3.443-2.565c.05-.284,1.01-.514,2.144-.514h12.661q-.088,1.259-.182,2.547c-.021.293-.978.532-2.137.532" transform="translate(-867.632 -1063.72)" fill="#233a35"/>
    <path id="Trazado_766" data-name="Trazado 766" d="M1154.49,1225.038h-12.93q.058-1.3.118-2.565c.012-.284.944-.514,2.079-.514h12.661q.073,1.259.142,2.547c.018.293-.909.532-2.069.532" transform="translate(-993.732 -1063.72)" fill="#233a35"/>
    <path id="Trazado_767" data-name="Trazado 767" d="M1297.95,1225.038h-12.93q-.105-1.3-.208-2.565c-.023-.284.88-.514,2.014-.514h12.661q.231,1.259.465,2.547c.053.293-.843.532-2,.532" transform="translate(-1118.433 -1063.72)" fill="#233a35"/>
    <path id="Trazado_768" data-name="Trazado 768" d="M1440.606,1225.038h-12.93q-.27-1.3-.533-2.565c-.058-.284.813-.514,1.949-.514h12.661q.39,1.259.789,2.547c.091.293-.776.532-1.934.532" transform="translate(-1242.33 -1063.72)" fill="#233a35"/>
    <path id="Trazado_769" data-name="Trazado 769" d="M1583.244,1225.038h-12.93q-.435-1.3-.859-2.565c-.1-.284.749-.514,1.883-.514H1584q.551,1.259,1.112,2.547c.128.293-.708.532-1.867.532" transform="translate(-1366.21 -1063.72)" fill="#233a35"/>
    <path id="Trazado_770" data-name="Trazado 770" d="M1726.684,1225.038h-12.93q-.6-1.3-1.187-2.565c-.132-.284.684-.514,1.818-.514h12.661l1.437,2.547c.165.293-.639.532-1.8.532" transform="translate(-1490.784 -1063.72)" fill="#233a35"/>
    <path id="Trazado_771" data-name="Trazado 771" d="M527.765,1197.322h-12.6q.751-1.234,1.488-2.439a3.81,3.81,0,0,1,2.3-.489H531.3l-1.231,2.422c-.141.279-1.173.506-2.3.506" transform="translate(-448.449 -1039.724)" fill="#233a35"/>
    <path id="Trazado_772" data-name="Trazado 772" d="M668.978,1197.322h-12.6l1.178-2.439c.131-.27,1.132-.489,2.241-.489h12.349l-.924,2.422c-.107.279-1.108.506-2.239.506" transform="translate(-571.375 -1039.724)" fill="#233a35"/>
    <path id="Trazado_773" data-name="Trazado 773" d="M810.189,1197.322h-12.6q.441-1.234.869-2.439c.1-.27,1.073-.489,2.179-.489h12.349q-.305,1.2-.617,2.422c-.071.279-1.045.506-2.175.506" transform="translate(-694.301 -1039.724)" fill="#233a35"/>
    <path id="Trazado_774" data-name="Trazado 774" d="M951.4,1197.322H938.8q.283-1.234.559-2.439c.062-.27,1.011-.489,2.117-.489h12.348q-.154,1.2-.309,2.422c-.036.279-.981.506-2.111.506" transform="translate(-817.227 -1039.724)" fill="#233a35"/>
    <path id="Trazado_775" data-name="Trazado 775" d="M1092.614,1197.322h-12.6q.127-1.234.25-2.439c.028-.27.949-.489,2.055-.489h12.348q0,1.2,0,2.422c0,.279-.916.506-2.047.506" transform="translate(-940.153 -1039.724)" fill="#233a35"/>
    <path id="Trazado_776" data-name="Trazado 776" d="M1233.422,1197.322h-12.6q-.03-1.234-.06-2.439c-.006-.27.885-.489,1.993-.489H1235.1q.151,1.2.306,2.422c.035.279-.85.506-1.983.506" transform="translate(-1062.674 -1039.724)" fill="#233a35"/>
    <path id="Trazado_777" data-name="Trazado 777" d="M1372.544,1197.322h-12.6l-.369-2.439c-.04-.27.823-.489,1.931-.489h12.348q.3,1.2.613,2.422c.069.279-.788.506-1.918.506" transform="translate(-1183.509 -1039.724)" fill="#233a35"/>
    <path id="Trazado_778" data-name="Trazado 778" d="M1511.651,1197.322h-12.6l-.679-2.439c-.077-.27.763-.489,1.869-.489h12.349q.456,1.2.92,2.422c.106.279-.724.506-1.854.506" transform="translate(-1304.33 -1039.724)" fill="#233a35"/>
    <path id="Trazado_779" data-name="Trazado 779" d="M1651.544,1197.322h-12.6q-.5-1.234-.99-2.439c-.111-.27.7-.489,1.806-.489H1652.1q.608,1.2,1.229,2.422c.142.279-.66.506-1.79.506" transform="translate(-1425.832 -1039.724)" fill="#233a35"/>
    <path id="Trazado_780" data-name="Trazado 780" d="M1884.748,1225.038h-19.724q-.774-1.3-1.532-2.565c-.171-.284.615-.514,1.749-.514h19.313q.94,1.259,1.9,2.547c.22.293-.544.532-1.7.532" transform="translate(-1622.156 -1063.72)" fill="#233a35"/>
    <path id="Trazado_781" data-name="Trazado 781" d="M1813.832,1197.322h-27.369q-.668-1.234-1.318-2.439c-.148-.27.634-.489,1.74-.489H1813.7q.9,1.2,1.8,2.422c.209.279-.54.506-1.67.506" transform="translate(-1553.96 -1039.724)" fill="#233a35"/>
    <path id="Trazado_782" data-name="Trazado 782" d="M691.873,1180.473h-12.3l.424-.894c.124-.263,1.11-.475,2.2-.475h12.175l-.331.888c-.1.265-1.072.481-2.175.481" transform="translate(-591.575 -1026.414)" fill="#233a35"/>
    <path id="Trazado_783" data-name="Trazado 783" d="M829.618,1180.473h-12.3q.157-.449.31-.894c.092-.263,1.049-.475,2.141-.475H831.95q-.11.442-.218.888c-.065.265-1.012.481-2.114.481" transform="translate(-711.483 -1026.414)" fill="#233a35"/>
    <path id="Trazado_784" data-name="Trazado 784" d="M967.363,1180.473H955.068l.2-.894c.059-.263.988-.475,2.081-.475h12.175q-.052.442-.105.888c-.032.265-.95.481-2.053.481" transform="translate(-831.39 -1026.414)" fill="#233a35"/>
    <path id="Trazado_785" data-name="Trazado 785" d="M1160.293,1180.24H1148q.019-.448.038-.894c.012-.263.906-.475,2-.475h12.172q.027.442.053.888c.016.265-.866.481-1.967.481" transform="translate(-999.339 -1026.212)" fill="#233a35"/>
    <path id="Trazado_786" data-name="Trazado 786" d="M1297.5,1180.24H1285.2c-.024-.3-.049-.6-.076-.894-.023-.263.843-.475,1.936-.475h12.172l.165.888c.049.265-.8.481-1.906.481" transform="translate(-1118.708 -1026.212)" fill="#233a35"/>
    <path id="Trazado_787" data-name="Trazado 787" d="M1434.429,1180.24h-12.292q-.1-.448-.189-.894c-.055-.263.784-.475,1.876-.475H1436l.278.888c.082.265-.742.481-1.845.481" transform="translate(-1237.808 -1026.212)" fill="#233a35"/>
    <path id="Trazado_788" data-name="Trazado 788" d="M1626.2,1180.24h-12.292c-.115-.3-.231-.6-.348-.894-.1-.263.7-.475,1.792-.475h12.173q.218.442.436.888c.131.265-.659.481-1.759.481" transform="translate(-1404.603 -1026.212)" fill="#233a35"/>
    <path id="Trazado_789" data-name="Trazado 789" d="M1763.106,1180.24h-12.292l-.461-.894c-.137-.263.639-.475,1.731-.475h12.173l.548.888c.163.265-.6.481-1.7.481" transform="translate(-1523.674 -1026.212)" fill="#233a35"/>
    <path id="Trazado_790" data-name="Trazado 790" d="M976.613,1390.207H908.928c-2.078,0-3.654-.509-3.52-1.132q.957-4.482,1.853-8.667c.119-.559,1.8-1.009,3.747-1.009h63.527c1.951,0,3.629.45,3.747,1.009q.893,4.188,1.853,8.667c.13.623-1.442,1.132-3.52,1.132" transform="translate(-788.154 -1200.772)" fill="#c8cecc"/>
  </g>
</svg>
