<svg xmlns="http://www.w3.org/2000/svg" viewBox="0 0 270.459 69.959">
  <defs>
    <style>
      .cls-1, .cls-10, .cls-11, .cls-2, .cls-3, .cls-4, .cls-5, .cls-6, .cls-7, .cls-8, .cls-9 {
        fill: #fff;
      }

      .cls-2 {
        opacity: 0.95;
      }

      .cls-3 {
        opacity: 0.85;
      }

      .cls-4 {
        opacity: 0.8;
      }

      .cls-5 {
        opacity: 0.7;
      }

      .cls-6 {
        opacity: 0.6;
      }

      .cls-7 {
        opacity: 0.5;
      }

      .cls-8 {
        opacity: 0.45;
      }

      .cls-9 {
        opacity: 0.4;
      }

      .cls-10 {
        opacity: 0.3;
      }

      .cls-11 {
        opacity: 0.2;
      }
    </style>
  </defs>
  <g id="Groupe_136" data-name="Groupe 136" transform="translate(-125 -134)">
    <path id="Tracé_43" data-name="Tracé 43" class="cls-1" d="M19.705,9.564C18.551,15.543,21.121,21,25.437,21.742s8.756-3.505,9.9-9.484S33.918.836,29.6.094,20.846,3.585,19.705,9.564Z" transform="translate(132.274 133.993)"/>
    <path id="Tracé_44" data-name="Tracé 44" class="cls-2" d="M29.1,17.872c-1.979,5-.66,10.116,2.969,11.395s8.165-1.746,10.144-6.763.646-10.116-2.969-11.395S31.066,12.855,29.1,17.872Z" transform="translate(135.552 138.042)"/>
    <path id="Tracé_45" data-name="Tracé 45" class="cls-3" d="M29.6,31.59c-1.869,4.715-.619,9.525,2.79,10.735s7.684-1.649,9.539-6.364.6-9.525-2.79-10.735S31.452,26.861,29.6,31.59Z" transform="translate(135.757 143.334)"/>
    <path id="Tracé_46" data-name="Tracé 46" class="cls-4" d="M22.988,42.632c-1.649,4.151-.536,8.371,2.447,9.443s6.763-1.443,8.4-5.594.536-8.371-2.46-9.443S24.638,38.481,22.988,42.632Z" transform="translate(133.321 147.769)"/>
    <path id="Tracé_47" data-name="Tracé 47" class="cls-5" d="M13.849,46.18c-1.416,3.6-.467,7.257,2.13,8.178s5.855-1.251,7.271-4.852.467-7.257-2.13-8.178S15.265,42.578,13.849,46.18Z" transform="translate(129.938 149.389)"/>
    <path id="Tracé_48" data-name="Tracé 48" class="cls-6" d="M6.516,45c-1.155,2.941-.385,5.924,1.746,6.68s4.783-1.017,5.938-3.959.385-5.924-1.746-6.68S7.671,42.068,6.516,45Z" transform="translate(127.237 149.295)"/>
    <path id="Tracé_49" data-name="Tracé 49" class="cls-7" d="M2.061,38.986C.947,41.817,1.69,44.7,3.738,45.418s4.6-.976,5.718-3.821.371-5.7-1.677-6.433S3.188,36.154,2.061,38.986Z" transform="translate(125.576 147.099)"/>
    <path id="Tracé_50" data-name="Tracé 50" class="cls-8" d="M.549,30.519c-1.182,3-.385,6.048,1.773,6.818S7.2,36.292,8.384,33.3s.385-6.062-1.773-6.818S1.731,27.509.549,30.519Z" transform="translate(124.998 143.841)"/>
    <path id="Tracé_51" data-name="Tracé 51" class="cls-9" d="M2.48,22.427c-1.031,2.639-.344,5.306,1.567,5.979s4.275-.921,5.319-3.546.344-5.306-1.553-5.979S3.525,19.815,2.48,22.427Z" transform="translate(125.747 141.006)"/>
    <path id="Tracé_52" data-name="Tracé 52" class="cls-10" d="M6.948,14.817c-.935,2.364-.3,4.783,1.4,5.388s3.849-.825,4.783-3.189.3-4.783-1.4-5.388S7.9,12.452,6.948,14.817Z" transform="translate(127.438 138.294)"/>
    <path id="Tracé_53" data-name="Tracé 53" class="cls-11" d="M12.071,10.313c-.646,1.636-.206,3.285.976,3.711s2.653-.564,3.3-2.2.206-3.285-.962-3.7S12.717,8.677,12.071,10.313Z" transform="translate(129.407 136.997)"/>
    <g id="Groupe_4" data-name="Groupe 4" transform="translate(188.019 142.334)">
      <path id="Tracé_54" data-name="Tracé 54" class="cls-1" d="M45.85,33.719h7.945a4.315,4.315,0,0,0,1.759,3.505,8.37,8.37,0,0,0,4.673,1.168,7.526,7.526,0,0,0,3.629-.825,2.484,2.484,0,0,0,1.4-2.227c0-1.4-1.636-2.447-4.907-3.161a22.484,22.484,0,0,1-3.161-.7c-4.124-1.017-6.9-2.227-8.3-3.629a7.145,7.145,0,0,1-2.337-5.608,9.272,9.272,0,0,1,3.4-7.367,14.61,14.61,0,0,1,9.127-2.694c4.055,0,7.285.907,9.7,2.694a10.249,10.249,0,0,1,3.629,7.6H67.375a3.715,3.715,0,0,1-3.4-1.993l-.935-.935a6.291,6.291,0,0,0-3.862-1.058,6.9,6.9,0,0,0-3.5.7,2.364,2.364,0,0,0-1.058,2.1c0,1.251,2.021,2.3,6.075,3.161a11.291,11.291,0,0,0,1.237.357,5.072,5.072,0,0,0,.99.11c3.972,1.017,6.749,2.185,8.3,3.519a7.35,7.35,0,0,1,2.227,5.608,9.389,9.389,0,0,1-3.739,7.958c-2.337,1.7-5.842,2.57-10.529,2.57-4.453,0-7.752-.893-9.938-2.694-2.254-1.787-3.4-4.4-3.4-7.835Z" transform="translate(-45.85 -3.782)"/>
      <path id="Tracé_55" data-name="Tracé 55" class="cls-1" d="M89.392,34.408h5.855A12.882,12.882,0,0,1,90.34,41.9a14.854,14.854,0,0,1-9.127,2.694c-4.44,0-7.917-1.443-10.405-4.316-2.5-2.8-3.739-6.831-3.739-12.041q0-7.484,3.629-11.7c2.488-2.886,5.965-4.33,10.405-4.33q7.01,0,10.872,4.206,3.732,4.33,3.739,12.054v1.292a1.941,1.941,0,0,1-.124.825H75.358c.082,2.419.66,4.206,1.759,5.374a5.5,5.5,0,0,0,4.563,1.869,6.476,6.476,0,0,0,3.4-.825,1.536,1.536,0,0,0,.646-.4c.206-.192.412-.412.646-.646a2.664,2.664,0,0,1,.88-.935A3.193,3.193,0,0,1,89.392,34.408ZM75.358,25.282H87.289a7.552,7.552,0,0,0-1.636-4.673,5.606,5.606,0,0,0-4.33-1.636,5.7,5.7,0,0,0-4.206,1.636A6.691,6.691,0,0,0,75.358,25.282Z" transform="translate(-37.903 -3.771)"/>
      <path id="Tracé_56" data-name="Tracé 56" class="cls-1" d="M89.03,43.8V28.719a19.285,19.285,0,0,1,1.347-7.656A12.643,12.643,0,0,1,94.061,16.1a14.128,14.128,0,0,1,5.209-2.57,23.53,23.53,0,0,1,6.13-.811h1.182v8.3h-2.694a6.9,6.9,0,0,0-5.031,1.636c-1.1,1.1-1.636,2.8-1.636,5.141V43.811H89.03Z" transform="translate(-29.679 -3.58)"/>
      <path id="Tracé_57" data-name="Tracé 57" class="cls-1" d="M122.1,43.805h-8.3L102.93,12.7h8.659l6.2,21.868,5.5-19.064a3.677,3.677,0,0,1,3.752-2.8h6.075Z" transform="translate(-24.473 -3.587)"/>
      <path id="Tracé_58" data-name="Tracé 58" class="cls-1" d="M126,6.07h4.206a3.8,3.8,0,0,1,2.8,1.168,3.821,3.821,0,0,1,1.168,2.8V12.5H126Zm0,9.127h4.206a3.989,3.989,0,0,1,3.972,3.972V46.3H126Z" transform="translate(-15.833 -6.07)"/>
      <path id="Tracé_59" data-name="Tracé 59" class="cls-1" d="M133.084,33.719h7.958a4.278,4.278,0,0,0,1.759,3.505,8.37,8.37,0,0,0,4.673,1.168,7.432,7.432,0,0,0,3.615-.825,2.484,2.484,0,0,0,1.4-2.227c0-1.4-1.636-2.447-4.907-3.161a22.484,22.484,0,0,1-3.161-.7q-6.206-1.526-8.3-3.629a7.19,7.19,0,0,1-2.337-5.608,9.3,9.3,0,0,1,3.381-7.367,14.638,14.638,0,0,1,9.127-2.694c4.055,0,7.285.907,9.7,2.694a10.249,10.249,0,0,1,3.629,7.6h-5.031a3.715,3.715,0,0,1-3.4-1.993c-.316-.316-.632-.619-.935-.935a6.318,6.318,0,0,0-3.862-1.058,6.974,6.974,0,0,0-3.505.7,2.354,2.354,0,0,0-1.045,2.1c0,1.251,2.021,2.3,6.075,3.161a11.291,11.291,0,0,0,1.237.357,5.311,5.311,0,0,0,.99.11c3.972,1.017,6.749,2.185,8.3,3.519a7.341,7.341,0,0,1,2.213,5.608,9.389,9.389,0,0,1-3.739,7.958c-2.337,1.7-5.855,2.57-10.529,2.57q-6.66,0-9.938-2.694-3.4-2.68-3.4-7.835v-.33Z" transform="translate(-13.185 -3.782)"/>
      <path id="Tracé_60" data-name="Tracé 60" class="cls-1" d="M176.63,34.408h5.842a12.754,12.754,0,0,1-4.907,7.491,14.854,14.854,0,0,1-9.127,2.694c-4.44,0-7.917-1.443-10.405-4.316-2.5-2.8-3.752-6.831-3.752-12.041q0-7.484,3.629-11.7,3.752-4.33,10.405-4.33c4.687,0,8.3,1.4,10.872,4.206a15.937,15.937,0,0,1,3.038,5.965h-8.178a7.61,7.61,0,0,0-1.168-1.759,5.647,5.647,0,0,0-4.33-1.636,5.751,5.751,0,0,0-4.22,1.636q-2.1,2.35-2.1,7.725t2.1,7.6a5.5,5.5,0,0,0,4.563,1.869,6.392,6.392,0,0,0,3.381-.825,1.536,1.536,0,0,0,.646-.4l.646-.646a5.8,5.8,0,0,1,.935-.935A3.227,3.227,0,0,1,176.63,34.408Z" transform="translate(-5.242 -3.771)"/>
      <path id="Tracé_61" data-name="Tracé 61" class="cls-1" d="M180.48,41.2a11.53,11.53,0,0,1-3.5-5.663,26.109,26.109,0,0,1-1.045-7.422,23.386,23.386,0,0,1,.88-6.323,13.08,13.08,0,0,1,2.749-5.264,12.141,12.141,0,0,1,7.835-4.151,18.028,18.028,0,0,1,8.646.756,11.911,11.911,0,0,1,6.543,6.075,19.486,19.486,0,0,1,1.993,9,22.548,22.548,0,0,1-.811,6.433,16.716,16.716,0,0,1-2.1,4.563,11.668,11.668,0,0,1-7.134,4.8,15.807,15.807,0,0,1-7.766.179A13.547,13.547,0,0,1,180.48,41.2ZM186.1,20.622q-2.453,2.7-2.227,8.013c.151,3.546.825,6.02,1.993,7.422a5.294,5.294,0,0,0,2.46,1.581,5.632,5.632,0,0,0,3.56.124,6.056,6.056,0,0,0,3.216-2.625c.935-1.4,1.429-3.67,1.512-6.79a11.894,11.894,0,0,0-1.347-6.309,6.145,6.145,0,0,0-3.106-2.694,5.659,5.659,0,0,0-3.505-.069A5.987,5.987,0,0,0,186.1,20.622Z" transform="translate(2.866 -3.784)"/>
    </g>
    <g id="Groupe_5" data-name="Groupe 5" transform="translate(189.311 191.267)">
      <path id="Tracé_62" data-name="Tracé 62" class="cls-1" d="M46.79,41.82h1.732a9.946,9.946,0,0,1,1.952.124,2.264,2.264,0,0,1,1.251.756,2.191,2.191,0,0,1,.481,1.429,2.361,2.361,0,0,1-.33,1.251,2.038,2.038,0,0,1-.948.811,4.359,4.359,0,0,1-1.7.275l3.12,4.027H51.271l-3.12-4.027h-.495v4.027H46.79Zm.866.852v2.941l1.5.014a3.673,3.673,0,0,0,1.278-.165,1.355,1.355,0,0,0,.646-.522,1.5,1.5,0,0,0,0-1.608,1.247,1.247,0,0,0-.619-.509,4,4,0,0,0-1.278-.151H47.656Z" transform="translate(-46.79 -41.614)"/>
      <path id="Tracé_63" data-name="Tracé 63" class="cls-1" d="M52.51,41.82h4.962v.852h-4.1v2.722h4.069v.852H53.376v3.409h4.069v.852H52.51Z" transform="translate(-44.648 -41.614)"/>
      <path id="Tracé_64" data-name="Tracé 64" class="cls-1" d="M61.372,41.82l4.041,8.673h-.935l-1.361-2.859H59.379l-1.347,2.859H57.07l4.1-8.673Zm-.11,1.842L59.778,46.8h2.969Z" transform="translate(-42.94 -41.614)"/>
      <path id="Tracé_65" data-name="Tracé 65" class="cls-1" d="M64.53,41.82H65.4v7.835h3.34v.838H64.53Z" transform="translate(-40.146 -41.614)"/>
      <path id="Tracé_66" data-name="Tracé 66" class="cls-1" d="M68.37,42.672V41.82h4.756v.852H71.188v7.821h-.88V42.672Z" transform="translate(-38.708 -41.614)"/>
      <path id="Tracé_67" data-name="Tracé 67" class="cls-1" d="M72.65,41.82h1l2.213,3.574,2.185-3.574h1l-2.749,4.522v4.137h-.852V46.342Z" transform="translate(-37.105 -41.614)"/>
      <path id="Tracé_68" data-name="Tracé 68" class="cls-1" d="M81.6,41.82h1.732a10.436,10.436,0,0,1,2.007.124,2.2,2.2,0,0,1,1.21.756,2.157,2.157,0,0,1,.467,1.429,2.2,2.2,0,0,1-.454,1.429,2.237,2.237,0,0,1-1.265.756,11.151,11.151,0,0,1-2.2.137H82.48v4.027H81.6Zm.866.852v2.941l1.471.014a3.8,3.8,0,0,0,1.306-.165,1.355,1.355,0,0,0,.646-.522,1.5,1.5,0,0,0,0-1.608,1.18,1.18,0,0,0-.619-.509,3.9,3.9,0,0,0-1.265-.151H82.466Z" transform="translate(-33.753 -41.614)"/>
      <path id="Tracé_69" data-name="Tracé 69" class="cls-1" d="M90.962,41.82,95,50.493h-.935l-1.361-2.859H88.969l-1.347,2.859H86.66l4.1-8.673Zm-.11,1.842L89.368,46.8h2.969Z" transform="translate(-31.858 -41.614)"/>
      <path id="Tracé_70" data-name="Tracé 70" class="cls-1" d="M94.154,41.82h1.732a9.946,9.946,0,0,1,1.952.124,2.264,2.264,0,0,1,1.251.756,2.191,2.191,0,0,1,.481,1.429,2.361,2.361,0,0,1-.33,1.251,2.038,2.038,0,0,1-.948.811,4.359,4.359,0,0,1-1.7.275l3.12,4.027H98.621L95.5,46.466h-.495v4.027H94.14V41.82Zm.866.852v2.941l1.5.014a3.673,3.673,0,0,0,1.278-.165,1.355,1.355,0,0,0,.646-.522,1.5,1.5,0,0,0,0-1.608,1.247,1.247,0,0,0-.619-.509,4,4,0,0,0-1.278-.151H95.02Z" transform="translate(-29.057 -41.614)"/>
      <path id="Tracé_71" data-name="Tracé 71" class="cls-1" d="M99.23,42.672V41.82h4.756v.852h-1.938v7.821h-.88V42.672Z" transform="translate(-27.151 -41.614)"/>
      <path id="Tracé_72" data-name="Tracé 72" class="cls-1" d="M104.01,50.493V41.82h.192l5.773,6.639V41.82h.852v8.673h-.192l-5.718-6.57v6.57Z" transform="translate(-25.361 -41.614)"/>
      <path id="Tracé_73" data-name="Tracé 73" class="cls-1" d="M110.92,41.82h4.962v.852h-4.1v2.722h4.069v.852h-4.069v3.409h4.069v.852H110.92Z" transform="translate(-22.773 -41.614)"/>
      <path id="Tracé_74" data-name="Tracé 74" class="cls-1" d="M116.07,41.82H117.8a9.946,9.946,0,0,1,1.952.124A2.264,2.264,0,0,1,121,42.7a2.191,2.191,0,0,1,.481,1.429,2.361,2.361,0,0,1-.33,1.251,2.038,2.038,0,0,1-.948.811,4.359,4.359,0,0,1-1.7.275l3.12,4.027h-1.072l-3.12-4.027h-.495v4.027h-.866V41.82Zm.866.852v2.941l1.5.014a3.673,3.673,0,0,0,1.278-.165,1.355,1.355,0,0,0,.646-.522,1.5,1.5,0,0,0,0-1.608,1.247,1.247,0,0,0-.619-.509,4,4,0,0,0-1.278-.151h-1.526Z" transform="translate(-20.844 -41.614)"/>
      <path id="Tracé_75" data-name="Tracé 75" class="cls-1" d="M128.848,41.67a4.5,4.5,0,0,1,3.3,1.32,4.543,4.543,0,0,1-3.216,7.78,4.448,4.448,0,0,1-3.258-1.32,4.35,4.35,0,0,1-1.333-3.189,4.6,4.6,0,0,1,.6-2.309,4.393,4.393,0,0,1,1.649-1.677A4.335,4.335,0,0,1,128.848,41.67Zm.041.838a3.687,3.687,0,0,0-3.175,1.842,3.814,3.814,0,0,0-.481,1.9,3.637,3.637,0,0,0,3.656,3.67,3.693,3.693,0,0,0,1.869-.495,3.453,3.453,0,0,0,1.333-1.333,3.8,3.8,0,0,0,.481-1.883,3.748,3.748,0,0,0-.481-1.869A3.526,3.526,0,0,0,130.731,43,3.667,3.667,0,0,0,128.89,42.508Z" transform="translate(-17.747 -41.67)"/>
      <path id="Tracé_76" data-name="Tracé 76" class="cls-1" d="M132.66,41.82H137v.852h-3.478v2.722H137v.852h-3.478v4.261h-.866Z" transform="translate(-14.631 -41.614)"/>
      <path id="Tracé_77" data-name="Tracé 77" class="cls-1" d="M139.55,42.672V41.82h4.756v.852h-1.938v7.821h-.88V42.672Z" transform="translate(-12.05 -41.614)"/>
      <path id="Tracé_78" data-name="Tracé 78" class="cls-1" d="M148.558,41.67a4.5,4.5,0,0,1,3.3,1.32,4.543,4.543,0,0,1-3.216,7.78,4.448,4.448,0,0,1-3.258-1.32,4.35,4.35,0,0,1-1.333-3.189,4.6,4.6,0,0,1,.6-2.309,4.393,4.393,0,0,1,1.649-1.677A4.3,4.3,0,0,1,148.558,41.67Zm.041.838a3.687,3.687,0,0,0-3.175,1.842,3.814,3.814,0,0,0-.481,1.9,3.637,3.637,0,0,0,3.656,3.67,3.693,3.693,0,0,0,1.869-.495,3.453,3.453,0,0,0,1.333-1.333,3.8,3.8,0,0,0,.481-1.883,3.748,3.748,0,0,0-.481-1.869A3.526,3.526,0,0,0,150.441,43,3.7,3.7,0,0,0,148.6,42.508Z" transform="translate(-10.365 -41.67)"/>
      <path id="Tracé_79" data-name="Tracé 79" class="cls-1" d="M152.08,50.493l1.237-8.673h.137l3.519,7.106,3.491-7.106h.137l1.251,8.673H161l-.852-6.2-3.065,6.2h-.22l-3.106-6.24-.852,6.24Z" transform="translate(-7.358 -41.614)"/>
      <path id="Tracé_80" data-name="Tracé 80" class="cls-1" d="M165.078,41.67a4.5,4.5,0,0,1,3.3,1.32,4.543,4.543,0,0,1-3.216,7.78,4.448,4.448,0,0,1-3.258-1.32,4.35,4.35,0,0,1-1.333-3.189,4.6,4.6,0,0,1,.6-2.309,4.46,4.46,0,0,1,3.9-2.282Zm.041.838a3.687,3.687,0,0,0-3.175,1.842,3.814,3.814,0,0,0-.481,1.9,3.637,3.637,0,0,0,3.656,3.67,3.693,3.693,0,0,0,1.869-.495,3.452,3.452,0,0,0,1.333-1.333,3.8,3.8,0,0,0,.481-1.883,3.748,3.748,0,0,0-.481-1.869A3.526,3.526,0,0,0,166.961,43,3.667,3.667,0,0,0,165.12,42.508Z" transform="translate(-4.178 -41.67)"/>
      <path id="Tracé_81" data-name="Tracé 81" class="cls-1" d="M168.93,41.82h1.732a9.946,9.946,0,0,1,1.952.124,2.264,2.264,0,0,1,1.251.756,2.191,2.191,0,0,1,.481,1.429,2.361,2.361,0,0,1-.33,1.251,2.038,2.038,0,0,1-.948.811,4.359,4.359,0,0,1-1.7.275l3.12,4.027h-1.072l-3.12-4.027H169.8v4.027h-.866V41.82Zm.866.852v2.941l1.5.014a3.673,3.673,0,0,0,1.278-.165,1.355,1.355,0,0,0,.646-.522,1.5,1.5,0,0,0,0-1.608,1.247,1.247,0,0,0-.618-.509,4,4,0,0,0-1.278-.151H169.8Z" transform="translate(-1.047 -41.614)"/>
      <path id="Tracé_82" data-name="Tracé 82" class="cls-1" d="M174.67,41.82H176.4a9.946,9.946,0,0,1,1.952.124,2.264,2.264,0,0,1,1.251.756,2.191,2.191,0,0,1,.481,1.429,2.361,2.361,0,0,1-.33,1.251,2.038,2.038,0,0,1-.948.811,4.359,4.359,0,0,1-1.7.275l3.12,4.027h-1.072l-3.12-4.027h-.495v4.027h-.866V41.82Zm.866.852v2.941l1.5.014a3.673,3.673,0,0,0,1.278-.165,1.355,1.355,0,0,0,.646-.522,1.5,1.5,0,0,0,0-1.608,1.247,1.247,0,0,0-.619-.509,4,4,0,0,0-1.278-.151h-1.526Z" transform="translate(1.102 -41.614)"/>
      <path id="Tracé_83" data-name="Tracé 83" class="cls-1" d="M184.608,41.67a4.5,4.5,0,0,1,3.3,1.32,4.543,4.543,0,0,1-3.216,7.78,4.448,4.448,0,0,1-3.258-1.32,4.35,4.35,0,0,1-1.333-3.189,4.6,4.6,0,0,1,.6-2.309,4.393,4.393,0,0,1,1.649-1.677A4.3,4.3,0,0,1,184.608,41.67Zm.041.838a3.687,3.687,0,0,0-3.175,1.842,3.814,3.814,0,0,0-.481,1.9,3.637,3.637,0,0,0,3.656,3.67,3.693,3.693,0,0,0,1.869-.495,3.452,3.452,0,0,0,1.333-1.333,3.8,3.8,0,0,0,.481-1.883,3.748,3.748,0,0,0-.481-1.869A3.526,3.526,0,0,0,186.492,43,3.7,3.7,0,0,0,184.65,42.508Z" transform="translate(3.136 -41.67)"/>
      <path id="Tracé_84" data-name="Tracé 84" class="cls-1" d="M188.07,41.82h.893l1.773,6.24,2.488-6.24h.179l2.46,6.24,1.8-6.24h.88l-2.488,8.673h-.165l-2.57-6.556L190.7,50.493h-.165Z" transform="translate(6.121 -41.614)"/>
    </g>
  </g>
</svg>
