<svg id="Groupe_142" data-name="Groupe 142" xmlns="http://www.w3.org/2000/svg" viewBox="0 0 74.181 74.181">
  <defs>
    <style>
      .cls-1 {
        fill: #21364f;
      }
    </style>
  </defs>
  <path id="Tracé_255" data-name="Tracé 255" class="cls-1" d="M72.058,13.735,60.446,2.123,58.351,0,56.214,2.123,2.109,56.228,0,58.337l2.109,2.123L13.721,72.072l2.123,2.109,2.109-2.109L72.058,17.967l2.123-2.123ZM15.83,69.95,4.218,58.351,7.6,54.968l4.861,4.875,1.328-1.315L8.915,53.64l1.7-1.712,2.629,2.629,1.328-1.342L11.955,50.6l1.712-1.712,4.889,4.875,1.328-1.315L15.009,47.56l1.712-1.712,2.629,2.616,1.328-1.315-2.616-2.616,1.7-1.725L24.649,47.7l1.315-1.328-4.875-4.875,1.725-1.712L25.43,42.4l1.328-1.328-2.616-2.616,1.712-1.712,4.875,4.875,1.328-1.328-4.889-4.875L28.908,33.7l2.6,2.6,1.328-1.315-2.6-2.616,1.712-1.712,4.875,4.861,1.315-1.328-4.875-4.875,1.712-1.712L37.6,30.223l1.328-1.342-2.616-2.6,1.725-1.712L42.9,29.456l1.328-1.342-4.875-4.861,1.725-1.767L43.7,24.1l1.328-1.328-2.616-2.616,1.725-1.712,4.875,4.875,1.328-1.328-4.875-4.861,12.9-12.886,11.585,11.6Z"/>
  <path id="Tracé_256" data-name="Tracé 256" class="cls-1" d="M40.758,15.442a4.275,4.275,0,1,0-.014-6.053A4.3,4.3,0,0,0,40.758,15.442Zm4.451-4.451a2.014,2.014,0,1,1-2.848-.014A2.025,2.025,0,0,1,45.209,10.992Z" transform="translate(14.593 3.004)"/>
</svg>
