<svg xmlns="http://www.w3.org/2000/svg" viewBox="0 0 50.628 57.395">
  <defs>
    <style>
      .cls-1 {
        fill: #21364f;
      }
    </style>
  </defs>
  <g id="Groupe_159" data-name="Groupe 159" transform="translate(0.011 0.002)">
    <path id="Tracé_282" data-name="Tracé 282" class="cls-1" d="M50.6,28.69c0,4.129-.034,8.26.018,12.386a3.433,3.433,0,0,1-1.9,3.319Q37.847,50.613,27.017,56.89a3.188,3.188,0,0,1-3.475-.026Q12.769,50.623,1.962,44.435A3.54,3.54,0,0,1-.01,41.021Q.053,28.7-.01,16.377a3.54,3.54,0,0,1,1.959-3.42Q12.765,6.788,23.531.531A3.193,3.193,0,0,1,27.006.494q10.777,6.237,21.58,12.423a3.6,3.6,0,0,1,2.03,3.515C50.551,20.519,50.6,24.6,50.6,28.69ZM20.731,31.643c.174-1.909-.192-3.839.206-5.74,4.3-2.46,8.59-4.933,12.906-7.364a1.325,1.325,0,0,0,.717-1.379c-.024-2.9-.042-5.8.011-8.69a1.505,1.505,0,0,0-.936-1.516c-2.3-1.279-4.588-2.573-6.842-3.928a2.6,2.6,0,0,0-2.94-.011Q13.784,8.848,3.678,14.618c-.5.285-1.028.525-1.179,1.155a2.309,2.309,0,0,0-.274,1.516q-.008,11.429,0,22.859a2.223,2.223,0,0,0,.4,1.735c.124.427.5.588.838.78q8.04,4.623,16.078,9.249c.849.49,1.231.5,1.226-.649C20.737,44.725,20.742,38.184,20.731,31.643ZM47.985,15.5c-.011-.042-.011-.1-.037-.124a92.708,92.708,0,0,0-8.065-4.8c-.635-.374-.715.185-.712.651q.036,4.647.079,9.291c-.424.3-.831.633-1.279.894-3.855,2.225-7.722,4.432-11.572,6.665-.38.221-.965.266-1.007.889q-.024,12.3-.047,24.6c0,1.521.113,1.585,1.426.831Q36.853,48.6,46.931,42.806c.406-.235.894-.4,1.068-.912a2.15,2.15,0,0,0,.417-1.722q0-11.481,0-22.962A2.1,2.1,0,0,0,47.985,15.5Z" transform="translate(0 0)"/>
  </g>
</svg>
